<svg width="505" height="574" viewBox="0 0 505 574" fill="none" xmlns="http://www.w3.org/2000/svg">
<path d="M270.379 3.15132C270.623 3.17193 270.85 3.28858 271.009 3.47561C271.167 3.66264 271.245 3.90473 271.224 4.14862C271.203 4.39251 271.086 4.61822 270.898 4.7761C270.71 4.93399 270.467 5.0111 270.223 4.99049C270.101 4.98029 269.983 4.9464 269.875 4.89075C269.767 4.83511 269.671 4.75881 269.593 4.6662C269.514 4.57359 269.455 4.46649 269.418 4.35102C269.381 4.23554 269.367 4.11395 269.377 3.99319C269.388 3.87243 269.422 3.75486 269.477 3.6472C269.533 3.53954 269.61 3.44388 269.703 3.36571C269.796 3.28753 269.903 3.22836 270.019 3.19158C270.135 3.15479 270.257 3.14111 270.379 3.15132Z" fill="white"/>
<path d="M305.345 321.601C298.809 326.127 292.599 331.104 286.763 336.496C281.173 342.13 276.009 348.169 271.315 354.564C266.452 360.923 261.64 367.373 256.361 373.512C253.695 376.556 250.939 379.535 247.974 382.333C244.997 385.147 241.82 387.745 238.468 390.104C228.807 396.671 219.405 403.587 211.356 411.863C207.805 415.479 204.556 419.377 201.642 423.52C200.186 425.592 198.821 427.742 197.559 429.996C196.298 432.25 194.959 434.503 193.658 436.705C188.028 445.629 180.187 452.869 171.852 459.034C163.516 465.199 154.635 470.561 146.183 476.403C137.742 482.257 129.69 488.647 122.074 495.533C115.296 501.648 108.891 508.161 102.894 515.038C99.9165 518.484 97.0167 521.994 94.299 525.62C91.5813 529.247 88.6295 532.847 85.5217 536.202C77.5145 544.913 68.0507 552.175 57.5513 557.663C52.3048 560.361 46.8731 562.685 41.297 564.619C35.8541 566.595 30.5499 568.932 25.4198 571.613C22.2209 573.296 20.8036 573.97 20.7385 573.672C20.6735 573.374 22.0389 572.144 24.6396 570.369C28.185 567.943 31.9254 565.811 35.8225 563.997C38.2282 562.857 41.0239 561.756 43.7546 560.629C46.4854 559.502 49.4632 558.22 52.467 556.821C63.1091 551.843 72.7917 545.044 81.0745 536.733C85.1883 532.532 89.0155 528.063 92.5306 523.354C96.1845 518.574 100.073 513.989 104.13 509.547C112.268 500.696 121.066 492.469 130.449 484.938C135.13 481.156 139.967 477.555 144.96 474.136C149.928 470.73 155.012 467.505 160.018 464.215C166.086 460.35 171.89 456.088 177.391 451.457C182.928 446.786 187.747 441.332 191.695 435.267C192.657 433.739 193.515 432.172 194.439 430.579C195.362 428.986 196.259 427.302 197.273 425.735C199.237 422.552 201.409 419.502 203.775 416.604C208.5 410.833 213.803 405.556 219.6 400.854C225.842 395.673 232.682 391.088 239.196 386.477C245.53 381.594 251.264 375.986 256.283 369.769C261.484 363.617 266.192 357.102 271.159 350.704C275.986 344.147 281.42 338.055 287.387 332.507C294.838 325.759 303.121 320.125 311.157 314.374C319.194 308.623 326.983 302.406 333.458 294.946C338.374 289.325 342.808 283.289 347.554 277.344C349.96 274.417 352.365 271.49 355.044 268.783C356.344 267.384 357.775 266.115 359.153 264.807C360.532 263.499 362.053 262.307 363.639 261.232C365.189 260.109 366.8 259.071 368.464 258.123C369.309 257.644 370.193 257.256 371.064 256.828L372.365 256.194L373.665 255.689L376.357 254.678L378.957 253.733C379.846 253.434 380.715 253.079 381.558 252.671C382.414 252.32 383.252 251.926 384.068 251.492C390.7 248.138 396.317 243.203 401.713 238.061C405.87 233.977 410.306 230.186 414.99 226.715C417.365 225.016 419.849 223.476 422.428 222.104C424.936 220.79 427.347 219.301 429.645 217.649C434.215 214.227 438.558 210.515 442.648 206.536C446.748 202.469 451.053 198.613 455.548 194.983C459.659 191.929 464.062 189.287 468.694 187.095C473.024 185.036 476.704 183.585 479.799 182.419C482.894 181.254 485.417 180.386 487.484 179.699C490.299 178.694 493.18 177.881 496.105 177.264C497.029 177.07 498.225 176.785 498.797 176.746C499.746 176.669 498.472 177.472 495.338 178.909C492.204 180.347 487.146 182.303 480.722 184.828C471.243 188.584 461.802 192.988 454.065 199.736C446.328 206.484 439.059 214.566 429.983 220.822C428.852 221.612 427.668 222.337 426.472 223.05L422.909 225.005L421.193 225.951C420.633 226.288 420.087 226.65 419.541 227L417.877 228.049L416.277 229.189C412.014 232.369 407.969 235.831 404.171 239.55C400.24 243.42 396.023 246.992 391.558 250.236C390.4 251.013 389.204 251.764 388.008 252.502C386.811 253.241 385.55 253.888 384.276 254.484C383.001 255.08 381.675 255.689 380.375 256.155L376.474 257.58C372.73 258.769 369.175 260.483 365.915 262.67C362.702 264.926 359.723 267.494 357.021 270.337C351.494 276.01 346.722 282.499 341.703 288.884C339.206 292.083 336.592 295.257 333.822 298.3C331.035 301.336 328.06 304.195 324.915 306.862C318.673 312.224 311.912 316.887 305.41 321.614L305.345 321.601Z" fill="white"/>
<path d="M116.86 225.29C116.86 226.132 116.522 226.806 116.093 226.806C115.664 226.806 114.025 226.132 114.025 225.29C114.025 224.448 115.677 223.762 116.093 223.762C116.509 223.762 116.86 224.448 116.86 225.29Z" fill="white"/>
<path d="M118.134 242.879C118.859 242.879 119.447 242.293 119.447 241.571C119.447 240.848 118.859 240.263 118.134 240.263C117.409 240.263 116.821 240.848 116.821 241.571C116.821 242.293 117.409 242.879 118.134 242.879Z" fill="white"/>
<path d="M68.3959 154.003C67.4784 153.246 66.7277 152.31 66.1906 151.251C65.6536 150.192 65.3419 149.035 65.275 147.85C65.2361 146.969 65.3731 146.089 65.6782 145.26C66.2331 143.919 67.0713 142.713 68.1358 141.724L68.903 141.038C69.2039 140.784 69.5308 140.563 69.8783 140.377C70.574 140.012 71.3422 139.804 72.1279 139.768C73.4541 139.74 74.7614 140.086 75.8988 140.766C77.3254 141.527 78.4626 142.733 79.1367 144.198C79.3188 144.651 78.7336 144.884 78.0184 144.897C77.2875 144.931 76.5713 144.685 76.0159 144.211C74.3514 142.385 72.1149 141.465 70.3464 142.812C69.0486 143.763 68.128 145.139 67.7457 146.698C67.5673 147.52 67.5924 148.373 67.819 149.183C68.0456 149.993 68.4667 150.736 69.046 151.348C69.7859 152.208 70.6649 152.939 71.6467 153.51C73.1842 154.41 74.886 154.996 76.6531 155.233C77.9905 155.363 79.3406 155.24 80.6321 154.87C80.9182 154.806 81.1652 154.676 81.4383 154.598C82.4266 154.262 82.7387 154.236 83.2718 154.715C83.3888 154.832 83.5189 154.922 83.6229 155.039C83.961 155.414 83.7139 156.049 82.8427 156.528C80.1393 157.819 77.0463 158.046 74.1824 157.163C72.0054 156.574 69.9824 155.523 68.2528 154.08L68.3959 154.003Z" fill="white"/>
<path d="M112.764 182.782C115.111 181.981 117.211 180.591 118.862 178.747C120.513 176.902 121.66 174.666 122.191 172.252L122.555 170.957C122.651 170.495 122.72 170.028 122.763 169.558C122.854 168.625 123.088 167.719 123.088 166.76C123.277 164.015 123.224 161.259 122.932 158.523C122.75 157.15 122.607 155.764 122.399 154.391L121.463 149.716L121.541 148.589C121.71 148.252 122.022 148.148 122.451 148.084C122.923 148.039 123.397 148.039 123.869 148.084H125.013C126.426 148.211 127.851 148.03 129.187 147.553C129.726 147.341 130.179 146.956 130.474 146.458C130.768 145.961 130.888 145.379 130.812 144.807C130.647 143.994 130.309 143.227 129.82 142.557C129.331 141.886 128.702 141.328 127.978 140.921C126.474 139.918 124.786 139.222 123.01 138.875C121.957 138.732 121.983 138.111 123.127 137.58C124.071 137.268 125.074 137.172 126.06 137.3C127.046 137.428 127.991 137.776 128.823 138.318C130.545 139.282 131.936 140.739 132.815 142.501C133.291 143.51 133.471 144.633 133.335 145.739C133.217 146.949 132.657 148.074 131.762 148.9C130.936 149.613 129.943 150.107 128.875 150.337C127.961 150.535 127.028 150.635 126.092 150.635C125.467 150.651 124.841 150.621 124.22 150.544H124.051C124.051 150.544 124.051 150.622 124.051 150.674V150.778C124.048 150.825 124.048 150.873 124.051 150.92L124.259 152.021L124.649 154.249C125.486 159.216 125.665 164.272 125.182 169.286L124.87 171.358L124.311 173.301L124.025 174.324L123.609 175.309C123.309 175.956 123.075 176.604 122.724 177.251C121.371 179.81 119.355 181.961 116.886 183.481C115.371 184.397 113.721 185.07 111.996 185.476C110.288 185.836 108.538 185.967 106.795 185.864C104.144 185.675 101.567 184.9 99.253 183.598C96.9835 182.352 94.8819 180.824 92.9984 179.052C90.0544 176.412 87.5136 173.357 85.4564 169.985C85.0013 169.247 84.5982 168.47 84.156 167.68C82.8557 164.649 82.9207 163.432 83.4018 162.668C83.4997 162.484 83.6222 162.314 83.766 162.162C83.987 161.981 84.2601 162.162 84.5332 162.693C84.6995 163.008 84.8472 163.333 84.9753 163.665C85.1573 164.04 85.3524 164.494 85.5474 164.96C88.3834 171.194 92.8809 176.533 98.5509 180.399C100.605 181.806 102.929 182.777 105.378 183.248C107.818 183.639 110.317 183.453 112.673 182.704L112.764 182.782Z" fill="white"/>
<path d="M141.657 106.21C144.674 102.506 146.859 98.1539 146.703 93.4134C146.703 92.8177 146.703 92.2219 146.703 91.6261L146.495 89.8776C146.371 88.7158 146.127 87.5699 145.767 86.4582C145.053 84.2542 143.849 82.2396 142.243 80.5651C139.8 78.121 136.748 76.3686 133.4 75.488C131.928 75.0337 130.418 74.7129 128.888 74.5295C128.143 74.4284 127.391 74.3765 126.639 74.3741C125.91 74.3741 125.078 74.4906 124.298 74.5425C121.14 74.7872 118.008 75.2941 114.935 76.0578C111.863 76.828 108.869 77.8772 105.989 79.1922C103.118 80.5281 100.383 82.1373 97.8229 83.9974C93.2612 87.3342 89.3035 91.4207 86.1198 96.0815C82.1133 102.06 79.0439 108.611 77.0174 115.509C76.6923 116.572 76.4452 116.999 76.2112 116.908C75.9771 116.818 75.7821 116.235 75.73 115.225C75.7222 111.893 76.4456 108.599 77.8496 105.575C80.8739 98.5295 85.2463 92.1376 90.723 86.7561C96.2607 81.3647 102.99 77.3413 110.371 75.0087C114.846 73.5925 119.464 72.6759 124.142 72.2759L125.897 72.1204C126.52 72.0685 127.147 72.0685 127.77 72.1204C128.973 72.201 130.172 72.348 131.359 72.5608C133.724 73.0114 136.019 73.7691 138.186 74.8144C140.62 75.9426 142.784 77.5766 144.531 79.6067L145.207 80.3579L145.767 81.1998C146.15 81.745 146.501 82.3115 146.82 82.8965C147.439 84.0778 147.923 85.3247 148.263 86.6137C148.419 87.2613 148.64 87.9089 148.744 88.5435L149.017 90.4086C149.158 91.699 149.184 92.9992 149.095 94.2942C149.021 96.9461 148.378 99.5516 147.21 101.936C144.401 107.79 139.629 112.297 134.558 115.937C126.724 121.398 117.837 125.178 108.46 127.037C101.274 128.63 93.8252 128.63 86.6399 127.037C84.9459 126.72 83.3429 126.034 81.9457 125.029C80.9004 124.194 79.9731 123.223 79.189 122.141C78.5518 121.312 78.0967 120.638 77.7196 120.082C77.1704 119.332 76.7324 118.508 76.4192 117.634C76.2998 117.344 76.2041 117.045 76.1331 116.74C76.1331 116.364 76.5883 116.494 77.4985 117.154C78.8064 118.209 79.981 119.418 80.9964 120.755C81.8963 121.913 83.0027 122.897 84.2603 123.656C84.8839 123.99 85.5423 124.255 86.2238 124.446L88.5254 124.99C91.671 125.617 94.8758 125.899 98.083 125.832C104.678 125.639 111.198 124.388 117.393 122.128C122.049 120.473 126.503 118.301 130.67 115.652C134.836 113.081 138.559 109.857 141.697 106.106L141.657 106.21Z" fill="white"/>
<path d="M64.4956 145.701C63.8138 145.717 63.1316 145.687 62.454 145.61C61.7916 145.6 61.1326 145.513 60.4905 145.351C59.8403 145.195 59.1902 145.079 58.553 144.872L56.6935 144.133C54.2737 142.986 52.1913 141.238 50.6469 139.056L49.8277 137.852L49.1775 136.556C48.7539 135.685 48.4185 134.774 48.1762 133.837C47.3652 130.487 47.8284 126.957 49.4766 123.928C49.92 123.195 50.4154 122.493 50.959 121.83C51.5402 121.254 52.1523 120.709 52.7925 120.198L54.782 118.799C55.4712 118.372 56.2124 118.009 56.9146 117.608C59.5121 116.264 62.3769 115.512 65.3018 115.406C69.1047 115.263 72.821 116.559 75.7045 119.032C76.1467 119.421 76.2247 119.758 76.0426 119.913C75.6932 120.088 75.2953 120.143 74.9113 120.069C73.398 119.898 71.9149 119.524 70.5032 118.955C68.9935 118.371 67.4002 118.03 65.7829 117.944C64.1507 117.908 62.5228 118.126 60.9586 118.592C60.1635 118.835 59.3822 119.12 58.618 119.447C57.8508 119.797 57.1226 120.237 56.3684 120.613C55.6142 120.988 54.938 121.571 54.2098 122.05C53.8759 122.282 53.5627 122.542 53.2736 122.827C52.9521 123.074 52.6598 123.357 52.4024 123.669C51.0804 125.173 50.2861 127.064 50.1398 129.057C49.8551 132.382 50.8531 135.69 52.9306 138.308C55.0082 140.926 58.0091 142.657 61.3227 143.149C62.0249 143.291 62.7531 143.266 63.4683 143.343C63.8053 143.382 64.1456 143.382 64.4826 143.343C64.8077 143.343 65.1718 143.24 65.5228 143.175C66.9661 142.876 68.3869 142.478 69.775 141.983C71.8979 141.26 73.9484 140.341 75.8996 139.237C77.8241 138.205 79.5115 136.785 80.8539 135.067C80.9709 134.899 81.101 134.73 81.205 134.562L81.4521 134.031C81.5301 133.849 81.6471 133.668 81.6991 133.5C81.7219 133.352 81.7523 133.205 81.7902 133.059C81.7404 132.357 81.4723 131.687 81.0229 131.143C80.1127 129.847 78.8124 128.643 77.6681 127.257C77.1313 126.669 76.6401 126.041 76.1987 125.379C75.5537 124.441 75.1476 123.361 75.0154 122.232C74.9676 121.959 74.9814 121.679 75.0556 121.413C75.1298 121.146 75.2627 120.899 75.4445 120.69C75.571 120.536 75.715 120.397 75.8736 120.276C76.1076 120.146 76.3547 120.379 76.5628 120.833C76.6668 121.053 76.7578 121.338 76.9269 121.662L77.1349 122.18C77.2259 122.361 77.33 122.555 77.421 122.763C78.1235 124.041 78.9985 125.218 80.0217 126.26C81.2062 127.468 82.2932 128.767 83.2725 130.145C83.9385 131.11 84.2675 132.266 84.2088 133.435C84.2088 133.772 84.0658 134.096 83.9747 134.419C83.8837 134.743 83.7667 134.886 83.6627 135.119C83.4641 135.576 83.2155 136.011 82.9215 136.414C81.8623 137.911 80.5408 139.205 79.0204 140.235C76.8823 141.694 74.5775 142.894 72.1546 143.81C70.9583 144.276 69.749 144.708 68.5266 145.105C67.2519 145.489 65.947 145.767 64.6256 145.934L64.4956 145.701Z" fill="white"/>
<path d="M77.4209 117.09C77.4209 117.09 88.9809 80.8242 123.817 78.0524C126.418 77.8452 146.3 80.3967 144.48 98.7756C142.971 114.098 107.238 130.119 87.4856 126.078C81.79 124.887 79.8135 122.063 77.4209 117.09Z" fill="white"/>
<path d="M73.9489 121.416C73.9489 121.416 65.5227 116.028 54.4437 125.016C47.0448 131.026 51.57 143.835 63.8972 143.615C66.4979 143.615 77.8889 140.61 80.0345 133.914C81.0618 130.663 73.8449 126.208 73.9489 121.416Z" fill="white"/>
<path d="M160.318 212.934C158.591 214.656 156.656 216.157 154.557 217.403C153.444 218.044 152.25 218.536 151.007 218.866C150.35 219.028 149.68 219.132 149.005 219.177H147.977C147.601 219.143 147.227 219.082 146.859 218.996C145.614 218.64 144.427 218.108 143.335 217.415C142.269 216.794 141.307 216.12 140.344 215.421C138.433 214.048 136.612 212.597 134.805 211.173C131.177 208.31 127.588 205.474 123.804 202.961C120.126 200.392 116.068 198.413 111.776 197.094C110.243 196.682 108.668 196.448 107.081 196.394C105.502 196.38 103.928 196.576 102.4 196.977C99.2433 197.723 96.2212 198.951 93.4408 200.617C88.5161 203.666 84.2611 207.675 80.9315 212.403C77.5344 217.18 74.5751 222.252 72.0892 227.557C69.4885 232.828 67.2259 238.346 64.2871 243.578L55.8869 259.237C50.8676 268.472 45.7442 277.746 40.2828 286.67C36.7588 292.394 33.0919 298.054 28.9958 303.507C26.9506 306.233 24.7357 308.829 22.364 311.278C20.0027 313.824 17.2182 315.945 14.1328 317.547C13.6257 317.767 13.1836 317.949 12.8325 318.078C12.5068 318.157 12.1769 318.218 11.8442 318.259C11.3241 318.324 11.09 318.259 11.1031 318.156C11.1161 318.052 11.3501 317.819 11.7792 317.547L12.5464 317.081L13.5087 316.394C15.4108 314.969 17.1779 313.374 18.7881 311.628C20.8166 309.478 23.0402 306.797 25.4198 303.857C29.6168 298.508 33.5235 292.939 37.1229 287.175C40.7509 281.411 44.1968 275.518 47.5257 269.573C50.8546 263.628 54.1705 257.618 57.4343 251.57L62.3496 242.503C64.0271 239.524 65.4574 236.468 66.9398 233.333C70.4508 225.886 74.0527 218.128 79.1501 211.147C81.6785 207.611 84.6598 204.419 88.0184 201.653C91.4312 198.889 95.335 196.789 99.5265 195.462L101.256 194.957L103.024 194.568C104.236 194.32 105.468 194.19 106.704 194.18C109.152 194.17 111.584 194.555 113.908 195.319C118.385 196.937 122.613 199.169 126.47 201.951C130.371 204.619 133.986 207.546 137.64 210.408C139.46 211.833 141.294 213.258 143.179 214.527C145.065 215.796 147.08 217.118 148.979 216.871C151.652 216.495 154.152 215.331 156.156 213.53C158.329 211.754 160.328 209.776 162.125 207.624C165.739 203.248 169.041 198.626 172.008 193.791C181.11 179.129 188.743 163.496 196.259 148.071C199.211 142.074 201.955 136.077 205.257 130.275C205.687 129.549 206.129 128.837 206.649 128.125C206.919 127.74 207.228 127.384 207.572 127.063C207.916 126.755 208.285 126.477 208.677 126.234C210.144 125.359 211.684 124.614 213.281 124.006C216.399 122.797 219.586 121.772 222.825 120.936C224.255 120.561 225.673 120.224 227.103 119.926C227.831 119.779 228.56 119.65 229.288 119.538L229.873 119.447L230.757 119.343C231.336 119.28 231.918 119.254 232.5 119.266C233.291 119.231 234.073 119.444 234.736 119.874C235.017 120.07 235.208 120.368 235.269 120.703C235.298 121.007 235.24 121.312 235.1 121.584C234.736 122.594 233.059 123.695 231.876 124.407L231.42 124.667L231.095 124.835L230.497 125.159C230.094 125.353 229.717 125.534 229.353 125.69C228.625 126.018 227.961 126.29 227.363 126.506C225.75 127.154 224.058 127.589 222.331 127.801C221.801 127.881 221.267 127.933 220.732 127.956C220.146 127.956 220.862 127.386 222.63 126.506C223.514 126.052 224.672 125.534 226.037 124.887C226.713 124.576 227.441 124.226 228.209 123.838L229.379 123.216L229.977 122.879L230.276 122.711L230.432 122.607C230.631 122.491 230.818 122.356 230.991 122.206C231.095 122.089 231.342 121.934 231.173 121.765C230.977 121.719 230.772 121.719 230.575 121.765L229.769 121.895C226.857 122.396 223.978 123.071 221.148 123.915C218.283 124.727 215.473 125.717 212.734 126.881C211.461 127.381 210.262 128.052 209.171 128.876C208.739 129.341 208.356 129.849 208.027 130.391C207.637 131 207.26 131.686 206.883 132.282C203.944 137.541 201.304 143.162 198.574 148.731C195.843 154.301 193.138 159.935 190.317 165.569C186.142 173.871 181.812 182.134 177.053 190.177C174.673 194.206 172.177 198.182 169.472 202.041C166.798 205.971 163.774 209.651 160.435 213.038L160.318 212.934Z" fill="white"/>
<path d="M221.226 135.313C223.041 134.821 224.808 134.167 226.505 133.357L226.856 133.137L226.96 133.059C227.024 132.996 227.08 132.927 227.129 132.852C227.175 132.776 227.189 132.685 227.17 132.599C227.15 132.512 227.099 132.436 227.025 132.386C226.951 132.324 226.861 132.284 226.765 132.269H226.583H226.167C224.943 132.303 223.723 132.415 222.513 132.606C221.408 132.761 220.303 133.008 219.171 133.215C218.456 133.344 217.728 133.487 216.961 133.552C216.142 133.653 215.311 133.551 214.542 133.254C213.996 133.02 214.386 132.489 214.88 131.958C215.288 131.398 215.899 131.017 216.584 130.896C219.184 130.728 222.084 130.029 225.205 130.003C225.686 130.003 226.128 130.003 226.726 130.003C227.089 130.028 227.45 130.08 227.806 130.158C228.142 130.257 228.462 130.405 228.755 130.598C229.044 130.789 229.291 131.035 229.483 131.322C229.675 131.608 229.808 131.931 229.873 132.269C229.908 132.613 229.869 132.961 229.759 133.289C229.65 133.617 229.471 133.919 229.236 134.173C228.961 134.471 228.656 134.74 228.326 134.976C228.083 135.145 227.831 135.301 227.572 135.443C227.103 135.698 226.622 135.927 226.128 136.129C225.179 136.53 224.217 136.854 223.267 137.165L219.769 138.279L218.469 138.732L217.858 138.965L217.39 139.186C217.329 139.209 217.274 139.246 217.229 139.293C217.184 139.34 217.15 139.396 217.13 139.458V139.639L217.039 139.963C216.908 140.437 216.752 140.904 216.571 141.362C216.233 142.147 215.695 142.83 215.01 143.343C214.379 143.816 213.688 144.203 212.956 144.496C212.651 144.632 212.338 144.748 212.019 144.846C210.849 145.195 210.433 145.066 210.069 144.496C209.974 144.37 209.892 144.235 209.822 144.094C209.627 143.628 210.017 143.136 210.771 142.799C211.812 142.407 212.803 141.894 213.723 141.271C214.021 141.04 214.254 140.737 214.399 140.39C214.492 140.158 214.571 139.92 214.633 139.678L214.763 139.212L214.841 138.952C214.881 138.793 214.934 138.638 214.997 138.486C215.157 138.026 215.457 137.628 215.855 137.346C216.054 137.202 216.262 137.072 216.48 136.958L216.896 136.764C217.429 136.53 217.923 136.349 218.404 136.181L221.265 135.235L221.226 135.313Z" fill="white"/>
<path d="M174.387 223.982C178.25 218.52 181.622 212.729 184.465 206.678C185.531 204.476 186.507 202.223 187.508 199.982C191.045 192.081 194.244 183.999 197.377 175.891L201.474 165.064C203.268 160.479 204.88 155.738 207.897 151.568C208.912 150.273 209.198 150.894 209.003 152.28C208.596 154.405 207.936 156.475 207.039 158.445C204.984 162.927 203.229 167.628 201.383 172.291C199.536 176.954 197.703 181.668 195.726 186.344C193.372 191.939 191.136 197.858 188.548 203.518C185.756 209.784 182.518 215.843 178.861 221.651C176.602 225.259 173.989 228.635 171.058 231.727C168.806 234.089 166.232 236.125 163.412 237.776C160.527 239.386 157.292 240.275 153.985 240.366C148.948 240.15 144.05 238.652 139.759 236.014C138.81 235.47 137.887 234.939 136.976 234.331C133.596 232.064 132.737 231.067 132.451 230.057C132.378 229.828 132.321 229.594 132.282 229.357C132.282 228.722 133.817 229.448 136.183 231.028C139.729 233.469 143.574 235.445 147.626 236.908C149.614 237.597 151.699 237.965 153.803 237.996C154.31 237.996 154.817 237.931 155.337 237.918C155.857 237.905 156.352 237.724 156.859 237.633C157.889 237.425 158.898 237.126 159.876 236.74C162.826 235.448 165.518 233.636 167.821 231.391C169.03 230.303 170.109 229.046 171.228 227.829C172.346 226.611 173.334 225.238 174.283 223.865L174.387 223.982Z" fill="white"/>
<path d="M45.835 307.03C49.1769 302.225 52.3367 297.316 55.5225 292.355L58.8644 286.877C62.8435 280.466 66.7835 274.028 70.5675 267.514C72.271 264.625 73.9094 261.685 75.4958 258.758C77.5374 255.002 79.4619 251.168 81.7115 247.542C81.8356 247.328 81.9988 247.139 82.1926 246.985C82.2489 246.941 82.3166 246.914 82.3877 246.907V247.024H82.4657C82.6217 246.946 82.6997 247.127 82.7517 247.321C82.8145 247.585 82.845 247.854 82.8428 248.125C82.7258 250.08 82.1561 251.982 81.1783 253.681C76.9912 261.348 72.6091 268.899 67.8888 276.36C65.0671 280.815 62.3754 285.595 59.5406 290.18C56.4198 295.213 53.2079 300.204 49.9051 305.152C47.8635 308.183 45.783 311.188 43.6114 314.141C42.142 316.122 40.6336 318.091 39.0212 319.982C38.215 320.914 37.3698 321.847 36.4205 322.728C35.9654 323.168 35.5103 323.608 35.0161 324.023C34.7691 324.23 34.509 324.424 34.2359 324.619C33.9408 324.828 33.6324 325.019 33.3127 325.189C32.9294 325.326 32.5191 325.372 32.1148 325.322C31.7105 325.273 31.3235 325.129 30.9851 324.904C28.9825 323.803 27.3701 322.546 25.5366 321.575C23.8028 320.574 21.9128 319.869 19.9451 319.49C19.0847 319.361 18.2139 319.313 17.3444 319.347C16.2288 319.439 15.1209 319.608 14.0286 319.852C13.4787 319.996 12.901 319.996 12.3511 319.852C12.1329 319.821 11.9191 319.765 11.714 319.684C11.4409 319.542 11.5709 319.218 12.091 318.764C12.9716 318.091 13.9943 317.626 15.0818 317.405C16.7747 316.94 18.5467 316.834 20.2832 317.094C22.0231 317.37 23.711 317.907 25.2895 318.687C26.8189 319.445 28.292 320.31 29.6977 321.277C30.3869 321.73 30.9981 322.184 31.7002 322.572C31.964 322.74 32.2425 322.883 32.5325 323L32.6885 322.922L33.0136 322.689C33.2483 322.524 33.474 322.347 33.6898 322.158C34.1449 321.769 34.6 321.329 34.9901 320.863C36.9736 318.761 38.8278 316.542 40.5426 314.218C42.2981 311.874 44.0015 309.465 45.6659 307.03H45.835Z" fill="white"/>
<path d="M166.312 451.923C161.449 452.532 152.932 459.695 149.408 462.285C148.251 458.697 147.444 395.699 148.732 380.688C138.199 371.142 115.469 339.591 112.608 336.651C112.946 349.007 107.641 404.843 103.311 417.666C98.1093 433.052 76.9267 489.873 71.6473 490.352C65.8997 490.87 61.1405 489.057 52.1421 490.352C64.1183 461.236 81.4518 406.268 81.4518 406.268C81.4518 406.268 81.0097 349.279 80.7887 303.883C87.4854 307.768 120.215 304.997 131.502 294.881C131.97 301.02 132.802 305.968 133.96 308.649C139.343 320.694 166.468 358.76 168.653 364.627C172.125 373.875 164.622 439.244 166.312 451.923Z" fill="white"/>
<path d="M82.856 375.74L82.9731 404.403V406.32C82.9731 406.579 82.83 406.902 82.804 407.071L82.661 407.498L82.3879 408.353L81.2956 411.772L79.072 418.598L74.5728 432.211C68.4612 450.343 62.2716 468.476 55.2367 486.285L54.3915 488.37L54.2744 488.668L54.2094 488.811V488.888H54.5215H54.9506C55.8479 488.811 56.7451 488.746 57.6423 488.733C61.2573 488.59 64.8462 489.083 68.2141 489.251C69.0501 489.296 69.8879 489.296 70.7238 489.251H71.335C71.3943 489.269 71.4577 489.269 71.517 489.251C71.7403 489.098 71.9416 488.915 72.1152 488.707C73.157 487.425 74.0715 486.046 74.8459 484.588C76.5103 481.596 78.0187 478.462 79.4751 475.328C84.5595 464.189 89.0977 452.765 93.5188 441.329C95.7121 435.587 97.8577 429.836 99.9555 424.077L101.503 419.738L102.244 417.575L102.868 415.425C103.284 413.987 103.557 412.472 103.909 411.008L104.754 406.501C106.795 394.443 108.213 382.242 109.461 370.041C110.072 363.928 110.618 357.815 111.06 351.701C111.282 348.645 111.477 345.588 111.607 342.531L111.789 336.211C111.789 335.693 111.789 335.045 111.854 334.618L112.985 335.913C113.7 336.781 114.415 337.584 115.144 338.503L125.546 351.986C128.875 356.312 132.243 360.625 135.676 364.86C139.109 369.096 142.607 373.279 146.326 377.191C146.794 377.67 147.249 378.188 147.743 378.628L149.395 380.221L149.681 380.493C149.693 380.623 149.693 380.753 149.681 380.882V381.659L149.616 382.682C149.616 383.356 149.525 383.978 149.499 384.703C149.382 387.397 149.317 390.091 149.265 392.798C149.07 404.455 149.135 416.034 149.265 427.652L149.59 445.098L149.863 453.789L150.058 458.127L150.162 459.746C150.167 460.036 150.211 460.323 150.292 460.601L151.709 459.526L154.479 457.467C156.343 456.086 158.284 454.811 160.292 453.646C161.969 452.516 163.897 451.81 165.909 451.587C166.702 451.587 166.221 451.82 164.947 452.39C162.918 453.424 160.997 454.656 159.212 456.068C157.977 457.001 156.612 458.089 155.129 459.306L152.828 461.249L150.942 462.79C150.188 463.399 149.434 464.008 148.653 464.616C148.51 464.059 148.406 463.321 148.263 462.674C148.12 462.026 147.99 461.378 147.925 460.588C147.86 459.798 147.808 459.41 147.743 458.814L147.626 457.519C147.47 455.718 147.353 453.84 147.249 451.911C147.028 448.025 146.885 443.945 146.794 439.658C146.521 425.411 146.404 411.241 146.599 397.02C146.599 393.458 146.716 389.91 146.872 386.335C146.872 385.441 146.872 384.547 146.989 383.641L147.132 381.556L146.885 381.309L145.897 380.364C145.234 379.716 144.596 379.069 144.011 378.395C139.083 373.111 134.649 367.529 130.202 361.946C125.754 356.364 121.476 350.652 117.198 344.992L114.441 341.379L114.298 341.184C114.298 341.184 114.233 341.081 114.22 341.12V341.236L114.116 343.826C113.999 345.601 113.921 347.401 113.791 349.176C112.79 363.423 111.295 377.67 109.409 391.917C108.837 396.165 108.239 400.427 107.511 404.714C106.86 409.057 105.944 413.356 104.767 417.588C101.984 425.916 98.8893 434.076 95.7814 442.313C92.6736 450.551 89.4098 458.736 85.9768 466.922C84.2474 470.976 82.4789 475.03 80.5804 479.019C79.6312 481.014 78.6559 482.995 77.5896 484.951C77.0565 485.935 76.5103 486.907 75.8992 487.865C75.288 488.87 74.578 489.811 73.7796 490.676C73.5015 490.98 73.1767 491.237 72.8174 491.44C72.5992 491.564 72.3619 491.652 72.1152 491.699C71.9153 491.749 71.7101 491.775 71.504 491.777C70.8668 491.777 70.2037 491.841 69.6055 491.841C68.3052 491.841 67.1219 491.751 65.8995 491.66C63.4809 491.453 61.1273 491.233 58.7736 491.259C57.5903 491.259 56.42 491.323 55.2367 491.427C54.3395 491.505 53.2472 491.66 52.2979 491.777L50.8285 491.971H50.6465C50.6465 491.971 50.6465 491.854 50.6465 491.803L50.7895 491.466L51.0626 490.766L52.9091 486.194C53.3642 485.08 53.8063 483.967 54.2094 482.84C57.6943 473.89 60.9712 464.837 64.1571 455.757C67.3429 446.678 70.4377 437.56 73.4675 428.429L77.9797 414.713L80.1903 407.835L80.4764 406.98L80.6064 406.553C80.6187 406.489 80.6187 406.423 80.6064 406.359V400.983C80.4851 377.281 80.368 353.584 80.2553 329.89V316.938V310.462V303.209C80.2553 303.015 80.2553 302.769 80.3203 302.73C81.0615 303.106 81.8938 303.494 82.687 303.805L83.2721 303.986L83.6752 304.09L84.4554 304.258C85.5128 304.46 86.5808 304.603 87.6543 304.686C89.8168 304.86 91.9876 304.912 94.156 304.841C98.5156 304.713 102.861 304.28 107.159 303.546C111.463 302.849 115.703 301.805 119.838 300.424C121.884 299.733 123.879 298.898 125.806 297.925C126.762 297.449 127.691 296.922 128.589 296.345L128.953 296.112L129.421 295.749L130.371 295.036C131.008 294.557 131.606 294.026 132.23 293.521C132.386 295.166 132.529 296.811 132.685 298.456C132.815 299.66 132.971 300.865 133.153 302.056C133.428 304.404 134.046 306.699 134.987 308.869C137.158 313.157 139.545 317.333 142.139 321.381C149.486 333.115 157.275 344.409 164.7 355.924C165.636 357.361 166.533 358.825 167.43 360.301C168.414 361.792 169.222 363.392 169.836 365.068C170.222 366.796 170.449 368.556 170.512 370.326C170.603 372.062 170.642 373.784 170.642 375.507C170.642 382.371 170.317 389.197 169.979 396.049C169.628 402.071 169.277 407.952 168.926 414.026C167.456 436.511 167.092 443.621 166.533 448.439C166.403 449.54 166.338 451.03 166.273 451.639C166.169 452.765 165.597 451.004 165.402 446.885C165.207 442.766 165.324 436.316 165.753 428.066C166.386 416.556 167.032 404.899 167.69 393.096C167.964 387.216 168.211 381.296 168.198 375.39C168.246 372.494 168.081 369.598 167.703 366.726C167.485 365.415 166.988 364.165 166.247 363.06C165.545 361.765 164.739 360.534 163.971 359.265C157.561 349.176 150.708 339.177 144.128 328.932C140.851 323.751 137.627 318.661 134.558 313.234C133.791 311.939 133.127 310.488 132.425 308.986C131.842 307.459 131.407 305.88 131.125 304.271C130.566 301.487 130.137 296.733 130.267 298.093C130.137 298.171 130.8 297.769 128.901 298.961C127.558 299.735 126.173 300.435 124.753 301.059C117.82 303.887 110.524 305.735 103.076 306.551C99.3718 307.022 95.6411 307.26 91.9064 307.263C90.0082 307.267 88.1113 307.167 86.2239 306.965C85.249 306.86 84.2808 306.7 83.3241 306.486C83.1161 306.486 82.765 306.344 82.661 306.331C82.791 329.411 82.921 352.569 83.0381 375.688L82.856 375.74Z" fill="white"/>
<path d="M83.6618 281.955L83.5578 287.783C83.5578 288.496 83.5578 289.208 83.5578 289.908C83.4798 292.407 83.3367 294.907 83.2067 297.407C83.2067 298.508 83.2067 299.622 83.2067 300.722C83.287 302.142 83.2173 303.566 82.9986 304.971C82.8166 305.838 80.8531 304.608 80.9181 303.002C81.0091 300.153 81.1652 297.303 81.4642 294.415C81.6463 292.692 81.5553 290.892 81.5813 289.117L81.6593 283.263V279.663C81.6593 277.849 81.6593 276.023 81.6593 274.21C81.6593 272.811 81.4252 271.438 81.3212 270.052C81.3212 269.741 81.3212 269.443 81.2432 269.133C81.2432 267.993 81.3342 267.617 81.8934 267.371C82.0132 267.306 82.1396 267.254 82.2704 267.216C82.6996 267.099 83.0506 267.565 83.1807 268.394C83.5386 270.944 83.7298 273.514 83.7528 276.088C83.7528 278.031 83.7528 279.973 83.8309 281.955H83.6618Z" fill="white"/>
<path d="M132.256 258.784L131.944 268.459V271.995C131.84 276.14 131.736 280.297 131.736 284.442C131.736 286.281 131.827 288.133 131.931 289.946C132.074 292.291 132.347 294.622 132.295 296.979C132.295 298.443 130.124 296.746 129.916 294.013C129.621 289.188 129.586 284.35 129.812 279.52C129.955 276.619 129.812 273.601 129.903 270.635L130.163 260.856L130.358 254.847C130.449 251.816 130.579 248.759 130.618 245.78C130.618 243.436 130.553 241.143 130.501 238.825C130.501 238.32 130.501 237.815 130.501 237.31C130.501 235.406 130.631 234.81 131.203 234.395C131.317 234.293 131.444 234.206 131.58 234.136C132.009 233.942 132.36 234.719 132.477 236.131C132.789 240.289 132.737 244.653 132.646 249.083C132.568 252.334 132.477 255.559 132.386 258.849L132.256 258.784Z" fill="white"/>
<path d="M54.6772 490.624C54.4431 492.165 53.1818 500.532 58.5782 502.397C62.9603 503.887 68.7729 529.804 76.4319 528.858C85.8724 527.705 65.8991 490.624 65.8991 490.624H54.6772Z" fill="white"/>
<path d="M78.6035 515.297C79.4303 517.825 80.0052 520.428 80.32 523.069C80.5125 524.532 80.3929 526.019 79.9689 527.433C79.6742 528.324 79.0822 529.087 78.2915 529.596C77.5023 530.042 76.5933 530.232 75.6908 530.14C74.5133 529.985 73.4088 529.485 72.5179 528.703C71.7205 528.051 71.0123 527.297 70.4114 526.462C68.5304 523.677 66.9483 520.704 65.6911 517.59C64.3908 514.559 63.1945 511.515 61.8811 508.524C61.3192 507.227 60.6584 505.976 59.9046 504.78C59.5874 504.243 59.1781 503.765 58.6953 503.369C58.5912 503.265 58.5132 503.278 58.4352 503.213L57.8891 502.98L57.3169 502.734L56.7838 502.371C56.3393 502.067 55.9332 501.71 55.5744 501.309C55.23 500.91 54.9293 500.476 54.6772 500.014C54.1944 499.11 53.8607 498.135 53.6889 497.126C53.3244 495.204 53.3244 493.232 53.6889 491.31C53.936 490.145 54.5212 490.43 54.9893 491.453C55.5887 492.932 55.974 494.489 56.1336 496.077C56.2329 497.577 56.8535 498.997 57.8891 500.092C58.0112 500.197 58.1417 500.292 58.2792 500.377C58.4 500.486 58.5415 500.569 58.6953 500.623L59.1504 500.843C59.542 500.99 59.9066 501.2 60.2297 501.465C61.0893 502.234 61.8029 503.151 62.3362 504.172C64.0802 507.615 65.6088 511.162 66.9134 514.792C67.7459 516.918 68.6922 518.997 69.7482 521.022C70.7374 523.01 72.0073 524.846 73.5192 526.475C75.0926 528.146 77.4202 528.405 77.8103 526.319C78.0401 525.185 78.0665 524.018 77.8884 522.874C77.7298 521.644 77.4953 520.424 77.1862 519.222C76.4104 516.202 75.4418 513.234 74.2864 510.337C72.5699 505.92 70.6324 501.529 68.5259 497.307C67.7067 495.662 66.8484 494.056 65.9252 492.476L65.6131 491.919L65.4311 491.634C65.4311 491.634 65.4311 491.531 65.34 491.518H65.184H64.8459L62.1022 491.608L59.7095 491.686C56.6927 491.686 55.8085 491.569 55.0933 490.922C54.9403 490.785 54.7969 490.638 54.6642 490.481C54.3781 489.976 55.6004 489.562 57.811 489.419C59.4365 489.316 61.1009 489.225 62.7653 489.16H64.0657H65.6781C66.0812 489.16 66.4973 489.16 66.8874 489.16L67.4726 490.222L68.2398 491.634C69.8782 494.639 71.4256 497.735 72.882 500.882C75.0921 505.548 77.0243 510.34 78.6686 515.233L78.6035 515.297Z" fill="white"/>
<path d="M150.591 461.301C151.658 463.405 153.47 465.04 155.678 465.889C157.886 466.738 160.331 466.742 162.541 465.899C171.032 463.179 186.363 459.63 189.653 453.361C192.943 447.092 159.745 455.822 159.745 455.822L150.591 461.301Z" fill="white"/>
<path d="M182.358 449.786C183.49 449.696 184.647 449.631 185.83 449.644C186.439 449.652 187.046 449.691 187.651 449.76C187.997 449.803 188.34 449.868 188.678 449.955C189.135 450.069 189.572 450.248 189.978 450.486C190.387 450.72 190.717 451.068 190.93 451.487C191.142 451.905 191.228 452.377 191.175 452.843C191.124 453.288 190.958 453.712 190.694 454.073L190.069 455.058C189.887 455.336 189.673 455.592 189.432 455.822L188.782 456.495L187.365 457.635C185.985 458.628 184.518 459.495 182.983 460.226C177.649 462.434 172.154 464.235 166.546 465.614C165.324 465.95 164.115 466.313 162.918 466.702C162.294 466.87 161.618 467.077 160.981 467.207C160.307 467.334 159.624 467.403 158.939 467.414C157.14 467.46 155.363 467.012 153.803 466.119C152.258 465.227 150.997 463.921 150.162 462.35C149.902 461.871 149.954 461.547 150.162 461.456C150.537 461.41 150.918 461.478 151.254 461.65C152.478 462.176 153.645 462.823 154.739 463.58C155.85 464.355 157.156 464.804 158.51 464.875C158.848 464.875 159.199 464.875 159.537 464.875L160.591 464.759C161.306 464.59 161.956 464.448 162.801 464.189C166.013 463.256 169.212 462.466 172.398 461.599C176.256 460.584 179.986 459.138 183.516 457.286C184.455 456.789 185.355 456.222 186.207 455.589C186.619 455.288 187.006 454.954 187.365 454.592C187.703 454.282 188.008 453.94 188.275 453.568L188.587 453.115C188.645 453.017 188.672 452.904 188.665 452.791C188.665 452.545 188.431 452.403 188.223 452.338C187.799 452.215 187.363 452.141 186.923 452.118C186.403 452.118 185.869 452.053 185.323 452.053C182.616 452.136 179.918 452.405 177.248 452.856C173.152 453.504 169.056 454.307 165.038 455.278C163.49 455.654 161.956 456.081 160.435 456.573C160.128 456.627 159.84 456.761 159.602 456.962L158.601 457.609L156.612 458.905L154.856 460.044C152.633 461.417 151.839 461.702 151.02 461.443C150.832 461.396 150.649 461.331 150.474 461.249C150.006 460.951 150.708 460.057 152.268 458.943C153.426 458.127 154.622 457.311 155.831 456.508L157.665 455.304L158.601 454.708L159.017 454.449L159.511 454.307L160.045 454.164C162.918 453.361 165.857 452.649 168.822 452.001C173.254 451.009 177.738 450.27 182.254 449.786H182.358Z" fill="white"/>
<path d="M16.9545 318.764C16.8051 319.704 16.3146 320.557 15.5761 321.161C13.4695 322.611 11.48 324.334 9.47748 326.005C7.76103 327.442 5.99256 328.841 4.41914 330.421L4.09406 330.758C4.05218 330.8 4.01708 330.848 3.99003 330.9C3.91201 330.965 3.886 331.185 3.99003 331.095C4.09676 331.052 4.19732 330.995 4.2891 330.926L5.17334 330.318L6.34365 329.463C7.25389 328.776 8.19014 328.103 9.08738 327.365C9.98461 326.626 10.7648 325.94 11.6881 325.214C11.8149 325.066 11.9694 324.942 12.1432 324.852C12.2721 324.827 12.4051 324.833 12.5316 324.868C12.658 324.903 12.7744 324.968 12.8716 325.056C12.9688 325.144 13.044 325.253 13.0914 325.375C13.1388 325.497 13.1569 325.628 13.1445 325.758C13.1445 325.901 13.1445 326.095 13.1445 326.16C12.4813 326.704 12.4813 327.805 11.7401 328.336C10.4397 329.346 9.13939 330.564 7.83905 331.652C7.30487 332.092 6.73997 332.495 6.14859 332.856L5.36839 333.322L4.31511 333.905C3.72473 334.219 3.10106 334.467 2.45562 334.644C1.93397 334.827 1.36485 334.827 0.843197 334.644C0.622607 334.579 0.430282 334.442 0.297045 334.255C0.14913 334.058 0.0550494 333.826 0.023974 333.581C-0.00799134 333.332 -0.00799134 333.08 0.023974 332.83C0.0973189 332.53 0.192942 332.236 0.310051 331.949L0.401075 331.729L0.583123 331.444L0.97323 330.887L1.35033 330.318L1.83145 329.787L2.78071 328.75L3.46989 328.064C4.40614 327.144 5.4074 326.225 6.43467 325.357C8.2709 323.75 10.1986 322.249 12.2082 320.863C13.1615 320.152 14.1907 319.548 15.277 319.062C15.5023 318.99 15.7327 318.933 15.9662 318.894L16.9545 318.764Z" fill="white"/>
<path d="M12.78 325.81C12.5748 326.631 12.1527 327.383 11.5576 327.986C9.776 329.744 8.12864 331.631 6.62934 333.633C5.97917 334.488 5.329 335.343 4.73084 336.224C4.44477 336.664 4.14568 337.117 3.92462 337.519C3.75833 337.806 3.63564 338.116 3.56053 338.438C3.39928 338.46 3.24178 338.504 3.09241 338.568C3.01824 338.592 2.94812 338.627 2.88436 338.672L2.80633 338.749C2.80434 338.495 2.72747 338.248 2.58527 338.037C2.58527 337.933 2.78032 337.894 2.85834 337.7C3.10332 337.326 3.37723 336.97 3.67757 336.638C4.28873 335.926 4.9779 335.188 5.58906 334.475C6.20023 333.763 6.88941 333.05 7.68262 332.39C8.47583 331.729 9.21703 331.095 9.97123 330.512C10.7254 329.929 11.8177 329.217 12.767 328.491C13.6684 327.81 14.6155 327.192 15.6017 326.639C15.7721 326.528 15.9616 326.449 16.1609 326.406C16.2936 326.408 16.4238 326.442 16.5407 326.505C16.6576 326.567 16.7578 326.657 16.8329 326.766C16.9079 326.875 16.9558 327 16.9723 327.131C16.9889 327.263 16.9737 327.396 16.9281 327.52C16.9281 327.662 16.9281 327.857 16.824 327.896C16.0828 328.284 15.9788 329.398 15.2376 329.799C13.8964 330.658 12.6344 331.633 11.4666 332.714C10.9725 333.128 10.4524 333.517 9.97123 333.866C9.3169 334.32 8.68749 334.809 8.08573 335.33C7.65662 335.693 6.59033 336.807 5.13395 338.413C4.65682 338.845 4.15305 339.247 3.62555 339.617C3.49534 339.702 3.35571 339.771 3.20944 339.824C2.91205 339.937 2.58359 339.937 2.2862 339.824C2.123 339.735 1.98108 339.611 1.87008 339.462C1.87008 339.358 1.75305 339.254 1.70104 339.151C1.65382 339.012 1.61901 338.869 1.59701 338.723C1.56532 338.47 1.56532 338.213 1.59701 337.959C1.64225 337.761 1.70312 337.566 1.77905 337.376C2.34941 336.142 3.06063 334.977 3.89862 333.905C5.29291 331.96 6.8596 330.144 8.57986 328.478C9.39171 327.658 10.2948 326.932 11.2716 326.315C11.7512 326.085 12.2579 325.915 12.78 325.81Z" fill="white"/>
<path d="M4.99097 336.612C5.32061 336.904 5.72629 337.097 6.16128 337.169C6.42135 337.169 6.47337 337.001 6.6034 337.027C7.47329 336.834 8.31009 336.516 9.08705 336.081C9.98429 335.615 10.8815 335.084 11.7918 334.553C13.3392 333.62 14.9516 332.753 16.525 331.781C17.5783 331.134 18.6446 330.486 19.7369 329.825L21.4273 328.893L22.3506 328.465L22.8577 328.271C23.1149 328.171 23.3803 328.093 23.6509 328.038C24.2319 327.873 24.8526 327.914 25.4064 328.155C25.6687 328.283 25.9013 328.465 26.0894 328.688C26.2774 328.911 26.4168 329.17 26.4987 329.45C26.6194 329.87 26.6548 330.311 26.6027 330.745C26.5971 330.964 26.5665 331.181 26.5117 331.393C26.5117 331.6 26.4467 331.703 26.4076 331.846C26.2478 332.361 26.0478 332.864 25.8095 333.348C25.3886 334.254 24.8882 335.121 24.3141 335.939C24.2395 336.086 24.1329 336.214 24.002 336.314C23.6119 336.534 23.0658 336.185 22.8707 335.654C22.8707 335.537 22.7277 335.369 22.7667 335.304C23.1828 334.747 22.7667 333.815 23.1308 333.271C23.451 332.754 23.688 332.19 23.833 331.6L23.911 331.185C23.911 331.043 23.911 330.913 23.911 330.939C23.8816 330.928 23.8493 330.928 23.82 330.939L23.4689 331.017C23.2081 331.088 22.9519 331.174 22.7017 331.276C21.6361 331.753 20.6023 332.299 19.6068 332.908L14.4055 336.029C12.6957 337.078 10.899 337.98 9.03504 338.723C8.31298 339.032 7.53157 339.178 6.74643 339.151C6.43649 339.123 6.13333 339.044 5.8492 338.918C5.61514 338.775 5.4721 338.659 5.43309 338.633C5.30901 338.521 5.20921 338.385 5.13988 338.234C5.07055 338.082 5.03314 337.918 5.02998 337.752C4.94965 337.377 4.93644 336.991 4.99097 336.612Z" fill="white"/>
<path d="M117.549 216.107C115.656 216.943 113.538 217.125 111.529 216.625C110.833 216.495 110.15 216.304 109.487 216.055C107.321 215.047 105.36 213.651 103.701 211.937C102.973 211.198 102.244 210.46 101.555 209.709C100.596 208.775 99.8473 207.65 99.3576 206.406C99.2275 205.992 99.8127 205.772 100.515 205.772C100.861 205.742 101.209 205.794 101.532 205.922C101.855 206.05 102.143 206.251 102.374 206.51C103.765 208.473 105.35 210.291 107.108 211.937C108.244 212.904 109.574 213.619 111.009 214.035C112.466 214.586 114.056 214.69 115.573 214.333C116.463 214.127 117.267 213.652 117.874 212.973C118.672 211.738 118.978 210.25 118.733 208.802C118.572 207.574 118.346 206.355 118.057 205.15C118.057 204.865 117.94 204.593 117.9 204.295C117.796 203.22 118.005 202.819 118.655 202.637C118.811 202.637 118.954 202.547 119.11 202.521C119.617 202.521 119.994 202.883 120.15 203.557C120.823 205.84 121.156 208.21 121.138 210.59C121.095 211.714 120.793 212.813 120.254 213.802C119.641 214.827 118.736 215.648 117.653 216.159L117.549 216.107Z" fill="white"/>
<path d="M118.759 224.604C118.921 225.212 118.884 225.856 118.655 226.443C118.558 226.73 118.403 226.995 118.199 227.22C118.033 227.437 117.846 227.636 117.64 227.816C117.371 228.072 117.064 228.286 116.73 228.451C116.08 228.713 115.359 228.745 114.689 228.541C114.071 228.342 113.528 227.963 113.128 227.453C112.802 227.021 112.555 226.534 112.4 226.016C112.259 225.687 112.215 225.324 112.273 224.971C112.33 224.618 112.487 224.289 112.725 224.021C112.881 223.866 113.401 224.241 113.895 224.617C114.389 224.992 114.91 225.29 114.923 225.342C114.884 225.652 114.933 225.966 115.066 226.249C115.235 226.508 115.521 226.391 115.794 226.249C116.067 226.106 116.405 225.86 116.47 225.549C116.489 225.335 116.424 225.121 116.288 224.954C116.067 224.63 115.521 224.384 115.365 224.474L115.534 224.798L115.638 224.979C115.768 225.264 115.638 225.381 115.027 225.666L114.624 225.86C114.446 225.972 114.234 226.018 114.026 225.992C113.817 225.966 113.624 225.869 113.479 225.718C113.401 225.588 113.31 225.472 113.245 225.342C113.179 225.177 113.123 225.008 113.076 224.837C112.966 224.412 112.966 223.966 113.076 223.542C113.21 223.24 113.39 222.96 113.609 222.713C113.934 222.409 114.332 222.193 114.765 222.087C115.197 221.98 115.65 221.986 116.08 222.104C116.664 222.246 117.201 222.536 117.64 222.946C118.122 223.368 118.485 223.908 118.694 224.513L118.759 224.604Z" fill="white"/>
<path d="M121.71 242.672C121.571 242.991 121.392 243.291 121.177 243.565C120.959 243.853 120.69 244.098 120.384 244.291C119.821 244.652 119.168 244.849 118.499 244.861C118.064 244.895 117.626 244.869 117.198 244.783C116.401 244.573 115.707 244.08 115.248 243.397C114.858 242.764 114.668 242.028 114.702 241.286C114.716 240.706 114.79 240.128 114.923 239.563C114.971 239.177 115.105 238.806 115.317 238.479C115.529 238.151 115.812 237.876 116.145 237.672C116.392 237.556 116.73 238.1 117.029 238.644C117.328 239.188 117.692 239.68 117.614 239.822C117.28 240.458 117.076 241.154 117.016 241.869C117.016 242.257 117.38 242.426 117.887 242.49C118.112 242.55 118.348 242.554 118.575 242.502C118.801 242.45 119.012 242.344 119.188 242.193C119.393 241.909 119.507 241.57 119.513 241.221C119.513 240.612 119.396 240.068 118.98 239.926C118.564 239.783 118.317 240.055 118.187 240.315C118.162 240.377 118.131 240.438 118.096 240.496C117.874 240.82 117.666 240.781 117.094 240.496L116.704 240.276C116.602 240.231 116.511 240.166 116.434 240.086C116.358 240.005 116.299 239.91 116.26 239.806C116.221 239.702 116.204 239.592 116.208 239.481C116.213 239.37 116.24 239.262 116.288 239.162C116.352 238.993 116.435 238.833 116.535 238.683L117.055 238.203C117.42 237.867 117.869 237.634 118.356 237.53C118.894 237.466 119.441 237.554 119.932 237.782C120.424 238.011 120.842 238.372 121.138 238.825C121.514 239.392 121.754 240.037 121.84 240.71C121.926 241.384 121.855 242.069 121.632 242.711L121.71 242.672Z" fill="white"/>
<path d="M196.766 461.145L196.571 461.728C196.566 461.784 196.566 461.841 196.571 461.897V462.246L196.467 462.959L196.363 463.671C196.362 463.786 196.34 463.9 196.298 464.008L195.934 464.111L194.491 464.526C193.919 464.681 193.75 464.707 193.463 464.772L192.644 464.94L191.032 465.277C190.252 465.445 189.497 465.678 188.73 465.834C186.027 466.31 183.362 466.985 180.759 467.854C179.657 468.244 178.618 468.794 177.677 469.486C177.131 469.892 176.649 470.376 176.247 470.924C175.903 471.39 175.631 471.906 175.441 472.452C175.324 472.776 174.596 472.867 173.932 472.349C173.54 472.021 173.285 471.559 173.217 471.054C173.123 470.455 173.263 469.843 173.607 469.344C174.778 467.795 176.352 466.595 178.158 465.873C179.739 465.202 181.386 464.703 183.074 464.383C185.037 464.008 186.975 463.373 188.951 462.946L192.163 462.272L192.943 462.091L193.307 462.013H193.477L193.841 461.935L193.906 461.547C193.906 461.443 193.906 461.443 193.971 461.249L194.14 460.705C194.242 460.332 194.386 459.971 194.569 459.63C194.89 458.948 195.301 458.312 195.791 457.739C197.293 456.161 199.052 454.848 200.993 453.853C202.371 453.037 203.671 452.17 204.894 451.263L205.687 450.693C206.688 450.007 207.052 449.916 207.728 450.343C207.884 450.447 208.053 450.525 208.196 450.628C208.652 450.991 208.521 451.703 207.78 452.429C205.557 454.501 202.826 455.718 200.589 457.221C199.002 458.102 197.736 459.463 196.974 461.106L196.766 461.145Z" fill="white"/>
<path d="M459.799 178.611C459.226 179.718 458.597 180.794 457.914 181.836C457.199 182.834 456.51 183.857 455.729 184.802C454.216 186.708 452.592 188.525 450.866 190.242C447.446 193.675 443.766 196.718 440.164 199.84C436.528 202.83 433.056 206.012 429.761 209.372C426.559 212.801 423.555 216.407 420.763 220.174C419.346 222.165 417.809 224.068 416.16 225.873C414.336 227.731 412.113 229.153 409.658 230.031C407.345 230.86 404.971 231.514 402.558 231.986C400.179 232.466 397.851 232.919 395.38 233.217C390.549 233.626 385.69 233.574 380.869 233.061C376.203 232.582 371.506 232.482 366.825 232.764C360.141 233.32 353.626 235.807 346.8 237.478C343.339 238.398 339.782 238.915 336.202 239.019C332.642 238.947 329.094 238.592 325.591 237.957C319.454 236.792 313.504 234.801 307.906 232.038C302.349 229.272 297.09 225.948 292.211 222.117C287.362 218.317 282.762 214.212 278.44 209.826C274.11 205.461 269.949 200.966 265.983 196.265C257.977 186.92 251.083 176.685 245.438 165.763C242.666 160.25 240.453 154.475 238.832 148.524C238.377 147.047 238.104 145.519 237.792 144.004C237.662 143.24 237.467 142.488 237.363 141.724L237.089 139.419C236.998 138.642 236.881 137.877 236.829 137.113L236.738 134.782L236.673 132.451V130.158C236.816 124.718 237.232 119.317 237.415 113.929C237.506 111.235 237.532 108.541 237.415 105.86C237.296 103.065 237.59 100.268 238.286 97.5581C239.703 92.1182 242.629 87.3778 245.1 82.6504C246.369 80.324 247.456 77.9035 248.35 75.4102C249.181 72.9238 249.727 70.3515 249.976 67.7427C250.353 64.3752 250.795 60.6191 252.759 57.3811C253.243 56.6047 253.777 55.8606 254.358 55.1534C254.917 54.4669 255.489 53.8582 256.074 53.1588C257.258 51.8636 258.467 50.5684 259.689 49.3638C262.138 46.9919 264.411 44.4467 266.49 41.7481C266.997 41.0746 267.452 40.3752 267.921 39.6628L269.429 37.4869C270.482 36.0751 271.549 34.6763 272.719 33.3552C275.014 30.7062 277.482 28.2097 280.105 25.882C282.703 23.5376 285.438 21.3492 288.297 19.3283C291.144 17.2869 294.114 15.4226 297.191 13.746C300.289 12.0814 303.521 10.6777 306.853 9.54954L309.597 8.78538C310.377 8.617 311.027 8.53929 311.534 8.47453C312.535 8.34501 312.991 8.37092 312.952 8.47453C312.913 8.57815 312.379 8.87605 311.43 9.2387C310.962 9.43298 310.377 9.5884 309.714 9.87334L307.464 10.8059C302.915 12.8262 298.563 15.2584 294.461 18.0719C288.63 22.0631 283.188 26.5902 278.206 31.5938C275.796 34.0194 273.567 36.6167 271.536 39.3649L270.079 41.4761C269.572 42.2532 269.039 43.0044 268.48 43.7427C267.375 45.1935 266.194 46.5856 264.943 47.9132C262.472 50.5036 259.924 52.9386 257.648 55.516C256.531 56.6863 255.565 57.9917 254.774 59.4016C254.048 60.8149 253.544 62.3306 253.279 63.8959C252.668 67.108 252.577 70.8511 251.458 74.4518C250.371 77.9373 248.916 81.2978 247.115 84.4766C245.438 87.6239 243.682 90.6288 242.369 93.7502C240.993 96.7788 240.208 100.04 240.054 103.361C240.054 104.928 240.054 106.819 240.054 108.541C240.054 110.264 240.054 112.116 239.95 113.89C239.82 117.452 239.599 120.975 239.417 124.485C239.326 126.247 239.248 127.995 239.196 129.744L239.131 132.334L239.222 134.924C239.222 135.779 239.222 136.647 239.352 137.515L239.664 140.105C239.873 141.812 240.172 143.507 240.561 145.182C242.129 151.968 244.527 158.536 247.7 164.74C250.87 171.008 254.508 177.03 258.584 182.756C263.512 189.704 268.917 196.303 274.76 202.508C280.579 208.884 286.916 214.771 293.706 220.109C297.124 222.743 300.712 225.148 304.447 227.311C308.197 229.416 312.111 231.218 316.15 232.699C317.165 233.048 318.192 233.346 319.219 233.67L320.767 234.149L322.327 234.512C323.38 234.745 324.421 235.017 325.474 235.224L328.647 235.717C329.705 235.898 330.773 236.015 331.846 236.066C332.912 236.144 333.991 236.273 335.044 236.299C337.149 236.346 339.252 236.185 341.325 235.82C345.989 234.921 350.599 233.767 355.135 232.362C357.462 231.727 359.816 231.067 362.222 230.678C364.64 230.22 367.094 229.973 369.556 229.94C374.445 229.81 379.269 230.303 384.015 230.626C388.705 231.056 393.43 230.873 398.072 230.082C400.413 229.668 402.753 229.228 405.016 228.632C407.348 228.192 409.598 227.397 411.687 226.275C413.588 225.034 415.238 223.448 416.55 221.599L420.893 215.887C423.851 212.065 427.061 208.443 430.503 205.046C433.988 201.692 437.694 198.57 441.309 195.514C445.833 191.825 449.987 187.709 453.714 183.222C457.42 178.78 459.578 173.379 461.516 167.848C463.453 162.318 464.884 156.632 466.717 151.011C467.198 149.612 467.693 148.213 468.252 146.827C468.797 145.499 469.266 144.141 469.656 142.76C470.389 139.959 470.906 137.105 471.203 134.225C471.815 116.688 476.002 98.3481 469.695 81.6013C466.644 73.3206 462.251 65.5938 456.692 58.7281C451.275 51.7403 445.471 45.0596 439.306 38.7173C434.521 33.8428 429.327 29.3841 423.78 25.3898C418.331 21.4253 412.352 18.2386 406.017 15.9219C399.711 13.733 392.923 13.4481 386.135 12.7875C382.689 12.4984 379.272 11.9397 375.914 11.1167C374.231 10.6587 372.573 10.114 370.947 9.48479L366.175 7.5938C360.622 5.40492 355.161 3.38441 349.27 2.77567C344.705 2.30487 340.092 2.63807 335.643 3.76002C332.597 4.51971 329.625 5.54694 326.761 6.82964C323.598 8.28208 320.516 9.90343 317.529 11.6866C316.579 12.2306 315.383 13.0466 314.798 13.3704C314.213 13.6942 314.343 13.3704 314.876 12.7875C315.84 11.6912 316.906 10.6893 318.062 9.79563C323.075 5.84197 328.865 2.97852 335.057 1.38981C338.11 0.592788 341.241 0.132385 344.394 0.0169056C347.582 -0.076152 350.769 0.215227 353.886 0.884689C360.141 2.17988 365.928 4.77028 371.688 6.97211C377.449 9.17394 383.391 9.95105 389.633 10.4691C395.875 10.9872 402.48 11.6219 408.644 14.1345C414.69 16.5742 420.408 19.7547 425.665 23.6024C430.895 27.4464 435.813 31.6949 440.372 36.3083C444.949 40.8933 449.254 45.7373 453.376 50.7109C457.642 55.6452 461.552 60.8736 465.079 66.3568C470.391 74.6613 473.825 84.0174 475.143 93.7761C475.745 98.6397 475.867 103.55 475.508 108.438L475.209 112.064C475.091 113.217 475.013 114.396 474.935 115.574L474.571 122.724C474.337 127.503 474.09 132.334 473.375 137.191C473.043 139.649 472.522 142.079 471.815 144.457C471.646 145.066 471.412 145.662 471.19 146.257C470.969 146.853 470.748 147.436 470.54 147.967C470.098 149.042 469.721 150.156 469.331 151.257C467.81 155.725 466.522 160.323 465.092 164.934C463.75 169.627 462.01 174.199 459.89 178.598L459.799 178.611Z" fill="white"/>
<path d="M378.789 87.2224C380.252 87.6771 381.685 88.2221 383.08 88.8544C383.635 89.1593 384.17 89.5012 384.679 89.8776C385.046 90.1766 385.374 90.5203 385.654 90.9008C385.889 91.223 386.077 91.5761 386.214 91.9499C386.3 92.2076 386.365 92.4718 386.409 92.7399C386.42 92.8779 386.42 93.0165 386.409 93.1544C386.409 93.3746 386.409 93.6725 386.305 94.0222C386.213 94.3671 386.095 94.7048 385.954 95.0324C385.797 95.3692 385.589 95.68 385.407 96.0038C384.588 97.1954 383.639 98.1927 383.483 98.4518C382.781 99.2156 382.039 99.942 381.259 100.628C381.155 100.744 380.206 99.8635 380.271 99.7599C380.546 99.2997 380.864 98.8661 381.22 98.4647C382.016 97.6025 382.726 96.6656 383.34 95.6671C383.549 95.2235 383.722 94.7645 383.86 94.2942C383.86 94.0999 383.86 93.9186 383.951 93.7243C383.97 93.5356 383.948 93.3449 383.885 93.1659C383.822 92.9868 383.72 92.8238 383.587 92.6881C383.187 92.3907 382.75 92.1468 382.287 91.9628C381.493 91.5701 380.676 91.2241 379.842 90.9267C379.335 90.7453 378.802 90.6288 378.307 90.4345C377.813 90.2402 377.735 90.0977 377.449 89.9553C377.163 89.8128 377.28 89.2818 377.449 88.6601C377.549 88.3354 377.722 88.0375 377.954 87.7885C378.186 87.5396 378.471 87.346 378.789 87.2224Z" fill="white"/>
<path d="M267.349 94.2035C267.843 93.1933 268.35 92.1701 268.922 91.1469C269.13 90.7842 269.273 90.3697 269.52 90.02C270.372 88.727 271.421 87.5735 272.628 86.6007C273.161 86.1863 273.681 85.7329 274.215 85.3055C274.748 84.8781 274.904 84.7486 275.281 84.5284C275.656 84.3079 276.072 84.1627 276.503 84.101C277.036 84.0362 277.426 86.6914 276.763 87.0022C275.525 87.7138 274.335 88.5055 273.2 89.3724C272.521 90.0048 271.969 90.761 271.575 91.6002C271.055 92.5068 270.535 93.4523 270.08 94.4496C269.78 95.0583 269.507 95.7448 269.234 96.3147C268.831 97.2602 268.376 98.2186 268.012 99.19C267.726 99.9542 267.544 100.757 267.297 101.534C267.256 101.712 267.2 101.885 267.128 102.052C266.855 102.674 266.595 102.791 265.918 102.57C265.762 102.57 265.606 102.48 265.45 102.415C265.222 102.332 265.03 102.173 264.904 101.966C264.779 101.759 264.728 101.515 264.761 101.275C265.045 99.8765 265.481 98.5128 266.061 97.2084C266.491 96.1981 266.92 95.1749 267.362 94.1517L267.349 94.2035Z" fill="white"/>
<path d="M278.285 59.4923C278.285 59.3239 278.363 59.039 278.415 58.6763C278.467 58.3136 278.649 57.8474 278.857 57.3811C279.337 56.2884 280.031 55.302 280.899 54.4799C282.12 53.3704 283.495 52.4413 284.982 51.7211C285.515 51.4232 287.843 50.4259 288.064 50.3352C288.064 50.3352 289.026 49.9596 289.936 49.5193C290.671 49.1719 291.375 48.7647 292.043 48.3018C293.488 47.3429 294.85 46.264 296.113 45.0767C298.037 43.2635 300.144 41.3466 300.586 40.9321C301.387 40.2167 302.258 39.5832 303.187 39.0411C304.124 38.4742 305.097 37.968 306.099 37.5258C306.386 37.3833 306.919 38.5878 306.711 38.7173C305.826 39.2613 304.968 39.8183 304.11 40.4011C302.968 41.1682 301.898 42.0351 300.911 42.9915C299.754 44.1183 298.765 45.1804 298.674 45.271C297.959 46.1259 297.205 46.9807 296.438 47.8614C296.061 48.25 295.684 48.6385 295.294 49.0012C294.187 50.0616 292.976 51.0076 291.679 51.8247C290.49 52.5681 289.261 53.2469 287.999 53.8582C286.307 54.5846 284.723 55.539 283.291 56.6947C282.64 57.2924 282.129 58.0267 281.796 58.8447C281.796 59.0778 281.614 59.298 281.536 59.5441C281.458 59.7902 281.406 60.0363 281.367 60.2953C281.328 60.5543 280.795 60.9299 280.067 61.2019C279.828 61.2697 279.574 61.2612 279.341 61.1775C279.108 61.0939 278.907 60.9393 278.766 60.7357C278.607 60.571 278.482 60.3762 278.399 60.1626C278.316 59.949 278.278 59.721 278.285 59.4923Z" fill="white"/>
<path d="M307.4 143.149C307.127 143.384 306.883 143.649 306.671 143.939C306.48 144.182 306.319 144.448 306.19 144.729C306.125 144.82 305.878 145.195 305.904 145.247C305.93 145.299 305.592 145.856 305.644 145.985C305.603 146.325 305.634 146.669 305.735 146.996C305.874 147.451 306.124 147.865 306.463 148.2C306.606 148.317 307.361 149.262 307.582 149.392C307.446 149.779 307.234 150.136 306.958 150.441C306.647 150.347 306.356 150.198 306.099 150.001C305.917 149.832 305.475 149.508 305.098 149.159C304.852 148.925 304.617 148.678 304.396 148.42C304.116 148.164 303.872 147.872 303.668 147.553C303.561 147.4 303.473 147.235 303.408 147.06C303.189 146.555 303.062 146.016 303.03 145.467C302.989 144.954 303.033 144.438 303.161 143.939C303.372 143.276 303.688 142.651 304.097 142.087C304.287 141.766 304.504 141.463 304.747 141.18C304.909 141.041 305.083 140.915 305.267 140.805C305.384 140.701 305.839 141.051 306.372 141.53C306.842 141.979 307.194 142.534 307.4 143.149Z" fill="white"/>
<path d="M304.239 195.047C304.423 195.351 304.651 195.626 304.916 195.863C305.164 196.09 305.429 196.298 305.709 196.485C305.813 196.485 306.268 196.925 306.333 196.938C306.64 197.191 306.966 197.421 307.308 197.625C307.729 197.877 308.163 198.106 308.609 198.311C309.108 198.563 309.637 198.754 310.182 198.881C310.416 198.881 311.625 199.386 311.898 199.425C311.944 199.771 311.904 200.122 311.781 200.448C311.467 200.494 311.147 200.494 310.832 200.448C310.351 200.448 308.713 200.125 308.635 200.099L307.607 200.021L307.139 199.93C306.7 199.831 306.266 199.71 305.839 199.568C305.39 199.457 304.955 199.301 304.538 199.101C303.949 198.748 303.415 198.312 302.952 197.806C302.669 197.536 302.417 197.236 302.198 196.912C302.083 196.712 301.991 196.499 301.925 196.278C301.86 196.122 302.211 195.799 302.705 195.475C303.17 195.202 303.699 195.055 304.239 195.047Z" fill="white"/>
<path d="M441.985 71.978C441.898 71.6304 441.767 71.2953 441.595 70.9807C441.43 70.6845 441.234 70.4066 441.01 70.1517C440.871 69.9357 440.719 69.7281 440.555 69.53C440.338 69.196 440.094 68.8799 439.826 68.5846C439.512 68.2254 439.178 67.8838 438.825 67.5614C438.426 67.179 437.991 66.8363 437.525 66.5382C437.304 66.4604 436.29 65.6315 436.042 65.5149C436.109 65.1705 436.256 64.8466 436.472 64.5695C436.784 64.6216 437.087 64.7221 437.369 64.8673C437.798 65.0616 439.293 65.7999 439.358 65.8517C439.67 65.9683 439.996 66.0978 440.308 66.2403L440.737 66.4604C441.14 66.6849 441.531 66.9314 441.907 67.1987C442.286 67.4441 442.642 67.7214 442.973 68.0276C443.421 68.5357 443.797 69.1022 444.092 69.7114C444.285 70.057 444.442 70.4216 444.56 70.7993C444.594 71.0268 444.616 71.2559 444.625 71.4858C444.625 71.6542 444.196 71.8485 443.636 72.0168C443.092 72.1493 442.522 72.1359 441.985 71.978Z" fill="white"/>
<path d="M357.67 185.359C358.04 186.041 358.539 186.643 359.14 187.134C359.335 187.276 359.517 187.432 359.686 187.574L360.245 187.833C360.45 187.954 360.674 188.037 360.908 188.079C361.401 188.248 361.911 188.356 362.43 188.403L363.522 188.481C363.996 188.481 364.47 188.446 364.939 188.377C365.971 188.255 366.996 188.078 368.008 187.846C369.543 187.509 371.168 187.056 371.493 186.927C372.735 186.607 374 186.382 375.277 186.253C375.459 186.253 375.654 187.315 375.511 187.367C374.933 187.601 374.343 187.804 373.743 187.976C372.819 188.222 369.66 189.387 369.504 189.439C368.892 189.724 368.203 189.996 367.618 190.255L366.695 190.579C365.806 190.867 364.898 191.092 363.977 191.253C363.057 191.433 362.115 191.477 361.181 191.382C359.726 191.188 358.353 190.596 357.215 189.672C356.566 189.186 355.981 188.62 355.473 187.989C355.2 187.613 355.057 187.173 354.823 186.784C354.589 186.396 355.044 186.046 355.59 185.605C355.898 185.416 356.243 185.296 356.603 185.253C356.962 185.211 357.327 185.247 357.67 185.359Z" fill="white"/>
<path d="M425.146 146.737C426.367 146.211 427.495 145.494 428.488 144.613C428.714 144.356 428.874 144.05 428.956 143.719C429.107 143.017 429.01 142.286 428.683 141.647C428.487 141.13 428.339 140.597 428.241 140.053C428.132 139.405 428.195 138.74 428.423 138.124C428.506 137.859 428.624 137.606 428.774 137.372C428.907 137.104 429.083 136.859 429.294 136.647C429.664 136.277 430.079 135.955 430.529 135.689C431.472 135.044 432.54 134.603 433.663 134.393C433.975 134.393 434.248 134.976 434.222 135.689C434.246 136.031 434.178 136.373 434.025 136.681C433.872 136.988 433.639 137.249 433.351 137.437C432.58 137.718 431.846 138.092 431.167 138.551C430.957 138.758 430.812 139.021 430.747 139.308C430.683 139.594 430.702 139.894 430.802 140.17C430.894 140.753 431.219 141.465 431.44 142.268C431.691 143.203 431.613 144.195 431.219 145.079C430.791 145.914 430.172 146.637 429.411 147.19C428.76 147.679 428.068 148.112 427.344 148.485C426.498 148.951 425.653 149.353 424.873 149.78C423.723 150.446 422.712 151.326 421.895 152.371C421.266 153.208 420.729 154.112 420.296 155.065C420.192 155.272 420.127 155.492 420.01 155.686C419.607 156.438 419.333 156.58 418.631 156.412C418.469 156.382 418.308 156.343 418.15 156.295C418.02 156.243 417.902 156.165 417.804 156.066C417.705 155.967 417.628 155.849 417.577 155.72C417.526 155.59 417.502 155.451 417.506 155.312C417.511 155.172 417.544 155.035 417.604 154.909C418.298 152.867 419.46 151.013 420.998 149.495C421.297 149.197 421.596 148.913 421.921 148.628C422.27 148.33 422.639 148.057 423.026 147.812C423.768 147.345 424.457 146.983 425.12 146.62L425.146 146.737Z" fill="white"/>
<path d="M383.535 28.9386C381.308 28.1792 379.218 27.0685 377.345 25.6488C376.695 25.2214 376.045 24.8587 375.382 24.4961C374.319 23.8224 373.143 23.3443 371.91 23.0843C370.625 22.8304 369.307 22.791 368.009 22.9678C366.843 23.1417 365.709 23.482 364.641 23.978C363.276 24.5997 362.04 25.4675 360.74 26.128C360.311 26.3223 359.934 25.7654 359.882 24.9883C359.854 24.538 359.946 24.0885 360.146 23.6841C360.347 23.2797 360.65 22.9346 361.026 22.6828C364.114 20.7726 367.78 20.0111 371.377 20.5328C373.541 20.8448 375.62 21.5893 377.488 22.7217C379.23 23.9535 381.064 25.049 382.976 25.9985C384.196 26.438 385.448 26.7844 386.721 27.0347C388.772 27.4378 390.789 27.9964 392.754 28.7055C394.314 29.2873 395.781 30.0899 397.111 31.0886C397.406 31.2955 397.688 31.5205 397.956 31.7621C398.957 32.6817 399.061 33.148 398.736 33.8085C398.669 33.9635 398.587 34.1111 398.489 34.2489C398.164 34.6893 397.475 34.5986 396.772 34.0546C395.736 33.2657 394.65 32.5432 393.522 31.8917C392.389 31.275 391.183 30.8008 389.933 30.4799C387.982 29.9489 385.798 29.5474 383.6 29.0034L383.535 28.9386Z" fill="white"/>
<path d="M323.783 239.745C312.392 236.463 301.633 231.306 291.951 224.487C288.408 222.073 284.993 219.479 281.717 216.716C270.366 206.734 260.621 195.075 252.823 182.147C249.349 176.444 246.243 170.526 243.526 164.429C241.783 160.526 240.28 156.521 239.027 152.435C237.726 148.316 236.979 144.044 236.803 139.73C236.803 137.01 237.492 137.45 238.221 139.613C238.949 141.776 240.119 145.597 241.406 150.182C243.764 158.349 246.999 166.239 251.055 173.716C253.058 177.498 255.255 181.163 257.557 184.802C259.858 188.442 262.316 191.952 264.969 195.371C271.382 203.73 278.807 211.269 287.075 217.817C296.14 225.11 306.327 230.901 317.243 234.965L319.765 235.885L322.366 236.675L324.967 237.452L327.567 238.1L330.168 238.721C331.027 238.9 331.895 239.034 332.769 239.123C334.501 239.247 336.241 239.225 337.97 239.058C343.373 238.436 348.724 237.419 353.977 236.014C356.643 235.38 359.309 234.719 362 234.175C364.705 233.594 367.454 233.243 370.219 233.126C378.749 232.906 387.019 233.463 395.185 232.375C396.069 232.232 396.967 232.116 397.786 231.96L400.387 231.416C401.999 230.989 403.351 230.678 404.431 230.277L405.926 229.797L407.122 229.344C408.131 228.948 409.183 228.669 410.256 228.515C410.617 228.454 410.983 228.428 411.348 228.438C411.778 228.438 411.452 228.969 410.438 229.733C409.802 230.261 409.109 230.717 408.371 231.093C407.365 231.662 406.312 232.143 405.224 232.53C397.942 235.263 389.945 235.639 382.156 235.639C378.255 235.639 374.354 235.509 370.453 235.639C369.49 235.639 368.567 235.755 367.618 235.807C366.669 235.859 365.758 236.014 364.822 236.196C362.937 236.494 361.038 236.934 359.127 237.361C353.47 238.657 347.749 240.25 341.78 241.182C338.744 241.689 335.661 241.863 332.587 241.7C331.788 241.641 330.994 241.537 330.207 241.39C329.414 241.26 328.725 241.053 327.983 240.897C326.54 240.522 325.071 240.237 323.627 239.809L323.783 239.745Z" fill="white"/>
<path d="M312.705 246.467C312.705 246.882 312.539 247.281 312.244 247.575C311.949 247.869 311.549 248.034 311.132 248.034C310.714 248.034 310.314 247.869 310.019 247.575C309.724 247.281 309.558 246.882 309.558 246.467C309.558 246.051 309.724 245.652 310.019 245.358C310.314 245.065 310.714 244.899 311.132 244.899C311.549 244.899 311.949 245.065 312.244 245.358C312.539 245.652 312.705 246.051 312.705 246.467Z" fill="white"/>
<path d="M235.178 247.127C235.348 248.215 234.879 249.251 233.202 248.552C233.004 248.457 232.827 248.323 232.682 248.159C232.537 247.994 232.427 247.802 232.359 247.593C232.291 247.385 232.266 247.165 232.286 246.947C232.306 246.729 232.369 246.517 232.474 246.324C233.683 244.317 234.957 245.754 235.178 247.127Z" fill="white"/>
<path d="M290.222 249.549C290.222 249.793 290.124 250.027 289.951 250.199C289.778 250.372 289.543 250.469 289.298 250.469C289.112 250.471 288.929 250.419 288.773 250.317C288.617 250.216 288.495 250.07 288.423 249.899C288.35 249.728 288.331 249.54 288.366 249.358C288.402 249.175 288.492 249.008 288.623 248.877C288.755 248.746 288.923 248.657 289.106 248.621C289.289 248.586 289.478 248.605 289.65 248.677C289.821 248.749 289.967 248.871 290.069 249.026C290.171 249.182 290.224 249.364 290.222 249.549Z" fill="white"/>
<path d="M256.01 284.688C256.088 285.659 254.111 286.074 254.111 284.688C254.125 284.496 254.197 284.313 254.318 284.163C254.438 284.012 254.602 283.903 254.787 283.848C254.973 283.793 255.17 283.795 255.354 283.855C255.537 283.915 255.698 284.029 255.815 284.183C255.92 284.333 255.987 284.506 256.01 284.688Z" fill="white"/>
<path d="M243.943 332.61C244.008 333.594 242.031 333.996 242.031 332.61C242.059 332.377 242.171 332.162 242.347 332.005C242.523 331.849 242.751 331.763 242.987 331.763C243.223 331.763 243.451 331.849 243.627 332.005C243.803 332.162 243.915 332.377 243.943 332.61Z" fill="white"/>
<path d="M233.033 323.777C233.033 324.554 231.524 324.878 231.524 323.777C231.54 323.633 231.597 323.498 231.689 323.386C231.781 323.275 231.904 323.193 232.042 323.15C232.18 323.107 232.328 323.106 232.467 323.146C232.606 323.186 232.731 323.266 232.825 323.375C232.93 323.487 233.002 323.626 233.033 323.777Z" fill="white"/>
<path d="M308.297 256.608C308.293 256.808 308.224 257.001 308.1 257.159C307.976 257.316 307.804 257.429 307.61 257.48C307.416 257.531 307.211 257.518 307.025 257.443C306.839 257.367 306.683 257.233 306.58 257.061C305.67 255.857 308.297 255.054 308.297 256.608Z" fill="white"/>
<path d="M236.309 241.467C236.309 241.588 236.285 241.708 236.239 241.819C236.193 241.931 236.125 242.032 236.039 242.117C235.953 242.203 235.851 242.271 235.739 242.317C235.627 242.363 235.507 242.387 235.386 242.387C235.265 242.387 235.145 242.363 235.033 242.317C234.921 242.271 234.819 242.203 234.733 242.117C234.648 242.032 234.58 241.931 234.533 241.819C234.487 241.708 234.463 241.588 234.463 241.467C234.463 241.223 234.56 240.989 234.733 240.817C234.906 240.645 235.141 240.548 235.386 240.548C235.631 240.548 235.866 240.645 236.039 240.817C236.212 240.989 236.309 241.223 236.309 241.467Z" fill="white"/>
<path d="M494.207 134.173C493.778 135.171 492.829 135.805 491.775 134.342C491.656 134.157 491.576 133.95 491.54 133.734C491.503 133.517 491.512 133.296 491.564 133.082C491.616 132.869 491.712 132.669 491.844 132.493C491.977 132.318 492.143 132.171 492.335 132.062C494.415 131 494.74 132.891 494.207 134.173Z" fill="white"/>
<path d="M478.941 164.235C478.486 165.115 476.6 164.416 477.315 163.237C477.428 163.081 477.587 162.962 477.769 162.898C477.952 162.833 478.149 162.826 478.336 162.877C478.523 162.927 478.69 163.034 478.814 163.182C478.938 163.329 479.014 163.512 479.032 163.704C479.061 163.886 479.029 164.072 478.941 164.235Z" fill="white"/>
<path d="M504.87 128.228C504.806 128.335 504.721 128.428 504.62 128.501C504.52 128.574 504.405 128.626 504.284 128.654C504.162 128.682 504.036 128.685 503.913 128.663C503.791 128.641 503.674 128.594 503.569 128.526C503.418 128.427 503.3 128.286 503.228 128.121C503.157 127.955 503.136 127.772 503.168 127.595C503.2 127.418 503.283 127.254 503.408 127.123C503.533 126.993 503.693 126.902 503.87 126.862C504.046 126.821 504.23 126.833 504.4 126.896C504.569 126.959 504.716 127.07 504.823 127.216C504.929 127.362 504.99 127.535 504.999 127.715C505.007 127.895 504.962 128.073 504.87 128.228Z" fill="white"/>
<path d="M265.645 24.5997C266.738 24.5091 267.739 25.066 266.946 26.672C266.835 26.8614 266.687 27.0264 266.51 27.157C266.334 27.2877 266.132 27.3813 265.918 27.4321C265.704 27.483 265.482 27.4901 265.265 27.4529C265.049 27.4158 264.842 27.3352 264.657 27.216C262.719 25.8561 264.254 24.7033 265.645 24.5997Z" fill="white"/>
<path d="M197.131 174.803C196.183 174.843 195.233 174.791 194.296 174.648C193.956 174.63 193.617 174.591 193.282 174.531C192.125 174.243 191.011 173.808 189.966 173.236C189.506 173.003 189.038 172.783 188.561 172.576C188.275 172.433 187.95 172.304 187.664 172.148C187.367 171.973 187.117 171.729 186.936 171.436C186.728 171.073 188.743 169.402 189.198 169.713C190.096 170.27 190.993 170.814 191.955 171.488C192.571 171.815 193.249 172.009 193.945 172.058C194.707 172.207 195.482 172.285 196.259 172.291C196.743 172.297 197.226 172.258 197.703 172.174C198.429 172.078 199.136 171.868 199.796 171.552C200.288 171.259 200.727 170.887 201.097 170.452C201.182 170.367 201.26 170.276 201.331 170.18C201.656 169.869 201.864 169.934 202.41 170.4L202.774 170.711C202.977 170.85 203.121 171.061 203.176 171.3C203.232 171.54 203.195 171.792 203.073 172.006C202.356 173.112 201.276 173.936 200.017 174.337C199.099 174.666 198.142 174.875 197.17 174.959L197.131 174.803Z" fill="white"/>
<path d="M117.653 142.903C117.419 143.781 116.892 144.553 116.158 145.092C115.388 145.589 114.467 145.8 113.557 145.687C112.967 145.625 112.397 145.445 111.879 145.156C110.533 144.157 109.482 142.815 108.837 141.271L107.939 139.432C107.46 138.678 107.191 137.811 107.159 136.919C107.159 136.621 107.796 136.556 108.46 136.634C109.123 136.712 109.76 136.893 109.903 137.282C110.41 138.706 110.969 140.157 111.593 141.543C111.962 142.293 112.577 142.896 113.336 143.253C113.629 143.409 113.968 143.455 114.292 143.384C114.617 143.313 114.905 143.128 115.104 142.864C115.365 142.365 115.495 141.808 115.481 141.245C115.504 140.234 115.373 139.225 115.091 138.253C114.845 137.487 114.528 136.745 114.142 136.038C114.064 135.87 113.973 135.727 113.908 135.559C113.661 134.937 113.752 134.678 114.324 134.342C114.45 134.261 114.58 134.187 114.714 134.121C114.923 134.011 115.165 133.985 115.393 134.048C115.62 134.11 115.814 134.257 115.937 134.458C116.813 135.794 117.41 137.291 117.692 138.862C117.986 140.21 117.986 141.606 117.692 142.955L117.653 142.903Z" fill="white"/>
<path d="M123.661 161.463C124.571 162.577 124.558 163.004 124.389 163.212C123.766 163.969 122.961 164.558 122.048 164.921C121.209 165.19 120.318 165.257 119.448 165.115C117.972 164.945 116.597 164.283 115.547 163.237C115.248 162.937 114.97 162.616 114.714 162.279C114.471 161.96 114.253 161.622 114.064 161.269C114.064 161.269 113.96 161.165 113.986 161.087C114.012 161.01 114.636 160.556 115.117 160.44C115.217 160.432 115.317 160.432 115.416 160.44C115.573 160.66 116.418 160.44 116.548 160.569C116.822 160.89 117.17 161.138 117.562 161.295C117.69 161.381 117.804 161.486 117.9 161.605C118.03 161.748 118.108 161.981 118.264 162.111C119.023 162.634 119.953 162.847 120.865 162.706C121.428 162.599 121.963 162.379 122.438 162.059C122.669 161.894 122.89 161.716 123.102 161.528C123.284 161.479 123.472 161.457 123.661 161.463Z" fill="white"/>
<path d="M112.998 127.736C111.698 128.591 111.477 128.708 111.152 128.695C110.23 128.545 109.29 128.545 108.369 128.695C107.488 128.733 106.615 128.876 105.768 129.122C105.041 129.359 104.34 129.667 103.675 130.042C103.021 130.417 102.403 130.85 101.828 131.337C101.479 131.622 101.157 131.938 100.866 132.282C100.608 132.623 100.369 132.978 100.151 133.344C100.151 133.344 100.151 133.487 100.008 133.5C99.4998 133.433 99.0357 133.179 98.7073 132.787C98.6293 132.684 98.4732 132.541 98.4992 132.515C98.6943 132.192 98.0701 131.337 98.3692 131C98.6508 130.702 98.8953 130.372 99.0974 130.016C99.3315 129.679 99.5655 129.342 99.8386 129.018C100.057 128.769 100.317 128.559 100.606 128.397C100.981 128.198 101.368 128.021 101.763 127.866C102.388 127.509 103.03 127.185 103.688 126.894C104.806 126.392 105.994 126.06 107.212 125.91C108.417 125.72 109.649 125.786 110.827 126.104C111.434 126.264 112.004 126.542 112.504 126.92C112.702 127.171 112.868 127.445 112.998 127.736Z" fill="white"/>
<path d="M124.012 513.937C124.583 513.351 125.068 512.688 125.456 511.969C125.575 511.7 125.674 511.423 125.755 511.14C126.203 510.181 126.408 509.127 126.353 508.07C126.353 507.876 126.353 507.682 126.353 507.487L126.86 508.135C126.698 508.043 126.512 508.003 126.327 508.018C126.197 508.018 126.184 508.122 126.119 508.2C125.974 508.34 125.813 508.462 125.638 508.562C125.495 508.653 124.831 508.355 124.337 507.85C124.187 507.748 124.06 507.615 123.965 507.461C123.869 507.307 123.807 507.135 123.783 506.956C123.758 506.776 123.772 506.594 123.823 506.42C123.873 506.246 123.96 506.085 124.077 505.946C124.682 505.397 125.47 505.093 126.288 505.091C126.945 505.107 127.586 505.295 128.147 505.635L129.045 506.153V506.84C129.169 507.703 129.129 508.582 128.928 509.43C128.78 510.421 128.559 511.4 128.264 512.357C128.065 512.857 127.83 513.341 127.562 513.808C127.281 514.255 126.977 514.687 126.652 515.103C126.247 515.603 125.812 516.078 125.352 516.528C124.688 517.201 123.934 517.823 123.219 518.38C122.504 518.937 122.179 519.403 121.568 519.882C121.428 520.001 121.28 520.109 121.125 520.206C121.012 520.282 120.885 520.334 120.75 520.359C120.616 520.383 120.478 520.38 120.345 520.349C120.215 520.298 120.096 520.224 119.994 520.129C119.88 520.006 119.803 519.853 119.773 519.688C119.747 519.525 119.747 519.359 119.773 519.196C119.761 519.11 119.761 519.023 119.773 518.937C119.804 518.77 119.804 518.599 119.773 518.432C119.773 518.315 119.669 518.25 119.695 518.16C119.713 518.082 119.743 518.007 119.786 517.94C120.503 517.126 121.291 516.376 122.14 515.699C122.777 515.166 123.368 514.581 123.908 513.95L124.012 513.937Z" fill="white"/>
<path d="M231.563 108.723C231.758 109.15 231.966 109.577 232.161 110.018C232.239 110.173 232.356 110.29 232.434 110.445C232.656 110.989 232.838 111.559 233.072 112.09C233.184 112.316 233.334 112.522 233.514 112.699C233.735 112.932 234.06 113.087 234.034 113.489C234.008 113.89 232.005 114.94 231.732 114.616C231.28 114.067 230.991 113.403 230.9 112.699C230.787 112.306 230.602 111.937 230.354 111.611L229.756 110.406C229.639 110.173 229.509 109.927 229.366 109.694C229.174 109.338 228.938 109.007 228.663 108.71C228.413 108.523 228.131 108.382 227.831 108.295C227.763 108.277 227.698 108.251 227.636 108.218C227.441 108.101 227.493 107.933 227.857 107.402L228.117 107.026C228.403 106.624 228.754 106.378 229.015 106.417C229.723 106.54 230.356 106.93 230.783 107.505C231.084 107.887 231.358 108.29 231.602 108.71L231.563 108.723Z" fill="white"/>
<path d="M221.551 113.204C221.967 113.463 222.4 113.709 222.851 113.942C223.02 114.033 223.202 114.046 223.371 114.124C223.943 114.447 224.528 114.784 225.127 115.056C225.4 115.173 225.689 115.251 225.985 115.289C226.362 115.289 226.778 115.289 227.064 115.639C227.35 115.989 226.271 118.009 225.868 117.919C225.088 117.748 224.361 117.392 223.748 116.882C223.345 116.631 222.907 116.439 222.448 116.313C221.967 116.092 221.486 115.833 221.005 115.574L220.12 115.082C219.665 114.836 219.249 114.538 218.82 114.292C218.402 114.124 217.994 113.934 217.598 113.722C217.507 113.722 217.39 113.606 217.312 113.541C216.999 113.217 217.051 112.945 217.598 112.595C217.707 112.533 217.82 112.477 217.936 112.427C218.259 112.257 218.605 112.135 218.963 112.064C219.485 112.08 219.991 112.246 220.419 112.543C220.796 112.751 221.213 112.997 221.642 113.204H221.551Z" fill="white"/>
<path d="M228.898 142.566C229.171 142.178 229.457 141.776 229.717 141.374C229.821 141.232 229.847 141.051 229.951 140.908C230.302 140.39 230.705 139.885 231.043 139.354C231.181 139.116 231.281 138.858 231.342 138.59C231.446 138.24 231.42 137.852 231.797 137.618C232.174 137.385 234.073 138.668 233.943 139.043C233.697 139.752 233.272 140.386 232.708 140.882C232.423 141.238 232.194 141.636 232.031 142.061C231.784 142.488 231.511 142.903 231.238 143.356L230.731 144.133C230.472 144.52 230.238 144.922 230.029 145.338C229.912 145.687 229.829 146.047 229.782 146.413C229.782 146.503 229.782 146.594 229.782 146.659C229.665 146.944 229.483 146.944 228.885 146.659L228.494 146.465C228.052 146.231 227.753 145.921 227.727 145.675C227.682 145.021 227.841 144.369 228.182 143.809C228.39 143.395 228.664 142.993 228.898 142.579V142.566Z" fill="white"/>
</svg>
