<svg width="431" height="332" viewBox="0 0 431 332" fill="none" xmlns="http://www.w3.org/2000/svg">
<path d="M273.67 332C269.231 332 264.581 331.681 259.465 331.021C250.33 329.844 241.295 328.202 232.821 326.613C231.273 326.323 229.732 325.748 228.243 325.193C226.774 324.643 225.251 324.075 223.69 323.764C210.612 321.155 198.191 316.025 186.173 311.062C181.44 309.108 176.546 307.087 171.678 305.247C149.915 297.02 132.638 289.289 117.317 280.918C110.614 277.259 101.984 272.162 94.671 265.22C92.5923 263.246 90.9765 261.418 89.731 259.636C88.8053 258.308 88.0647 256.796 87.2821 255.195C86.9076 254.43 86.5205 253.64 86.0913 252.817L85.3129 253.119C86.4532 257.422 88.292 261.052 91.0944 264.544C95.7566 270.347 101.69 275.481 109.234 280.242C122.257 288.457 136.416 294.692 149.776 300.205C157.161 303.251 164.773 306.083 172.132 308.819C175.418 310.041 178.814 311.306 182.147 312.571C182.378 312.659 182.626 312.73 182.862 312.798C183.367 312.945 183.842 313.079 184.116 313.352L184.314 313.546C185.067 314.289 186.098 315.31 186.051 316.008C186.005 316.756 184.831 317.991 183.927 318.247C181.402 318.966 178.608 319.495 175.136 319.911C168.631 320.697 162.164 322.638 154.779 326.021C150.546 327.962 146.136 328.945 141.68 328.945C139.324 328.945 136.921 328.668 134.531 328.126C129.957 327.084 126.339 324.487 124.344 320.819C122.308 317.071 122.106 312.504 123.772 307.961C123.919 307.554 124.079 307.15 124.294 306.6L124.954 304.898L0 307.861V305.344C2.87392 305.293 5.75204 305.255 8.62596 305.213C15.1691 305.121 21.9352 305.029 28.5877 304.827C36.9275 304.575 45.4062 304.272 53.603 303.982C64.2697 303.604 75.2983 303.209 86.1502 302.923C96.4719 302.65 106.975 302.621 117.128 302.596L122.527 302.579C124.155 302.575 125.83 302.339 127.063 300.667C127.26 300.398 127.53 300.033 127.732 299.978L128.03 299.898C128.476 299.776 129.028 299.621 129.402 299.621C129.596 299.621 129.646 299.663 129.646 299.663C130.025 299.995 130.197 300.965 130.122 301.667C130.012 302.663 129.802 303.692 129.591 304.688C129.217 306.495 128.826 308.365 129.04 310.172C130 318.319 136.568 324.012 145.021 324.012C145.615 324.012 146.221 323.983 146.822 323.924C150.062 323.613 153.534 322.865 157.136 321.71C163.62 319.626 171.345 317.39 179.513 316.588C179.853 316.554 180.182 316.466 180.594 316.352C180.813 316.294 181.065 316.222 181.364 316.151L182.584 315.852L181.427 315.357C181.103 315.218 180.817 315.088 180.556 314.966C180.047 314.735 179.609 314.533 179.151 314.39C160.35 308.533 142.396 300.339 125.611 292.448C112.954 286.498 103.461 280.54 95.7271 273.704C89.285 268.006 85.1908 261.947 83.2048 255.182C80.4192 245.686 85.6411 230.539 95.7061 226.396C97.0357 225.849 98.4664 225.547 99.7329 225.547H99.7834C100.2 225.547 100.709 225.946 101.201 226.328C101.315 226.417 101.429 226.505 101.542 226.589C101.45 226.677 101.357 226.77 101.265 226.858C100.802 227.312 100.368 227.74 99.8592 228.005C99.1396 228.379 98.3317 228.69 97.5533 228.988C96.1731 229.518 94.7467 230.064 93.6611 231.022C88.8432 235.291 87.0801 241.262 88.2793 249.279C89.0746 254.594 91.877 259.195 97.0989 263.754C106.747 272.174 117.843 278.208 128.396 283.473C146.473 292.49 165.581 299.936 184.057 307.138L188.008 308.68C194.854 311.352 201.86 313.949 208.635 316.462C211.597 317.558 214.555 318.655 217.513 319.764C217.984 319.941 218.468 320.1 219.032 320.281C219.327 320.378 219.646 320.483 220.004 320.6L220.644 320.815L220.555 320.147C219.933 315.361 220.858 310.814 223.387 306.243C225.79 301.902 228.975 298.629 233.124 296.247L233.886 295.81L233.065 295.49C231.525 294.894 229.993 294.322 228.508 293.768C225.264 292.557 222.205 291.415 219.184 290.07C202.609 282.683 186.3 273.111 169.317 260.813C160.935 254.741 152.557 248.182 143.704 240.766C142.017 239.35 140.616 238.472 138.861 238.472C137.973 238.472 137.001 238.703 135.895 239.182C132.65 240.585 129.187 241.295 125.611 241.295C123.456 241.295 121.243 241.035 119.038 240.522C109.693 238.346 103.566 228.934 104.786 218.631C105.683 211.08 109.588 204.567 116.4 199.273C119.244 197.063 122.476 195.227 125.598 193.449C126.616 192.869 127.635 192.289 128.645 191.697L128.75 191.634C129.217 191.357 129.798 191.016 130.281 191.016C130.513 191.016 130.854 191.084 131.19 191.663C131.388 192.004 131.46 192.289 131.401 192.5C131.304 192.852 130.816 193.121 130.349 193.382C130.151 193.491 129.949 193.605 129.764 193.726C128.455 194.605 127.1 195.47 125.792 196.306C123.086 198.033 120.288 199.815 117.734 201.84C111.553 206.74 108.203 212.408 107.488 219.177C106.949 224.286 108.38 229.076 111.519 232.665C114.633 236.219 119.148 238.262 124.231 238.409C124.534 238.417 124.837 238.421 125.135 238.421C129.772 238.421 134.106 237.371 138.024 235.303C139.644 234.446 141.167 234.03 142.678 234.03C144.268 234.03 145.863 234.493 147.554 235.446C155.591 239.972 163.523 244.283 172.204 247.291C184.911 251.699 198.384 253.842 213.394 253.842C214.248 253.842 215.102 253.834 215.956 253.821C229.526 253.602 242.962 251.556 257.028 247.564C260.062 246.703 263.168 245.909 266.176 245.136C267.384 244.825 268.596 244.514 269.803 244.199C270.152 244.106 270.603 244.005 271.007 244.005C271.68 244.005 272.046 244.291 272.227 244.959C272.492 245.921 271.916 246.216 270.636 246.615L270.531 246.648C249.656 253.178 233.259 256.237 217.362 256.569C216.066 256.594 214.77 256.611 213.507 256.611C196.495 256.611 181.898 254.111 168.888 248.968C164.099 247.077 159.387 244.745 154.83 242.493C152.789 241.484 150.677 240.438 148.585 239.446L148.362 239.337C147.954 239.136 147.491 238.909 146.915 238.875L145.602 238.795L146.624 239.619C172.153 260.212 200.459 280.931 234.407 292.982L234.719 293.091L235.442 291.978L235.11 291.747C235.03 291.692 234.95 291.633 234.87 291.574C234.677 291.431 234.475 291.284 234.256 291.158C234.062 291.049 233.869 290.961 233.675 290.877C233.545 290.818 233.414 290.763 233.288 290.696L225.297 286.578C216.045 281.813 206.48 276.885 197.097 271.99C195.704 271.263 194.295 270.267 192.91 269.027C192.069 268.275 191.698 267.418 191.888 266.674C192.077 265.931 192.83 265.355 193.945 265.099C196.685 264.468 199.781 264.01 203.409 263.699C213.941 262.8 223.383 261.351 232.266 259.266C232.354 259.245 232.447 259.22 232.543 259.195C232.758 259.136 232.981 259.077 233.149 259.077C233.2 259.077 233.242 259.082 233.28 259.094C233.814 259.258 234.319 259.498 234.858 259.75C234.929 259.783 235.005 259.817 235.076 259.855C235.013 259.96 234.95 260.069 234.891 260.174C234.643 260.611 234.361 261.107 234.088 261.191L233.33 261.422C230.423 262.304 227.418 263.216 224.41 263.657C218.897 264.464 213.272 265.141 207.831 265.796C205.378 266.09 202.925 266.389 200.476 266.695C199.794 266.779 199.129 266.893 198.283 267.036C197.837 267.111 197.345 267.195 196.777 267.288L195.738 267.456L196.605 268.048C197.08 268.372 197.505 268.683 197.905 268.973C198.704 269.557 199.399 270.061 200.164 270.452C207.995 274.469 215.969 278.532 223.677 282.465C227.877 284.608 232.076 286.746 236.276 288.894C237.353 289.444 238.43 290.049 239.469 290.637L240.126 291.007C241.026 291.511 241.54 292.024 241.577 292.448C241.598 292.713 241.43 292.995 241.068 293.284L240.866 293.448L242.171 299.062L242.558 299.003C243.833 298.81 245.137 298.591 246.471 298.373C249.492 297.873 252.614 297.36 255.762 297.011C264.409 296.058 275.829 294.835 287.484 293.818C292.673 293.368 297.958 292.999 303.07 292.646C308.326 292.28 313.762 291.902 319.102 291.436C328.073 290.646 336.131 289.767 343.94 286.973C360.523 281.036 370.504 269.006 373.609 251.212C374.198 247.833 374.43 244.468 374.674 240.909C374.783 239.312 374.897 237.657 375.044 236.014L375.082 235.589L374.657 235.556C374.131 235.514 373.672 235.472 373.256 235.434C372.469 235.362 371.846 235.308 371.215 235.282C361.352 234.837 353.639 227.963 352.465 218.563C351.935 214.328 352.802 210.66 354.973 207.954C357.27 205.084 360.948 203.332 365.606 202.882C365.955 202.849 366.326 202.832 366.709 202.832C368.059 202.832 369.439 203.046 370.491 203.235C371.59 203.433 372.675 203.773 373.824 204.139C374.354 204.307 374.901 204.479 375.469 204.643L375.869 204.76L375.991 204.361C376.235 203.555 376.483 202.748 376.731 201.941C379.774 192.071 382.917 181.869 378.629 171.205C375.389 163.141 369.629 156.318 361.508 150.918C358.2 148.717 354.645 146.78 351.211 144.901C349.196 143.8 347.117 142.666 345.11 141.489C343.734 140.683 342.35 139.884 340.965 139.082C336.072 136.254 331.014 133.334 326.293 130.098C321.698 126.951 319.123 122.434 318.845 117.035C318.63 112.883 320.246 109.673 323.785 107.219C325.224 106.224 326.516 105.513 327.736 105.047C336.951 101.526 344.757 95.2946 353.033 84.8363C359.13 77.1344 363.166 69.7139 365.37 62.1507C367.617 54.4445 367.546 48.2216 365.156 42.566C363.098 37.6961 359.13 34.7926 354.54 34.7926C351.767 34.7926 349.032 35.8809 346.625 37.9356C344.769 39.5239 343.355 41.6332 341.984 43.6795C341.491 44.4148 340.982 45.1711 340.465 45.8896C340.107 46.3854 339.863 46.9443 339.627 47.4863C339.408 47.9863 339.202 48.4569 338.92 48.8687C338.197 49.915 337.254 50.4906 336.261 50.4906C335.268 50.4906 334.309 49.894 333.61 48.8099C333.114 48.041 332.684 47.1964 332.272 46.377C332.028 45.9022 331.788 45.4232 331.531 44.9568C329.226 40.7508 326.659 38.0028 323.452 36.3095C321.567 35.3136 319.665 34.8052 317.793 34.8052C314.225 34.8052 311.023 36.675 308.78 40.0743C305.982 44.3097 304.942 49.2679 305.595 55.2345C306.478 63.2978 309.769 71.0711 315.954 79.6933C319.863 85.1472 324.69 90.0676 330.707 94.7358C330.921 94.9039 331.132 95.0803 331.342 95.2526C331.561 95.4375 331.784 95.6224 332.011 95.7989C332.537 96.2064 332.84 96.6602 332.844 97.0384C332.844 97.2947 332.71 97.53 332.423 97.7485C332.314 97.8367 332.02 97.9376 331.565 97.9376C331.111 97.9376 330.648 97.8283 330.421 97.6687C327.694 95.7148 325.051 93.7778 322.72 91.5886C312.975 82.4623 306.567 71.7854 303.667 59.8523C302.102 53.4067 302.422 47.3897 304.61 41.9693C307.088 35.8347 312.205 32.0236 317.957 32.0236C321.942 32.0236 325.88 33.8556 329.049 37.1793C330.846 39.0659 332.323 41.2172 333.884 43.4946C334.599 44.5366 335.335 45.6081 336.11 46.6628L336.518 47.2174L338.129 43.9946C340.149 39.9441 342.77 36.9229 346.141 34.759C348.842 33.0237 351.788 32.1077 354.662 32.1077C360.426 32.1077 365.299 35.6456 367.702 41.5702C370.449 48.3519 370.453 55.8521 367.706 63.8692C362.08 80.3025 351.788 93.6265 337.119 103.476C335.676 104.446 334.031 105.198 332.445 105.929C331.658 106.291 330.846 106.665 330.059 107.064C329.752 107.219 329.444 107.371 329.137 107.522C328.195 107.984 327.218 108.463 326.314 109.043C323.528 110.825 321.875 112.951 321.403 115.363C320.957 117.653 321.614 120.056 323.352 122.51C325.683 125.796 328.578 128.611 331.51 130.434C336.602 133.603 341.984 136.477 347.193 139.254C349.011 140.225 350.828 141.195 352.638 142.179C358.874 145.569 365.404 149.465 370.899 154.952C382.37 166.41 385.947 179.991 381.524 195.319L381.242 196.298C380.577 198.617 379.887 201.017 379.088 203.332C378.444 205.189 378.402 206.752 380.274 208.332C383.809 211.319 385.993 214.988 386.759 219.24C387.861 225.375 385.505 230.35 380.123 233.249C377.998 234.392 377.236 235.724 377.312 238.157C377.67 249.917 375.389 259.956 370.336 268.855C363.889 280.208 353.728 287.65 340.136 290.982C329.878 293.495 319.114 294.226 309.617 294.869C306.028 295.112 302.384 295.427 298.858 295.73C297.234 295.869 295.614 296.007 293.99 296.142L293.67 296.167L293.443 297.402L293.804 297.511C294.027 297.579 294.25 297.659 294.469 297.743C294.987 297.932 295.517 298.129 296.085 298.163L297.604 298.255C302.885 298.57 308.342 298.898 313.72 299.091C322.38 299.406 331.607 299.717 340.831 299.806H340.877C342.064 299.806 343.229 299.364 344.353 298.936C344.98 298.696 345.628 298.453 346.259 298.293C353.273 296.516 360.86 295.625 369.46 295.57C372.145 295.553 374.834 295.545 377.518 295.545C382.786 295.545 388.143 295.574 393.323 295.6C397.568 295.621 401.814 295.642 406.056 295.65H406.123C407.629 295.65 408.429 295.558 408.917 295.032C409.447 294.457 409.409 293.49 409.291 292.087L409.262 291.742L408.917 291.705C407.869 291.595 406.805 291.511 405.774 291.431C403.527 291.255 401.204 291.07 398.991 290.616C392.237 289.225 387.928 284.633 386.855 277.679C386.435 274.964 387.133 272.389 388.82 270.427C390.436 268.548 392.814 267.468 395.347 267.468C396.167 267.468 397 267.578 397.829 267.796C404.621 269.586 409.098 274.435 411.505 282.616C411.837 283.75 412.01 284.961 412.19 286.238C412.279 286.868 412.371 287.515 412.485 288.192L412.544 288.541H430.031V291.066L425.954 291.112C422.432 291.15 418.91 291.192 415.388 291.217C413.865 291.23 412.826 291.284 412.3 291.94C411.803 292.557 411.896 293.495 412.291 295.352L412.363 295.684H430.031V298.205H424.254C422.432 298.205 420.269 298.205 418.044 298.234C416.449 298.255 414.825 298.318 413.259 298.377C411.315 298.453 409.304 298.528 407.335 298.528C406.767 298.528 406.199 298.52 405.631 298.507C403.859 298.461 402.092 298.415 400.32 298.364C393.853 298.188 387.163 298.007 380.586 298.007C370.193 298.007 361.668 298.465 353.757 299.457C353.277 299.516 352.806 299.608 352.343 299.696C352.129 299.738 351.914 299.776 351.699 299.818L351.022 299.94L351.438 300.486C351.855 301.037 352.263 301.301 352.764 301.356C356.845 301.789 360.99 302.272 365.004 302.739C374.451 303.835 384.217 304.974 393.857 305.541C398.288 305.802 403.106 305.924 409.018 305.924C412.426 305.924 415.893 305.886 419.247 305.848C422.596 305.81 426.064 305.768 429.468 305.768H430.023V308.289C429.417 308.289 428.807 308.289 428.201 308.289C424.848 308.289 421.439 308.319 418.14 308.344C414.846 308.369 411.437 308.398 408.088 308.398C400.872 308.398 395.321 308.268 390.091 307.978C381.655 307.508 373.104 306.449 364.836 305.428C360.405 304.881 355.823 304.314 351.308 303.844L349.431 303.646C342.783 302.949 335.912 302.23 329.125 302.007C325.708 301.898 322.034 301.844 317.562 301.844C314.654 301.844 311.696 301.865 308.835 301.886C305.965 301.907 302.998 301.928 300.074 301.928H299.506L299.674 302.47C299.872 303.112 300.087 303.772 300.301 304.44C300.777 305.915 301.273 307.445 301.66 308.991C302.94 314.075 302.203 319.079 299.578 323.08C296.851 327.235 292.222 330.042 286.542 330.979C282.473 331.651 278.139 331.996 273.653 331.996L273.67 332ZM281.227 296.932C280.584 296.932 279.94 296.969 279.313 297.041C271.284 297.982 263.147 299.138 255.278 300.259C253.313 300.541 251.352 300.818 249.387 301.096C248.718 301.188 247.961 301.575 247.359 302.121C242.318 306.701 239.006 312.688 236.945 320.966C236.57 322.466 236.457 323.348 236.865 324.017C237.311 324.743 238.321 325.029 239.705 325.357C250.203 327.828 261.022 328.765 271.209 329.513H271.238H271.268C272.694 329.403 274.15 329.315 275.559 329.231C278.69 329.038 281.926 328.84 285.09 328.424C294.057 327.248 298.854 322.453 299.342 314.176C299.767 306.974 297.007 301.995 291.133 299.381C287.379 297.709 284.232 296.932 281.227 296.932ZM125.712 312.659C124.601 319.579 130.197 324.395 136.025 325.407L136.257 324.605C131.304 322.588 128.304 318.886 126.532 312.613L125.712 312.659ZM241.99 301.264C241.821 301.348 241.653 301.428 241.481 301.507C241.085 301.696 240.677 301.89 240.286 302.121C239.844 302.386 239.398 302.713 238.88 303.155C234.378 306.995 231.268 311.983 229.371 318.403C228.811 320.298 228.622 321.407 229.143 322.214C229.686 323.05 230.843 323.344 233.073 323.655L233.456 323.71L233.541 323.332C235.48 314.588 238.333 307.772 242.52 301.89L241.99 301.272V301.264ZM237.736 297.738C229.901 299.881 222.39 310.008 223.118 317.445C223.189 318.172 223.551 318.832 223.905 319.474C224.06 319.76 224.208 320.029 224.33 320.302L224.477 320.63L225.651 320.315L225.731 320.13C225.798 319.979 225.87 319.832 225.941 319.68C226.105 319.336 226.274 318.983 226.383 318.596C228.167 312.18 231.361 306.516 235.872 301.768C236.419 301.192 236.844 300.512 237.336 299.722C237.584 299.322 237.87 298.869 238.199 298.381L238.834 297.44L237.74 297.738H237.736ZM395.342 270.221C392.464 270.221 390.028 272.263 389.544 275.078C389.031 278.065 389.931 280.91 392.216 283.536C396.235 288.154 401.499 288.78 406.114 288.78C407.032 288.78 408.033 288.755 409.258 288.696L409.72 288.675L409.657 288.217C409.573 287.612 409.493 287.053 409.422 286.519C409.27 285.427 409.144 284.486 408.993 283.528C408.046 277.544 402.353 271.506 396.559 270.342C396.159 270.263 395.751 270.221 395.351 270.221H395.342ZM366.852 205.366C361.36 205.366 356.69 208.66 355.491 213.383C354.43 217.551 355.512 222.11 358.461 225.891C361.718 230.072 366.629 232.568 371.594 232.568C372.461 232.568 373.332 232.492 374.186 232.341L374.552 232.274L374.531 231.904C374.506 231.476 374.476 231.055 374.447 230.639C374.384 229.761 374.32 228.929 374.333 228.097C374.35 226.665 374.354 225.232 374.358 223.803C374.367 219.937 374.375 215.942 374.682 212.046L374.691 211.916C375.053 207.265 374.956 206.807 370.306 205.786C369.864 205.689 369.351 205.58 368.833 205.508C368.177 205.416 367.512 205.37 366.86 205.37L366.852 205.366ZM377.14 210.756V231.732L377.746 231.438C381.995 229.375 384.061 226.501 384.242 222.391C384.436 217.988 382.694 214.357 378.6 210.618L378.44 210.471L377.144 210.756H377.14Z" fill="white"/>
<path d="M6.80092 299.323C6.66649 299.323 6.53207 299.319 6.40185 299.302C4.72157 299.125 3.0413 298.932 1.36102 298.738L0 298.582V296.012H3.96965L3.16732 291.805H0V288.861H2.88167L2.95308 288.533C3.14212 287.679 3.31014 286.837 3.46977 286.025C3.81423 284.288 4.13768 282.643 4.65436 281.066C7.00255 273.914 13.3624 268.794 20.1255 268.618C20.2347 268.618 20.3439 268.614 20.449 268.614C23.8767 268.614 26.8046 270.073 28.4765 272.614C30.1231 275.121 30.3038 278.344 28.9679 281.457C26.7752 286.564 22.4989 289.63 15.8954 290.829C13.7951 291.212 11.6191 291.414 9.51456 291.612C8.54 291.704 7.56964 291.793 6.59928 291.902L6.25483 291.94L6.22542 292.285C6.0952 293.959 6.01959 294.881 6.53207 295.436C7.01095 295.953 7.80908 295.979 9.29612 295.979C35.206 296 61.12 296.008 87.0299 296.012H97.7122C97.9391 296.012 98.1575 295.995 98.5229 295.966C98.7456 295.949 99.027 295.924 99.4009 295.899L100.602 295.814L99.6109 295.133C99.111 294.788 98.6616 294.472 98.2499 294.178C97.4476 293.61 96.7545 293.122 96.0277 292.685C83.2871 285.062 72.3064 277.115 62.4558 268.382C56.1548 262.8 48.3919 255.047 44.208 244.58C38.911 231.333 39.8351 218.431 46.9511 206.232C47.871 204.658 48.0559 203.131 48.2491 201.516C48.6818 197.961 47.6148 196.051 44.3215 194.474C41.0281 192.896 40.0326 189.228 39.5369 186.208C38.4363 179.548 39.7805 172.679 43.6494 165.208C48.6566 155.536 54.8274 148.078 62.5188 142.411C68.4292 138.053 74.0791 135.937 79.7879 135.937C80.6238 135.937 81.4766 135.983 82.3167 136.072C89.7855 136.867 94.8768 141.015 97.4476 148.397C99.5899 154.552 98.7624 160.176 94.9818 165.111C92.474 168.384 88.5757 170.188 84.0012 170.188C78.2168 170.188 72.7559 167.303 70.0885 162.831C69.8995 162.511 69.9583 161.602 70.1011 161.43C70.3237 161.295 70.7228 161.199 71.1429 161.199C71.4369 161.199 71.71 161.245 71.9116 161.333C72.3275 161.51 72.6845 161.926 73.0626 162.368C73.2306 162.566 73.4028 162.768 73.5877 162.953C76.4693 165.864 79.9265 167.345 83.8625 167.345C84.7531 167.345 85.6772 167.269 86.614 167.117C91.3818 166.348 95.049 162.074 95.7379 156.483C96.3176 151.767 94.965 147.274 91.9279 143.833C88.9328 140.438 84.5725 138.491 79.9685 138.491C78.8931 138.491 77.7968 138.596 76.7172 138.802C70.9328 139.908 65.7324 142.701 60.8218 147.333C52.2734 155.402 46.6108 163.638 43.5149 172.519C42.1497 176.431 40.9147 181.059 42.1077 185.715C42.5824 187.571 43.6073 189.518 45.2498 191.668C45.7539 192.328 46.7285 192.518 47.6736 192.703C48.0685 192.779 48.4381 192.85 48.7658 192.951C49.6521 193.224 50.5427 193.498 51.513 193.792L53.1135 194.28L53.2857 194.15C56.9067 191.386 60.4185 190.027 64.0227 189.998H64.1319C69.5844 189.998 74.3018 193.275 75.8644 198.151C77.4313 203.039 75.394 208.432 70.79 211.574C68.068 213.43 65.1527 214.414 62.355 214.414C57.7679 214.414 53.7058 211.869 50.9207 207.25C50.8241 207.09 50.6855 207.01 50.5259 206.922C50.4545 206.88 50.3663 206.829 50.257 206.758L49.8748 206.505L46.5898 212.66L46.9637 212.533L46.7159 213.08C46.6024 213.329 46.4974 213.551 46.3966 213.766C46.1866 214.204 46.0101 214.582 45.8589 214.986C41.3432 227.156 42.994 239.107 50.9039 251.53C55.4113 258.606 61.8509 264.163 67.5345 268.816C68.4544 269.569 69.2484 270.183 70.3657 270.666L71.5671 271.184L70.895 270.061C70.7858 269.88 70.6808 269.699 70.5758 269.514C70.3447 269.11 70.1095 268.698 69.8323 268.307C62.7835 258.412 58.398 246.894 54.8442 236.869C54.6804 236.403 55.0752 235.485 55.2096 235.183C55.4533 234.619 55.7977 234.068 56.159 233.487C56.1758 233.458 56.1926 233.433 56.2094 233.403C56.3564 233.828 56.5077 234.27 56.6547 234.711C62.1576 251.008 69.1475 264.138 78.0152 274.848C81.9092 279.551 86.7442 283.653 92.789 287.38C95.9143 289.307 98.6238 291.044 101.081 292.693C102.005 293.311 103.165 294.157 103.967 295.204C104.438 295.819 104.702 296.925 104.496 297.438C104.299 297.93 103.329 298.448 102.539 298.62C102.123 298.713 101.652 298.755 101.056 298.755C100.728 298.755 100.401 298.742 100.073 298.73C99.7369 298.717 99.4051 298.704 99.0732 298.704L80.565 298.688C60.7546 298.667 40.2678 298.646 20.1213 298.646H12.3374C11.262 298.646 10.1909 298.831 9.1533 299.007C8.63242 299.096 8.09053 299.188 7.56544 299.256C7.28399 299.289 7.03615 299.306 6.80932 299.306L6.80092 299.323ZM20.5792 271.293C19.2854 271.293 17.8991 271.542 16.6725 271.987C10.4471 274.263 6.1204 280.977 6.14981 288.314V288.705L6.54047 288.734C7.49403 288.806 8.43498 288.84 9.33813 288.84C13.2196 288.84 16.6389 288.204 19.7894 286.896C23.444 285.382 25.8762 282.774 26.8214 279.358C27.3591 277.414 27.0482 275.42 25.9729 273.88C24.9227 272.379 23.2802 271.47 21.3479 271.319C21.1001 271.298 20.8396 271.289 20.5834 271.289L20.5792 271.293ZM61.9896 212.214L62.376 212.05C63.1111 211.743 63.8757 211.452 64.6192 211.175C66.3037 210.544 68.047 209.892 69.5844 208.924C72.9113 206.825 74.453 202.513 73.1718 198.895C71.8192 195.088 68.3326 192.627 64.2873 192.627C64.1403 192.627 63.9933 192.627 63.8463 192.636C59.2003 192.846 53.5546 197.124 52.0003 201.617C51.9205 201.848 51.8323 202.101 51.8491 202.37C52.1347 207.082 56.7975 211.377 61.7039 211.52L61.9896 212.205V212.214ZM51.8995 220.711C51.009 219.841 50.1688 219.02 49.5681 218.091C48.9758 217.169 48.5936 216.118 48.1525 214.898C47.9467 214.326 47.7324 213.732 47.4804 213.114L47.2157 212.466L47.5812 212.344C48.1189 212.163 48.5684 212.075 48.9254 212.075C49.8958 212.075 50.1142 212.723 50.4041 214.313L50.4167 214.393C50.7569 216.248 51.2652 218.044 51.7987 219.942C51.8869 220.253 51.9751 220.568 52.0633 220.884C52.0045 220.829 51.9499 220.774 51.8911 220.716L51.8995 220.711Z" fill="white"/>
<path d="M213.18 251.614C210.467 251.614 207.724 251.526 205.032 251.357C187.561 250.249 170.914 245.284 155.563 236.598C154.415 235.946 153.254 235.095 151.912 233.92C150.406 232.601 149.989 231.59 150.561 230.647C151.104 229.75 152.328 228.878 153.679 228.427C154.714 228.082 155.875 228.006 156.994 227.93C157.477 227.896 157.978 227.867 158.458 227.812L158.941 227.757L158.815 227.286C156.708 219.392 159.307 212.224 161.806 206.858C161.878 206.706 162.475 206.55 162.795 206.466C162.921 206.432 163.047 206.398 163.174 206.365C163.228 206.495 163.287 206.63 163.346 206.761C163.556 207.237 163.779 207.725 163.704 208.058C163.392 209.444 163.001 210.842 162.622 212.198C162.109 214.035 161.575 215.934 161.23 217.842C160.818 220.121 160.792 222.551 161.15 224.872C161.381 226.372 162.311 228.056 163.514 229.164C168.621 233.869 175.054 236.118 181.2 238.022C191.545 241.223 202.339 242.845 213.29 242.845C221.009 242.845 229.007 242.04 237.059 240.448L238.127 240.233C238.868 240.086 239.608 239.934 240.348 239.8C241.072 239.665 241.8 239.547 242.427 239.442L243.142 239.324L243.205 238.506C241.867 238.064 240.466 237.647 239.116 237.243C236.099 236.341 232.978 235.411 230.067 234.101C218.237 228.777 210.248 220.399 206.319 209.204C203.82 202.09 204.119 194.449 204.384 187.706C204.418 186.863 204.489 185.958 204.603 185.023C204.666 184.492 204.695 183.725 204.249 183.178C203.938 182.794 203.458 182.584 202.79 182.525C201.746 182.436 201.309 181.872 201.326 180.634C201.342 179.286 201.338 177.963 201.334 176.43C201.334 175.748 201.334 173.646 201.334 173.646L189.067 178.439L189.142 178.789C189.988 182.664 188.915 184.441 183.934 187.436L183.686 187.588L183.737 187.874C184.612 192.714 183.434 194.824 178.693 196.905C175.647 198.24 172.403 198.918 169.051 198.918C166.871 198.918 164.595 198.632 162.286 198.067C158.609 197.17 155.635 194.596 153.91 190.827C149.148 180.415 149.657 171.351 155.467 163.12C156.199 162.084 157.175 161.17 158.117 160.286C158.525 159.902 158.95 159.506 159.35 159.102C160.511 157.931 161.684 156.773 162.854 155.615C165.323 153.172 167.877 150.649 170.287 148.067C173.299 144.844 177.182 143.278 182.159 143.278H183.362H187.073C189.239 143.278 191.856 144.053 192.041 147.738C192.15 149.97 193.244 150.421 194.969 150.421H195.057C198.288 150.396 201.477 150.383 204.535 150.383C209.066 150.383 213.513 150.413 217.762 150.463H217.85C219.466 150.463 220.181 149.848 220.488 148.189C221.203 144.331 222.52 143.602 226.377 143.244C227.236 143.164 228.085 143.126 228.897 143.126C235.59 143.126 240.967 145.809 245.342 151.331C247.618 154.203 250.415 156.752 253.087 159.119C260.293 165.5 262.699 173.684 260.445 184.138C260.167 185.427 259.763 186.716 259.376 187.967C259.195 188.548 259.014 189.125 258.846 189.706L258.627 190.115C258.514 190.17 258.345 190.258 258.24 190.431C254.98 196.05 250.171 198.783 243.537 198.783C241.762 198.783 239.865 198.598 237.74 198.219C234.152 197.579 231.615 196.509 229.52 194.757C227.055 192.693 226.588 190.957 227.673 187.883L227.778 187.588L227.526 187.402C227.08 187.078 226.609 186.758 226.15 186.45C223.382 184.593 220.77 182.841 222.772 178.456L223.02 177.913L222.423 177.862C220.593 177.706 218.982 176.944 217.27 176.14C215.322 175.221 213.307 174.274 210.926 174.274L210.374 174.282V174.695C210.374 175.285 210.374 175.836 210.37 176.363C210.366 177.487 210.362 178.46 210.379 179.454C210.404 180.84 210.185 181.72 209.685 182.23C209.281 182.643 208.675 182.841 207.825 182.845H207.463L207.409 183.203C205.234 197.713 207.678 209.692 214.678 218.811C222.154 228.554 234.808 234.678 251.274 236.523L251.951 236.598C251.951 236.598 251.32 234.888 251.126 234.362C250.71 233.225 250.314 232.146 249.898 231.064C247.294 224.312 245.493 217.017 244.404 208.761C244.278 207.809 244.66 206.445 245.14 206.146C245.355 206.011 245.561 205.944 245.746 205.944C246.469 205.944 247.088 206.95 247.5 207.616C249.149 210.29 250.794 213.024 252.388 215.669C254.067 218.453 255.804 221.334 257.542 224.152C259.338 227.062 261.21 229.994 263.023 232.824C264.126 234.551 265.232 236.278 266.326 238.009C267.154 239.324 267.432 240.111 267.243 240.642C267.062 241.156 266.376 241.59 265.026 242.045C260.036 243.729 254.98 245.262 249.99 246.589C237.505 249.921 225.111 251.61 213.155 251.61L213.18 251.614ZM158.664 230.382C157.267 230.382 155.744 230.887 154.377 231.801L153.834 232.167L154.39 232.513C166.653 240.082 179.959 245.018 193.934 247.187C200.383 248.19 206.98 248.695 213.542 248.695C229.73 248.695 245.998 245.743 263.272 239.665L263.764 239.492L249.326 215.96L248.442 216.25L248.526 216.625C248.577 216.853 248.623 217.084 248.67 217.312C248.771 217.821 248.88 218.344 249.044 218.853C249.448 220.096 249.852 221.338 250.256 222.581C251.686 226.987 253.167 231.544 254.711 235.996L254.812 236.283C255.262 237.58 255.535 238.363 255.354 238.713C255.165 239.079 254.286 239.353 252.864 239.77C250.828 240.368 248.712 240.853 246.667 241.32C245.952 241.484 245.241 241.649 244.526 241.817C233.828 244.348 223.323 245.633 213.307 245.633C206.529 245.633 199.777 245.048 193.236 243.894C183.11 242.108 171.432 239.214 161.558 231.321C160.788 230.706 159.787 230.382 158.664 230.382ZM157.717 164.915C153.628 170.474 152.513 176.687 154.314 183.906C156.405 192.305 160.851 196.05 168.735 196.05C169.421 196.05 170.144 196.02 170.889 195.961C173.804 195.734 178.07 194.971 181.452 190.953L181.797 190.545L181.322 190.304C180.969 190.128 180.645 189.951 180.342 189.782C179.681 189.424 179.113 189.112 178.482 188.915C177.956 188.75 177.41 188.666 176.884 188.586C176.227 188.485 175.605 188.388 175.049 188.152C174.646 187.984 174.301 187.562 173.935 187.12C173.863 187.032 173.787 186.943 173.716 186.855C173.779 186.813 173.842 186.771 173.901 186.724C174.393 186.383 174.86 186.063 175.361 185.793C175.361 185.793 175.386 185.781 175.466 185.781C175.533 185.781 175.605 185.785 175.672 185.793C175.769 185.802 175.861 185.81 175.958 185.81C176.093 185.81 176.206 185.793 176.312 185.764C176.821 185.617 177.334 185.473 177.843 185.326C180.106 184.686 182.449 184.02 184.713 183.233C185.436 182.98 186.189 181.758 186.076 181.017C185.996 180.469 185.352 179.943 184.17 179.459C183.64 179.24 183.055 179.235 182.491 179.231C182.378 179.231 182.268 179.231 182.159 179.231C181.208 179.21 180.262 179.197 179.311 179.181C177.834 179.16 176.307 179.138 174.805 179.084C174.09 179.058 173.085 178.962 172.639 178.465C172.437 178.241 172.353 177.934 172.382 177.538C172.509 177.302 173.733 176.856 174.322 176.645C174.519 176.573 174.705 176.506 174.873 176.443C174.978 176.401 175.113 176.384 175.289 176.384C175.437 176.384 175.592 176.396 175.748 176.409C175.925 176.422 176.105 176.439 176.282 176.439C176.324 176.439 176.366 176.439 176.408 176.439C177.17 176.405 177.935 176.384 178.697 176.363C180.569 176.308 182.508 176.253 184.406 176.047C186.749 175.79 189.437 175.335 191.7 173.128L192.045 172.791L191.667 172.492C191.406 172.286 191.149 172.079 190.901 171.873C189.298 170.567 187.788 169.333 185.39 169.333C185.31 169.333 185.23 169.333 185.15 169.333C183.434 169.392 181.558 169.417 179.248 169.417C177.977 169.417 176.703 169.409 175.432 169.4C174.158 169.392 172.883 169.384 171.612 169.384C170.729 169.384 169.85 169.384 168.966 169.396H168.697C164.112 169.396 160.835 167.964 158.386 164.889L158.045 164.46L157.721 164.902L157.717 164.915ZM237.664 187.12C237.361 187.55 237.071 187.958 236.735 188.106C236.2 188.333 235.603 188.434 234.968 188.54C234.417 188.632 233.845 188.725 233.302 188.915C232.612 189.155 231.981 189.542 231.375 189.913C231.114 190.073 230.858 190.233 230.593 190.38L230.138 190.633L230.483 191.025C230.681 191.248 230.866 191.492 231.064 191.753C231.506 192.339 231.964 192.941 232.591 193.316C236.373 195.582 240.622 195.944 243.903 196.003C244.004 196.003 244.105 196.003 244.206 196.003C248.754 196.003 252.359 194.049 254.921 190.199C258.005 185.566 259.132 180.048 258.278 173.802C257.828 170.491 256.599 167.564 254.53 164.843L254.206 164.418L253.869 164.83C250.6 168.828 246.158 169.379 241.85 169.379H240.719C239.482 169.379 238.241 169.388 237.004 169.396C235.767 169.405 234.53 169.417 233.298 169.417C231.4 169.417 229.844 169.392 228.397 169.337C228.275 169.333 228.148 169.329 228.026 169.329C226.074 169.329 224.312 169.906 222.482 171.144C221.813 171.595 221.051 172.214 221.11 172.976C221.169 173.739 222.023 174.227 222.659 174.531C224.354 175.335 226.121 175.853 227.77 176.03C229.415 176.207 231.089 176.266 232.713 176.329C234.194 176.384 235.721 176.439 237.21 176.582C237.597 176.62 238.043 177.016 238.468 177.395C238.573 177.487 238.678 177.584 238.788 177.677C238.716 177.749 238.645 177.824 238.573 177.896C238.161 178.321 237.774 178.726 237.319 178.978C237.117 179.092 236.815 179.105 236.575 179.105C236.444 179.105 236.31 179.101 236.179 179.096C236.041 179.092 235.898 179.088 235.763 179.088H235.658C235.363 179.096 235.065 179.096 234.77 179.096C234.408 179.096 234.046 179.096 233.685 179.088C233.319 179.088 232.957 179.084 232.591 179.084C231.615 179.084 230.462 179.105 229.314 179.252C228.376 179.374 227.501 179.812 226.655 180.238C226.293 180.419 225.923 180.604 225.557 180.76L224.972 181.009L225.427 181.451C225.704 181.72 225.969 182.032 226.247 182.361C226.886 183.115 227.547 183.894 228.422 184.18C230.088 184.728 231.838 185.069 233.533 185.406C234.543 185.604 235.586 185.81 236.596 186.055C236.949 186.143 237.298 186.404 237.669 186.686C237.732 186.737 237.799 186.787 237.866 186.838C237.799 186.931 237.736 187.019 237.673 187.112L237.664 187.12ZM207.034 165.563C203.757 165.563 200.543 165.593 197.565 165.626C195.693 165.647 193.804 165.938 192.68 167.922L192.546 168.158L192.706 168.377C193.762 169.813 195.318 171.46 198.023 171.46H198.078C200.993 171.435 203.955 171.431 206.82 171.426C209.495 171.422 212.167 171.418 214.842 171.397C217.105 171.38 218.818 170.335 220.404 168.015L220.677 167.61L220.24 167.395C219.815 167.189 219.407 166.945 219.011 166.705C218.145 166.182 217.324 165.69 216.437 165.669C213.568 165.597 210.492 165.563 207.034 165.563ZM234.354 166.406H234.774C235.771 166.406 236.773 166.422 237.774 166.439C238.779 166.456 239.785 166.473 240.79 166.473C242.46 166.473 243.827 166.422 245.085 166.317C246.751 166.178 248.67 165.445 250.218 164.359C251.067 163.76 251.48 162.973 251.354 162.198C251.219 161.364 250.508 160.698 249.41 160.374C247.487 159.801 245.952 159.532 244.568 159.519C243.39 159.511 242.212 159.506 241.034 159.506C236.587 159.506 232.195 159.578 227.98 159.713C226.297 159.768 224.665 160.176 223.378 160.867C222.229 161.482 220.951 162.863 220.883 164.022C220.85 164.616 221.009 165.108 221.359 165.483C222.023 166.195 223.21 166.305 224.278 166.317C225.78 166.334 227.282 166.338 228.784 166.338C229.781 166.338 230.782 166.338 231.779 166.338C232.637 166.338 233.495 166.338 234.349 166.338V166.414L234.354 166.406ZM166.224 159.679C164.919 159.679 163.577 160.214 162.681 160.614C161.646 161.077 161.024 161.831 160.969 162.686C160.914 163.516 161.415 164.321 162.345 164.894C163.746 165.757 165.256 166.275 166.594 166.351C167.881 166.427 169.282 166.46 170.998 166.46C171.983 166.46 172.967 166.448 173.952 166.439C174.932 166.427 175.916 166.418 176.896 166.418H177.317V166.41C177.889 166.41 178.465 166.41 179.038 166.414C179.753 166.414 180.468 166.418 181.183 166.418C182.134 166.418 183.085 166.414 184.035 166.397C184.368 166.393 184.696 166.389 185.028 166.389C186.446 166.38 187.914 166.372 189.328 166.098C190.253 165.917 191.709 164.957 191.826 164.001C191.948 162.99 190.939 161.705 190.156 161.166C189.26 160.547 187.998 160.155 186.77 160.113C179.538 159.877 172.828 159.734 166.257 159.679H166.215H166.224ZM193.635 153.033C191.305 153.033 188.974 153.033 186.644 153.037C184.713 153.037 182.243 153.378 180.291 155.985L179.828 156.604L180.598 156.659C180.952 156.684 181.259 156.71 181.541 156.731C182.088 156.773 182.529 156.811 182.971 156.828C187.153 156.996 191.869 157.544 194.851 161.89C195.184 162.379 196.012 162.644 196.622 162.644C199.087 162.653 201.553 162.661 204.014 162.661C208.305 162.661 212.209 162.644 215.953 162.602C216.617 162.594 217.572 162.232 218.018 161.638C220.046 158.929 222.894 157.434 226.722 157.063C227.892 156.95 229.061 156.832 230.332 156.701L233.129 156.419L232.557 155.8C230.82 153.917 228.847 153.028 226.344 152.999C225.809 152.995 225.271 152.99 224.737 152.99C223.5 152.99 222.263 153.003 221.022 153.016C219.785 153.028 218.553 153.041 217.316 153.041C213.395 153.041 209.487 153.037 205.579 153.033C201.595 153.028 197.611 153.024 193.627 153.024L193.635 153.033ZM170.902 156.36C171.604 156.36 172.18 156.381 172.719 156.423C172.912 156.44 173.102 156.448 173.287 156.448C174.873 156.448 176.089 155.863 177.229 154.545C179.702 151.689 182.874 150.181 186.66 150.055H186.934C187.174 150.055 187.578 150.055 187.792 149.764L187.88 149.646C188.288 149.099 188.747 148.479 188.856 147.784C188.89 147.578 188.806 147.359 188.604 147.115C188.352 146.811 187.767 146.327 187.258 146.306L186.963 146.298C185.579 146.247 184.153 146.197 182.744 146.197C181.452 146.197 180.308 146.239 179.252 146.327C177.75 146.453 176.19 147.043 175.184 147.869C173.22 149.478 171.343 151.247 169.526 152.961C168.794 153.652 168.066 154.338 167.326 155.021L167.082 155.248L167.725 156.402H167.974C168.466 156.402 168.954 156.394 169.446 156.385C169.93 156.377 170.418 156.368 170.902 156.368V156.36ZM229.377 146.129C228.317 146.129 227.269 146.171 226.272 146.255C225.671 146.306 225.187 146.774 224.716 147.228C224.526 147.414 224.345 147.586 224.169 147.721L223.761 148.037L224.152 148.374C224.329 148.526 224.505 148.724 224.699 148.934C225.17 149.448 225.654 149.983 226.264 150.004C229.831 150.139 232.86 151.672 235.805 154.823L235.931 154.962C236.457 155.53 237.109 156.238 237.849 156.293C238.682 156.36 239.6 156.39 240.731 156.39C241.32 156.39 241.913 156.381 242.502 156.373C243.091 156.364 243.676 156.356 244.261 156.356H244.501L245.22 155.151L244.959 154.92C244.164 154.216 243.377 153.509 242.591 152.801C240.538 150.96 238.417 149.052 236.23 147.3C235.275 146.533 233.802 146.336 232.625 146.251C231.518 146.171 230.429 146.129 229.381 146.129H229.377Z" fill="white"/>
<path d="M285.309 190.835C283.404 190.835 281.525 190.411 279.729 189.575C272.477 186.2 267.104 180.945 263.758 173.951C263.543 173.502 263.488 173.128 263.59 172.847C263.699 172.545 263.99 172.306 264.525 172.062C264.525 172.062 264.546 172.054 264.601 172.054C265.031 172.054 265.819 172.465 266.008 172.788C269.274 178.313 273.075 182.397 277.631 185.273C280.598 187.145 283.147 188.014 285.659 188.014C286.4 188.014 287.15 187.934 287.888 187.783C290.142 187.317 291.503 186.54 292.182 185.348C292.822 184.215 292.801 182.72 292.119 180.777C290.138 175.169 287.989 169.867 285.726 165.027C281.533 156.052 276.687 147.829 271.322 140.583C264.23 131 254.668 123.133 241.226 115.825C238.288 114.23 235.33 112.681 232.473 111.186C231.2 110.523 229.953 109.868 228.735 109.226L228.276 108.982L228.132 109.478C227.795 110.636 227.513 111.791 227.239 112.903C226.653 115.287 226.097 117.537 225.107 119.565C222.313 125.291 217.007 128.834 208.883 130.399C206.447 130.87 204.066 131.109 201.799 131.109C192.903 131.109 185.309 127.478 179.228 120.321C178.756 119.762 178.276 119.229 177.825 118.738C177.732 118.633 177.631 118.574 177.467 118.469C177.378 118.415 177.256 118.339 177.096 118.23L176.889 118.092L176.666 118.205C174.82 119.162 172.966 120.132 171.099 121.106C166.641 123.431 162.035 125.841 157.446 128.162C154.205 129.803 150.535 131.659 146.818 133.057C146.043 133.35 145.073 133.711 144.184 133.711C143.029 133.711 142.195 133.103 141.555 131.797L141.26 131.197L140.847 131.726C140.568 132.078 140.295 132.402 140.029 132.717C139.473 133.371 138.95 133.993 138.546 134.689C131.993 145.969 125.364 157.458 118.955 168.57L117.749 170.66C117.568 170.975 117.433 171.302 117.298 171.621C117.239 171.76 117.185 171.898 117.121 172.033C114.665 177.511 115.916 180.94 121.314 183.489C123.561 184.551 126.173 185.113 128.866 185.113C135.448 185.113 140.935 181.927 143.914 176.369C144.197 175.84 144.462 175.29 144.715 174.761C145.17 173.808 145.642 172.826 146.232 171.966C146.434 171.672 146.957 171.487 147.458 171.311C147.585 171.265 147.716 171.223 147.842 171.172C147.901 171.302 147.96 171.433 148.023 171.563C148.238 172.016 148.478 172.528 148.394 172.809C145.465 182.326 138.377 187.783 128.95 187.783C128.381 187.783 127.8 187.762 127.218 187.724C122.789 187.426 119.473 186.234 116.772 183.975C113.282 181.058 112.25 177.561 113.695 173.582C114.808 170.522 116.245 167.415 117.968 164.343C120.261 160.258 122.65 156.14 124.964 152.161C127.728 147.4 130.59 142.476 133.299 137.573C140.792 124.023 152.427 114.935 168.879 109.788C173.501 108.34 178.352 107.668 184.138 107.668C184.395 107.668 184.652 107.668 184.909 107.668C186.616 107.685 187.42 108.432 187.513 110.091L187.538 110.552L187.998 110.481C189.768 110.212 191.563 109.973 193.299 109.738C197.138 109.226 201.108 108.697 204.921 107.811C212.368 106.082 218.798 101.527 225.166 93.48C225.431 93.1442 225.676 92.7832 225.907 92.4348C226.341 91.7883 226.75 91.1796 227.285 90.7389C227.627 90.4576 228.187 90.3611 228.781 90.2603C228.912 90.2393 229.051 90.2142 229.182 90.189C229.203 90.3107 229.228 90.4324 229.249 90.5542C229.342 91.0285 229.447 91.5616 229.3 91.8093C223.097 102.3 214.964 108.483 204.441 110.712C200.859 111.472 197.197 112.173 193.657 112.849C190.779 113.398 187.804 113.969 184.884 114.565C183.935 114.758 183.038 115.128 182.085 115.514C181.643 115.695 181.184 115.883 180.703 116.06L180.252 116.224L180.471 116.647C180.577 116.849 180.665 117.038 180.75 117.218C180.922 117.584 181.087 117.928 181.314 118.238C185.983 124.594 193.952 128.389 202.629 128.389C208.904 128.389 214.77 126.34 219.148 122.617C222.974 119.363 224.845 115.073 224.702 109.868C224.69 109.369 224.517 108.903 224.352 108.453C224.247 108.164 224.146 107.887 224.087 107.614C224.057 107.471 224.024 107.316 223.982 107.152C223.893 106.774 223.737 106.09 223.779 105.863C224.247 105.519 225.01 105.179 225.6 105.179C225.722 105.179 225.827 105.196 225.916 105.225C228.668 106.14 230.792 107.043 232.595 108.071C234.534 109.175 236.48 110.267 238.427 111.358C244.567 114.796 250.914 118.348 256.826 122.319C265.574 128.196 272.877 136.427 279.809 148.219C285.549 157.983 291.339 168.607 294.795 180.122C295.107 181.159 295.3 182.166 295.372 183.111C295.608 186.133 294.411 188.123 291.617 189.374C289.477 190.331 287.353 190.818 285.309 190.818V190.835ZM173.518 111.463C161.908 114.284 152.347 120.245 145.103 129.182L144.917 129.413L145.625 130.559L175.693 115.258L175.275 114.267C175.014 113.646 174.74 112.983 174.45 112.328C174.374 112.16 174.273 112.03 174.15 111.875C174.096 111.803 174.032 111.724 173.961 111.627L173.796 111.4L173.522 111.467L173.518 111.463ZM176.974 110.813L178.571 114.045L183.581 111.56L183.194 110.204L176.974 110.808V110.813Z" fill="white"/>
<path d="M200.044 107.168C196.531 107.168 193.001 105.825 189.248 103.062C176.833 93.913 169.541 81.3525 167.578 65.734C167.46 64.7947 167.363 63.8344 167.271 62.9077C167.102 61.2313 166.925 59.4959 166.618 57.8069C166.424 56.7328 165.792 55.5155 164.933 54.5509C161.891 51.1349 158.66 47.0407 158.816 41.6787C158.883 39.2863 159.629 36.6958 160.855 34.5687C162.338 31.9909 162.654 29.8132 161.912 27.2818C160.665 23.0444 161.28 19.0429 163.732 15.3868C166.095 11.8697 169.111 10.0079 172.465 10.0079C174.424 10.0079 176.496 10.6271 178.623 11.8528C180.422 12.8848 181.791 13.3481 183.063 13.3481C184.782 13.3481 186.349 12.4973 188.3 10.5092C189.041 9.75522 189.766 8.95914 190.465 8.19253C191.666 6.87415 192.908 5.50521 194.26 4.32583C197.534 1.45739 201.051 0 204.712 0C208.373 0 211.654 1.33524 214.932 3.9678C219.978 8.02405 223.386 13.702 225.661 21.8397C226.36 24.3417 227.022 26.8732 227.721 29.5521C228.054 30.8242 228.395 32.1383 228.761 33.5115L229.17 35.0489L229.579 33.5115C231.428 26.5278 231.268 21.1953 229.065 16.225C228.976 16.0228 229.229 15.4753 229.414 15.0709C229.473 14.9445 229.532 14.8182 229.587 14.6918C229.756 14.7592 229.928 14.8182 230.101 14.8771C230.657 15.0709 231.285 15.2941 231.432 15.5974C233.311 19.4515 234.036 23.4909 233.581 27.6103C233.581 27.6272 233.568 27.6482 233.564 27.6693L233.538 27.7409C232.683 30.643 232.801 32.9302 236.167 34.6572C239.609 36.422 240.245 40.1708 240.422 43.9575C240.818 52.546 239.781 59.4327 237.153 65.6245L237.128 65.6877C235.872 68.6488 234.684 71.4456 231.575 72.8441C230.901 73.1473 230.623 74.154 230.396 74.9585L230.371 75.0512C227.144 86.5587 221.68 95.1598 213.664 101.347C211.292 103.18 208.516 104.789 205.63 106.01C203.794 106.785 201.919 107.181 200.057 107.181L200.044 107.168ZM180.894 38.6039C177.469 38.6039 174.735 40.512 172.772 44.2818C172.132 45.5117 171.656 46.7206 171.353 47.8789C169.529 54.8921 169.402 62.1706 170.965 69.5081C173.72 82.4013 180.148 92.6957 190.073 100.105C193.679 102.796 197.028 104.106 200.314 104.106C203.612 104.106 206.987 102.784 210.626 100.067C221.924 91.6385 227.616 80.3669 228.028 65.6035V65.574V65.5445C227.953 64.8958 227.877 64.1461 227.797 63.3247C227.59 61.2481 227.333 58.6619 226.878 56.1304C225.644 49.2563 223.032 43.9617 218.896 39.9433C217.173 38.2711 215.879 37.5888 214.43 37.5888C213.44 37.5888 212.341 37.9089 210.871 38.6334C210.125 38.9998 209.379 39.3958 208.659 39.7791C208.027 40.116 207.395 40.4488 206.759 40.7689C203.604 42.3485 200.491 43.1488 197.513 43.1488C195.861 43.1488 194.206 42.9045 192.588 42.4243C190.785 41.8893 189.007 41.1185 187.284 40.3772C186.724 40.1371 186.164 39.8928 185.599 39.6611C183.927 38.9619 182.343 38.6123 180.89 38.6123L180.894 38.6039ZM231.853 36.4473C231.752 40.3309 232.224 44.1891 232.683 47.9253C233.442 54.1255 234.158 59.9845 232.498 65.9994L232.27 66.825L233.062 66.5006C233.53 66.3111 233.804 66.0626 233.981 65.6793C237.477 58.0343 238.615 49.7491 237.359 41.0553C237.01 38.6418 235.341 36.9612 232.397 36.0598L231.866 35.8955L231.853 36.4515V36.4473ZM214.75 34.6993C216.983 34.6993 218.997 35.6933 221.09 37.8331C222.885 39.6696 224.414 41.7251 225.505 43.7764C226.642 45.9119 227.552 48.1401 228.517 50.4947C228.926 51.4971 229.351 52.5291 229.793 53.5611L230.598 53.3547C230.556 52.904 230.531 52.4491 230.505 52.011C230.455 51.0464 230.409 50.1324 230.16 49.2437L229.124 45.5244C226.529 36.203 223.845 26.5657 221.01 17.1432C219.961 13.6514 217.8 10.4207 214.413 7.25745C211.246 4.30477 207.993 2.80526 204.746 2.80526C201.498 2.80526 198.081 4.41007 194.951 7.57757C194.151 8.3905 193.372 9.24556 192.622 10.0711C191.661 11.1326 190.663 12.2277 189.618 13.226C187.567 15.1846 185.465 16.1366 183.194 16.1366C181.724 16.1366 180.191 15.749 178.501 14.9487C177.848 14.637 177.195 14.2917 176.559 13.9547C176.214 13.7694 175.868 13.5882 175.523 13.4113C174.617 12.9438 173.733 12.7163 172.819 12.7163C171.904 12.7163 171.053 12.9269 170.127 13.365C165.59 15.5005 163.134 20.8962 164.537 25.6517C165.72 29.6574 165.362 32.7954 163.42 35.5249C160.05 40.255 161.196 46.6616 166.268 51.4761L166.723 51.9057L166.95 51.3202C167.334 50.343 167.688 49.3532 168.029 48.397C168.791 46.2657 169.516 44.2523 170.514 42.3527C172.734 38.1448 176.505 35.7355 180.856 35.7355C182.693 35.7355 184.576 36.1567 186.45 36.9822C188.237 37.7699 190.212 38.5786 192.5 39.4505C194.126 40.0739 195.802 40.3856 197.487 40.3856C199.564 40.3856 201.713 39.9054 203.865 38.9577C205.259 38.3428 206.641 37.6435 207.977 36.9654C208.562 36.6705 209.143 36.3715 209.733 36.0809C211.612 35.15 213.255 34.6993 214.755 34.6993H214.75Z" fill="white"/>
<path d="M248.429 295.402C247.919 295.402 247.354 295.123 246.755 294.824C246.604 294.748 246.452 294.672 246.296 294.6C246.393 294.436 246.486 294.267 246.578 294.099C246.873 293.559 247.24 292.893 247.565 292.817C251.284 291.94 255.251 291.055 259.27 290.646C265.072 290.06 270.983 289.575 276.701 289.103C280.609 288.782 284.649 288.449 288.62 288.091C300.553 287.007 309.483 284.098 316.715 278.942C324.861 273.132 329.474 266.251 330.819 257.903C331.801 251.798 330.292 246.035 326.577 241.675C322.816 237.261 317.275 234.828 310.984 234.828C310.795 234.828 310.609 234.828 310.419 234.837C310.221 234.828 310.002 234.828 309.783 234.828C305.204 234.828 300.684 236.312 295.552 239.491C294.325 240.255 293.098 241.018 291.871 241.785C283.78 246.836 275.415 252.055 266.539 256.057C254.391 261.525 241.211 266.07 226.238 269.945C224.159 270.484 222.077 271.112 220.057 271.724C218.834 272.095 217.573 272.474 216.33 272.833L216.127 272.892C215.596 273.048 215.048 273.204 214.554 273.204C214.457 273.204 214.36 273.199 214.268 273.183C213.812 273.115 213.163 272.681 213.074 272.381C212.977 272.057 213.256 271.26 213.521 271.104C214.55 270.505 215.781 269.991 217.282 269.527C221.212 268.317 225.218 267.128 229.097 265.977C237.117 263.595 245.415 261.133 253.455 258.359C266.037 254.016 278.484 247.498 292.626 237.851C298.31 233.973 304.183 232.008 310.082 232.008C311.925 232.008 313.805 232.202 315.665 232.581C322.597 233.998 328.133 237.881 331.253 243.514C334.516 249.412 334.841 256.6 332.164 263.755C328.651 273.145 321.922 280.139 311.596 285.139C302.539 289.524 292.668 290.448 283.126 291.341C273.07 292.282 262.904 293.357 253.417 294.377C252.604 294.466 251.807 294.681 251.039 294.887C250.171 295.123 249.348 295.342 248.509 295.397C248.484 295.397 248.455 295.397 248.429 295.397V295.402Z" fill="white"/>
<path d="M281.383 239.846C277.58 239.846 274.147 238.266 271.187 235.146C264.862 228.48 259.958 220.088 255.758 208.739C255.648 208.446 255.483 207.999 255.551 207.815C255.77 207.217 256.07 206.652 256.386 206.058C256.432 205.97 256.483 205.878 256.529 205.791C256.656 205.878 256.782 205.962 256.905 206.046C257.411 206.384 257.933 206.732 258.081 207.125C261.851 217.228 266.152 224.872 271.626 231.186C272.983 232.754 274.763 233.975 276.479 235.159C277.108 235.593 277.761 236.041 278.373 236.492C278.723 236.752 279.165 236.814 279.634 236.881C279.849 236.911 280.076 236.944 280.304 236.998L280.646 236.25C271.077 229.405 264.642 219.753 259.789 204.954C258.899 202.245 258.811 199.196 258.722 196.248C258.701 195.474 258.676 194.705 258.638 193.944C258.604 193.258 258.945 192.522 259.308 191.74C259.477 191.376 259.65 191.004 259.785 190.628L260.033 190.168C262.142 188.345 263.652 187.567 265.073 187.567C266.582 187.567 268.13 188.453 270.251 190.536L270.943 191.218C276.403 196.583 282.05 202.132 287.342 207.819C291.217 211.984 293.735 216.86 294.823 222.317C294.886 222.639 294.937 222.961 294.987 223.283C295.08 223.881 295.177 224.499 295.358 225.106L295.818 226.628L296.172 225.076C297.045 221.267 296.472 217.303 294.418 212.966C291.664 207.158 287.182 202.144 280.312 197.185C280.093 197.026 279.865 196.879 279.638 196.729C279.098 196.378 278.592 196.043 278.225 195.612C277.862 195.182 277.685 194.4 277.791 194.212C277.934 193.961 278.6 193.639 279.144 193.639C279.174 193.639 279.203 193.639 279.233 193.639C280 193.701 280.797 194.145 281.333 194.504C289.851 200.237 295.333 206.87 298.082 214.777C299.967 220.201 299.697 225.67 297.315 230.182C295.004 234.561 290.825 237.78 285.546 239.252C284.124 239.65 282.724 239.85 281.379 239.85L281.383 239.846ZM264.63 190.64C264.406 190.64 264.212 190.691 264.061 190.787C262.901 191.531 261.636 193.02 261.471 194.429C261.164 197.051 261.277 199.593 261.796 201.78C264.039 211.198 268.581 219.833 275.682 228.175C277.095 229.835 278.967 231.374 280.949 232.499C282.724 233.511 284.382 234.021 285.874 234.021C289.176 234.021 291.424 231.47 292.031 227.029C292.107 226.477 292.141 225.921 292.158 225.624L292.17 225.428V225.403C291.93 219.757 290.15 215.287 286.57 211.344C281.624 205.891 276.281 200.63 271.12 195.546C269.943 194.387 268.762 193.225 267.59 192.062C266.911 191.389 265.499 190.636 264.63 190.636V190.64Z" fill="white"/>
<path d="M125.804 236.574C120.522 236.574 116.606 234.082 113.836 228.952C110.698 223.14 111.116 217.081 115.054 211.432C116.915 208.764 119.376 206.193 122.176 204.002C127.247 200.034 132.66 196.313 137.9 192.717L138.391 192.378C140.239 191.107 142.269 190.057 144.252 189.334C145.094 189.029 145.936 188.874 146.752 188.874C150.123 188.874 152.609 191.462 152.795 195.167C152.977 198.784 152.368 202.405 150.93 206.243C148.274 213.322 144.227 219.895 138.564 226.338C138.128 226.836 137.714 227.325 137.342 227.798C137.223 227.948 137.211 228.107 137.194 228.329C137.185 228.442 137.177 228.596 137.147 228.814L137.025 229.842L137.837 229.186C144.295 223.959 149.311 217.574 153.172 209.663C153.354 209.291 153.519 208.907 153.679 208.535C154.018 207.748 154.339 207.004 154.8 206.36C155.033 206.038 155.506 205.821 156.005 205.595C156.103 205.549 156.2 205.507 156.301 205.457C156.356 205.587 156.411 205.712 156.466 205.842C156.695 206.356 156.927 206.887 156.826 207.201C156.014 209.697 155.13 211.817 154.123 213.678C149.577 222.103 144.096 228.417 137.363 232.983C133.882 235.341 130.029 236.553 125.914 236.583H125.8L125.804 236.574ZM146.65 191.809C145.758 191.809 144.667 192.135 143.305 192.8L142.979 192.959C142.506 193.185 142.019 193.419 141.579 193.733C139.812 194.991 138.035 196.237 136.255 197.483C131.514 200.807 126.612 204.244 122.002 207.895C119.139 210.161 117.13 213.402 115.946 215.722C112.893 221.71 115.181 229.127 121.161 232.61C122.438 233.355 123.588 233.719 124.671 233.719C125.978 233.719 127.209 233.192 128.431 232.113C133.527 227.614 139.934 221.446 144.303 213.652C146.989 208.861 149.865 203.379 149.991 198.918C150.055 195.606 149.619 193.595 148.617 192.583C148.109 192.069 147.445 191.809 146.65 191.809Z" fill="white"/>
<path d="M356.221 182.334C349.943 181.971 345.281 180.29 341.555 177.046C338.355 174.259 337.261 171.222 338.213 167.759C339.341 163.653 342.107 161.178 346.43 160.393C347.432 160.211 348.427 160.118 349.383 160.118C355.657 160.118 360.632 163.932 363.385 170.859C364.149 172.785 364.738 174.829 365.302 176.81C365.498 177.49 365.691 178.17 365.895 178.85C366.025 179.281 366.012 179.614 365.862 179.876C365.661 180.223 365.206 180.472 364.463 180.645C362.503 181.097 360.49 181.494 358.548 181.874C357.771 182.026 356.994 182.182 356.221 182.339V182.334ZM356.505 179.378C356.722 179.378 357.599 179.386 357.821 179.386C358.084 179.386 358.347 179.386 358.606 179.374C360.089 179.323 360.883 179.205 361.363 178.656C361.839 178.115 361.873 177.287 361.764 175.944C361.488 172.455 360.114 169.309 357.683 166.597C355.394 164.042 352.591 162.745 349.358 162.745C348.702 162.745 348.021 162.8 347.332 162.906C344.279 163.383 341.43 165.879 340.841 168.587C340.093 172.033 342.198 174.149 344.112 175.606C347.441 178.14 351.405 179.374 356.221 179.374H356.505V179.378Z" fill="white"/>
<path d="M271.915 330.693C260.525 329.855 248.427 328.808 236.717 326.059C235.212 325.707 234.396 325.443 234.119 324.982C233.837 324.521 233.98 323.641 234.32 322.28C236.591 313.192 240.215 306.63 245.736 301.628C246.27 301.146 246.947 300.794 247.511 300.714C249.718 300.404 251.922 300.09 254.129 299.776C262.959 298.519 272.092 297.224 281.099 296.173C281.767 296.093 282.453 296.055 283.138 296.055C286.38 296.055 289.79 296.902 293.881 298.72C300.167 301.515 303.001 306.639 302.543 314.386C302.026 323.143 296.917 328.221 287.355 329.474C283.836 329.935 280.216 330.157 276.717 330.37C275.145 330.467 273.517 330.567 271.92 330.685L271.915 330.693Z" fill="white"/>
<path d="M227.69 50.8256C226.674 48.7341 225.718 46.757 224.533 44.8471C223.373 42.9844 221.788 41.1376 219.944 39.5039C217.693 37.511 215.534 36.6192 213.155 36.6941C211.587 36.7454 209.905 37.2308 208.014 38.174C207.458 38.4542 206.901 38.7383 206.349 39.0224C205.095 39.6657 203.804 40.3286 202.499 40.9127C200.562 41.7808 198.625 42.2544 196.738 42.3136C195.217 42.3649 193.692 42.1478 192.201 41.6743C189.987 40.9679 188.067 40.3128 186.337 39.6696C184.4 38.9514 182.467 38.616 180.585 38.6791C176.09 38.8251 172.287 41.252 170.158 45.3403C169.232 47.1162 168.599 48.963 167.928 50.9164C167.694 51.5991 167.452 52.3015 167.197 53C162.842 49.1564 161.755 44.0736 164.508 40.1984C166.432 37.4913 166.7 34.4685 165.34 30.688C163.955 26.8246 165.961 22.3259 169.903 20.4396C170.672 20.0726 171.403 19.8832 172.13 19.8595C172.856 19.8358 173.613 19.9858 174.377 20.3212C174.713 20.4672 175.049 20.6211 175.384 20.7711C176.013 21.0552 176.663 21.3512 177.317 21.6156C179.081 22.3219 180.682 22.6416 182.22 22.5942C184.625 22.5153 186.796 21.5248 188.857 19.5635C189.847 18.6204 190.777 17.5983 191.678 16.6117C192.366 15.854 193.08 15.0727 193.811 14.3347C196.564 11.5605 199.487 10.1044 202.504 10.0057C205.52 9.90706 208.409 11.087 211.396 13.4981C214.651 16.1263 216.762 18.8413 217.841 21.801C220.883 30.1236 223.79 38.6515 226.598 46.8952L227.72 50.1863C227.856 50.5888 227.941 51.0111 228 51.4531C227.898 51.24 227.796 51.0308 227.694 50.8217L227.69 50.8256Z" fill="white"/>
<path d="M284.793 233.964C283.471 233.964 281.976 233.486 280.355 232.547C278.486 231.465 276.72 229.99 275.39 228.396C268.477 220.132 264.06 211.592 261.883 202.28C261.393 200.175 261.285 197.726 261.58 195.198C261.709 194.096 262.785 192.783 263.757 192.154C263.757 192.154 263.786 192.142 263.865 192.142C264.426 192.142 265.623 192.75 266.196 193.328C267.355 194.494 268.514 195.659 269.678 196.821C274.759 201.911 280.01 207.177 284.871 212.627C288.303 216.476 289.94 220.657 290.173 226.174C290.173 226.212 290.169 226.271 290.165 226.338C290.148 226.623 290.119 227.159 290.048 227.684C289.5 231.738 287.639 233.968 284.805 233.968L284.793 233.964Z" fill="white"/>
<path d="M125.458 233.969C124.538 233.969 123.543 233.64 122.41 232.971C116.879 229.69 114.755 222.705 117.577 217.067C118.71 214.806 120.629 211.652 123.342 209.462C127.878 205.799 132.715 202.346 137.394 199.007C139.154 197.752 140.914 196.493 142.661 195.226C143.038 194.952 143.464 194.746 143.92 194.523L144.25 194.358C145.479 193.744 146.441 193.449 147.189 193.449C147.749 193.449 148.188 193.621 148.535 193.975C149.346 194.809 149.714 196.695 149.656 199.744C149.535 204.043 146.742 209.454 144.137 214.195C139.877 221.934 133.606 228.078 128.623 232.566C127.573 233.51 126.54 233.969 125.462 233.969H125.458Z" fill="white"/>
</svg>
