<svg width="454" height="574" viewBox="0 0 454 574" fill="none" xmlns="http://www.w3.org/2000/svg">
<path d="M179.662 27.4744C180.014 27.6367 187.437 23.8103 192.656 24.9596C201.214 26.8389 205.77 32.8015 209.056 39.8322C211.909 45.8624 214.586 52.0007 217.614 57.9362C219.791 62.2493 221.955 69.5639 220.319 74.7828C218.493 80.6508 213.166 80.7319 208.312 81.2592C196.387 82.6112 184.841 88.4386 171.915 84.5988C168.778 83.6659 148.295 82.0163 147.997 77.8385C146.591 57.3954 154.311 15.5493 179.662 27.4744ZM171.077 63.6013C171.82 64.2233 172.267 66.1297 172.686 67.022C176.918 79.488 189.546 84.423 197.536 73.3902C202.823 66.0891 202.945 57.6793 202.945 49.0532C202.945 49.0532 189.627 49.905 182.218 40.3865C182.218 40.3865 176.093 53.6097 170.374 52.0683C169.533 51.868 168.657 51.866 167.815 52.0627C166.973 52.2594 166.189 52.6493 165.524 53.2015C164.859 53.7537 164.331 54.4531 163.983 55.2444C163.635 56.0357 163.476 56.8971 163.519 57.7605C163.532 62.7631 168.373 61.3434 171.077 63.6013Z" fill="#0F172A"/>
<path d="M171.686 62.8713C171.87 63.2964 171.936 63.7638 171.875 64.2233C171.875 64.6019 171.875 64.9399 171.794 65.2779C171.707 65.9647 171.707 66.6598 171.794 67.3466C171.874 68.0146 172.01 68.6749 172.2 69.3206C172.404 69.9993 172.676 70.656 173.011 71.281C174.037 73.5063 175.512 75.4956 177.343 77.1242C179.174 78.7528 181.322 79.9856 183.651 80.7454C186.141 81.466 188.793 81.3904 191.237 80.5291C193.595 79.6275 195.707 78.1822 197.402 76.3107C200.142 73.2157 202.095 69.5052 203.094 65.4942C204.003 61.6121 204.457 57.6373 204.446 53.6502V51.3788V47.3902C203.5 47.3902 202.54 47.4849 201.62 47.4849H200.714H200.025C199.106 47.4173 198.2 47.2956 197.321 47.1468C195.521 46.8009 193.76 46.2801 192.061 45.592C190.374 44.9551 188.774 44.1054 187.302 43.0636L186.22 42.2524L185.247 41.3465L184.99 41.1167H184.922C184.865 41.0661 184.811 41.0119 184.76 40.9544L184.53 40.6975L183.611 39.6565L181.799 37.4796L180.542 40.1838C180.136 40.995 179.555 42.0496 179.42 42.293C178.933 43.1312 178.433 43.956 177.905 44.7537C176.91 46.3219 175.724 47.7615 174.376 49.0397C173.791 49.5945 173.12 50.051 172.389 50.3918C172.096 50.5141 171.786 50.5916 171.469 50.6216C171.326 50.6352 171.181 50.6352 171.037 50.6216L170.401 50.4999C169.17 50.2982 167.907 50.4003 166.724 50.7974C165.508 51.1911 164.426 51.917 163.601 52.8931C162.823 53.8216 162.297 54.9343 162.073 56.1245C161.809 57.2814 161.809 58.4829 162.073 59.6398C162.229 60.3282 162.534 60.9742 162.965 61.5327C163.4 62.0816 163.937 62.5407 164.547 62.8848C165.505 63.3573 166.511 63.7245 167.549 63.9799C168.116 64.1557 168.657 64.3856 169.076 64.5072C169.484 64.6712 169.939 64.6712 170.347 64.5072C170.631 64.3315 170.78 63.9664 170.469 63.358C170.307 63.1281 170.144 62.736 169.861 62.6279C168.586 62.1501 167.359 61.5526 166.196 60.8432C165.785 60.5584 165.454 60.1718 165.236 59.721C165.065 59.2898 164.969 58.8325 164.953 58.3689C164.897 57.804 164.929 57.2339 165.047 56.6788C165.143 56.1016 165.355 55.5497 165.669 55.0564C165.979 54.6407 166.367 54.2904 166.813 54.0258C167.258 53.7613 167.752 53.5877 168.265 53.515C168.78 53.4262 169.306 53.4262 169.82 53.515H169.996L170.347 53.5961C170.587 53.6493 170.832 53.681 171.077 53.6908C171.576 53.7236 172.076 53.6872 172.565 53.5826C174.24 53.1451 175.77 52.2729 176.999 51.0543C178.741 49.3626 180.234 47.4325 181.434 45.3216L182.029 44.267L182.313 43.7397C182.388 43.6132 182.456 43.4822 182.516 43.3476C182.508 43.2711 182.508 43.1941 182.516 43.1177C182.516 43.1177 182.597 43.1177 182.665 43.1177L183.07 43.4693L183.881 44.1858C185.459 45.5023 187.2 46.6111 189.06 47.4849C190.871 48.4051 192.774 49.1303 194.738 49.6481C195.973 49.9411 197.223 50.1623 198.484 50.3107C199.16 50.3918 199.836 50.4594 200.606 50.4999H201.472C201.479 50.6035 201.479 50.7074 201.472 50.8109V52.3523C201.472 53.5421 201.472 54.7995 201.35 56.0975C201.235 58.8649 200.846 61.6141 200.187 64.3044C199.463 67.1385 198.24 69.8212 196.577 72.2275C195.037 74.5777 192.822 76.4066 190.223 77.4735C187.853 78.2786 185.267 78.1677 182.975 77.1625C180.991 76.2938 179.233 74.9799 177.838 73.3227L176.972 72.2681L176.296 71.2405C175.914 70.6814 175.575 70.0938 175.282 69.4828C174.959 68.8908 174.679 68.2763 174.444 67.644C174.309 67.333 174.174 67.0356 174.011 66.7246C173.849 66.4136 173.795 66.319 173.727 66.1838L173.484 65.6835C173.295 65.3185 173.105 64.9264 172.862 64.4667C172.579 63.8623 172.18 63.32 171.686 62.8713Z" fill="#0F172A"/>
<path d="M179.676 27.4474C179.75 27.3168 179.794 27.1717 179.806 27.0222C179.817 26.8727 179.796 26.7225 179.744 26.582C179.744 26.582 179.635 26.582 179.595 26.582H179.757C179.892 26.5897 180.028 26.5897 180.163 26.582C180.433 26.582 180.717 26.582 181.015 26.582C181.582 26.582 182.15 26.582 182.732 26.4739L186.152 26.1494C188.324 25.7989 190.541 25.8447 192.696 26.2846C196.363 27.2226 199.665 29.2383 202.174 32.0714C204.71 34.9901 206.739 38.3124 208.177 41.9008L213.275 52.866L215.83 58.3418C216.685 60.0491 217.39 61.8268 217.939 63.6554C218.957 66.6999 219.285 69.9329 218.899 73.1198C218.711 74.522 218.125 75.8408 217.209 76.9191C216.213 77.9198 214.943 78.6021 213.559 78.8796C211.946 79.2387 210.311 79.4827 208.664 79.6097C206.906 79.8125 205.135 80.0964 203.405 80.4209C199.943 81.0969 196.644 81.9623 193.237 82.7059C189.516 83.5921 185.716 84.1129 181.893 84.2607C180.947 84.2607 180 84.2607 179.054 84.2607C178.108 84.2607 177.175 84.1391 176.255 83.9498C175.343 83.8144 174.44 83.6248 173.551 83.3819C172.554 83.1037 171.543 82.878 170.523 82.7059C166.548 82.0569 162.667 81.5566 158.841 80.7995C156.951 80.4524 155.083 80.0011 153.243 79.4474C152.387 79.1869 151.554 78.8521 150.756 78.4469C150.44 78.29 150.145 78.0947 149.877 77.8655C149.66 77.6492 149.687 77.6762 149.674 77.5951C149.442 73.7164 149.487 69.8262 149.809 65.9539C150.101 62.0481 150.638 58.1645 151.418 54.3262C152.77 47.566 154.839 40.8057 158.489 35.2352C160.138 32.5883 162.39 30.3691 165.06 28.7589C166.368 28.0477 167.784 27.5588 169.252 27.3122C170.735 27.1121 172.241 27.1486 173.713 27.4203C174.727 27.5555 175.742 27.9882 176.701 28.1775C179.23 28.9752 180.271 28.5155 178.567 27.1229C178.175 26.7344 177.718 26.4185 177.215 26.19C174.822 25.2526 172.292 24.7092 169.725 24.581C166.967 24.5104 164.26 25.3307 162.005 26.9201C159.816 28.5264 157.91 30.4868 156.367 32.7204C154.851 34.8843 153.547 37.1889 152.473 39.6023C150.369 44.3718 148.8 49.3598 147.795 54.475C146.989 58.5488 146.465 62.6733 146.226 66.8192C146.033 70.4871 146.083 74.1637 146.375 77.825C146.469 78.5584 146.791 79.2439 147.294 79.7854C147.692 80.1929 148.147 80.5392 148.646 80.813C149.442 81.2616 150.274 81.6416 151.134 81.9487C154.35 82.985 157.647 83.7494 160.991 84.2337C163.289 84.6393 165.912 85.0044 168.738 85.437C169.441 85.5452 170.158 85.6534 170.847 85.7886C171.226 85.7886 171.401 85.9103 171.834 86.0184L173.01 86.3159C173.81 86.5332 174.623 86.7003 175.444 86.8161C176.285 86.9688 177.133 87.0726 177.986 87.1271C181.6 87.397 185.234 87.2107 188.802 86.5728C192.48 85.9643 196.198 85.0314 199.97 84.1796C201.85 83.7605 203.743 83.3414 205.649 83.0439C207.555 82.7464 209.448 82.5436 211.517 82.3138C213.733 82.1347 215.886 81.4848 217.831 80.4074C219.836 79.099 221.264 77.0715 221.82 74.7423C222.35 72.6218 222.483 70.4213 222.212 68.2524C221.964 66.1889 221.511 64.1553 220.86 62.1817C220.238 60.2642 219.469 58.3973 218.561 56.5977C217.75 54.8806 216.939 53.177 216.154 51.5004C214.573 48.1473 213.058 44.9159 211.612 41.8603C210.325 38.8484 208.773 35.9571 206.974 33.2206C205.362 30.8167 203.333 28.7197 200.984 27.0282C199.121 25.6952 197.052 24.6767 194.86 24.0131C194.4 23.8509 193.954 23.7698 193.508 23.6616C192.728 23.4398 191.924 23.3127 191.114 23.283C190.79 23.2638 190.465 23.2638 190.141 23.283C189.448 23.2966 188.756 23.3599 188.072 23.4723C186.686 23.7031 185.327 24.0745 184.016 24.581C183.313 24.8514 182.583 25.1489 181.785 25.5004L180.568 26.0547L179.946 26.3387L179.649 26.4604H179.514H179.622V26.555C179.699 26.6897 179.743 26.8402 179.753 26.9949C179.762 27.1496 179.736 27.3044 179.676 27.4474Z" fill="#0F172A"/>
<path d="M150.795 95.5369C154.067 101.188 160.638 105.61 167.737 107.868C179.771 111.771 192.782 111.417 204.586 106.865C216.39 102.313 226.27 93.8406 232.568 82.8681C233.966 80.5504 235.19 78.1327 236.232 75.6346C236.746 74.3772 237.124 73.0657 237.584 71.7813C237.787 71.1458 238.017 70.4292 238.206 69.8478L238.679 67.8603L239.112 65.8728C239.274 65.2156 239.382 64.5464 239.436 63.8718L239.842 59.8156C239.923 58.4635 239.842 57.1115 239.842 55.7594C239.833 54.4018 239.729 53.0464 239.531 51.7033C239.219 49.0146 238.708 46.3528 238.003 43.7396L236.746 39.8863C236.34 38.5342 235.705 37.3985 235.204 36.1411C233.01 31.2234 230.153 26.6289 226.713 22.4853C226.024 21.5524 225.213 20.7277 224.442 19.8759C223.671 19.0241 222.901 18.1452 222.049 17.361C220.393 15.7577 218.656 14.2413 216.843 12.8181C213.219 9.94596 209.287 7.48376 205.121 5.47647C203.03 4.48712 200.881 3.62475 198.685 2.89404C197.602 2.4842 196.496 2.13661 195.373 1.85296L191.993 1.04173C187.433 0.0985938 182.764 -0.206282 178.121 0.135848C168.767 0.830292 159.816 4.22107 152.35 9.89769L150.998 10.9117C150.539 11.2633 150.119 11.6689 149.646 12.0475L147.05 14.346C146.19 15.1162 145.381 15.9428 144.63 16.8202L142.291 19.3621C141.493 20.2004 140.858 21.1874 140.141 22.0662C139.425 22.945 138.708 23.8915 138.1 24.8785L136.301 27.8665C136.018 28.3668 135.693 28.84 135.423 29.3673L134.679 30.9357C132.222 35.8453 130.553 41.1104 129.73 46.5384C129.568 47.8905 129.257 49.2425 129.217 50.5946L129 54.6507C128.996 57.3914 129.181 60.1291 129.555 62.8442C129.907 65.4428 130.422 68.0168 131.096 70.5509C131.475 71.8083 131.921 73.0387 132.326 74.2961C132.556 74.9045 132.718 75.5535 132.989 76.1484L133.8 77.9467L134.571 79.799C134.825 80.406 135.123 80.9935 135.463 81.5566L137.41 84.9909C138.086 86.1266 138.911 87.1542 139.655 88.2358L140.804 89.8447C141.209 90.3585 141.656 90.8453 142.088 91.3455C143.173 92.7406 144.386 94.0307 145.712 95.1989C149.2 98.0923 150.539 97.903 148.686 95.1989C148.306 94.5165 147.852 93.8773 147.334 93.2925C146.983 92.968 146.618 92.6435 146.293 92.292L145.387 91.1968L143.697 89.047C143.146 88.3403 142.653 87.5897 142.223 86.8026L140.871 84.5312C140.422 83.7679 140.02 82.9777 139.668 82.1651L138.492 79.7314C137.721 78.0683 137.14 76.2836 136.234 74.4719C133.497 67.5444 132.333 60.0954 132.827 52.6632C133.3 45.2677 135.347 38.0584 138.83 31.5171C141.704 26.3468 145.306 21.616 149.525 17.4692C154.839 12.0839 161.353 8.03428 168.534 5.65224C170.297 5.05222 172.106 4.59997 173.943 4.30018C175.242 4.01554 176.562 3.83469 177.891 3.75936C179.447 3.63435 181.009 3.60725 182.569 3.67824C190.927 3.88949 199.107 6.1456 206.392 10.2492C215.759 15.3739 223.587 22.9076 229.066 32.0714C232.013 37.0266 234.089 42.4502 235.204 48.1068C236.338 53.8351 236.37 59.7269 235.299 65.4672L234.839 67.6034C234.715 68.3166 234.53 69.0178 234.285 69.6991C233.825 71.0512 233.366 72.4032 232.933 73.7553L231.108 77.6763L230.661 78.6497L230.107 79.5691L228.998 81.4079L227.903 83.2467C227.525 83.8551 227.051 84.396 226.646 84.9638L224.104 88.344L221.278 91.5619L220.575 92.319C220.332 92.5624 220.061 92.7787 219.818 93.0086L218.29 94.3606C214.405 97.8074 209.996 100.614 205.229 102.676L203.553 103.433L201.836 104.028C200.686 104.393 199.591 104.839 198.469 105.15C196.299 105.732 194.095 106.184 191.871 106.502C184.868 107.559 177.721 107.145 170.887 105.285C170.265 105.123 169.643 105.001 169.089 104.812L167.507 104.244L164.938 103.325C163.586 102.743 162.68 102.284 162.41 102.189L159.841 101.053L157.137 99.6201C154.939 98.3933 152.822 97.0295 150.795 95.5369Z" fill="#0F172A"/>
<path d="M305.802 259.936C304.663 259.048 303.524 258.217 302.499 257.271L300.905 255.882L299.391 254.425C298.343 253.468 297.466 252.386 296.51 251.361C296.065 250.826 295.644 250.28 295.211 249.733L294.562 248.913L293.993 248.048C293.629 247.467 293.207 246.909 292.854 246.305L291.886 244.495C291.567 243.891 291.362 243.242 291.089 242.616C290.948 242.313 290.826 242.001 290.725 241.682L290.474 240.782C290.032 238.039 289.879 235.257 290.019 232.481C290.144 228.325 290.6 224.146 291.055 219.955C292.695 205.231 295.246 190.564 297.887 175.92L299.698 166.172C299.994 164.533 300.302 162.916 300.563 161.265L300.746 160.012C300.813 159.579 300.847 159.141 300.848 158.702C300.9 157.849 300.9 156.993 300.848 156.14C300.586 151.802 299.516 147.679 299.789 143.705C299.866 141.769 300.404 139.879 301.361 138.194C302.275 136.544 303.691 135.227 305.403 134.436C306.451 134.003 306.952 133.821 306.883 133.525C306.815 133.229 306.166 132.944 304.925 133.024C303.193 133.246 301.587 134.049 300.37 135.301C298.522 137.043 297.317 139.359 296.954 141.872C296.248 146.689 297.443 151.096 297.842 155.161C297.955 156.163 298.012 157.17 298.013 158.179C298.013 158.657 298.013 159.169 297.944 159.602C297.876 160.035 297.819 160.604 297.739 161.116C297.409 163.189 297.033 165.318 296.601 167.425C295.086 175.897 293.583 184.404 292.273 192.99C290.713 203.238 288.857 213.908 287.844 224.533C287.593 227.459 287.388 230.397 287.331 233.358C287.172 236.399 287.444 239.447 288.14 242.411C289.143 245.278 290.554 247.986 292.33 250.45C294.106 252.85 296.091 255.087 298.263 257.135C303.635 262.026 309.581 266.248 315.971 269.706C325.534 274.987 335.582 279.338 345.976 282.699C353.882 285.427 361.983 287.555 370.209 289.065L372.93 289.498L375.674 289.839C378.119 290.13 380.586 290.191 383.042 290.021C383.702 289.957 384.356 289.847 385.001 289.691C385.446 289.551 385.874 289.36 386.276 289.122C386.598 288.958 386.903 288.764 387.187 288.541C387.745 287.869 385.012 287.903 380.138 287.562C372.69 286.896 365.316 285.566 358.104 283.588C350.637 281.624 343.298 279.205 336.126 276.345C325.456 272.029 314.991 266.825 305.859 259.925L305.802 259.936Z" fill="#0F172A"/>
<path d="M280.533 114.064L305.824 131.487C308.159 133.092 302.579 132.511 301.497 131.771L276.206 114.349C273.871 112.732 279.451 113.324 280.533 114.064Z" fill="#0F172A"/>
<path d="M347.013 177.469L348.095 177.89L348.494 178.015L348.915 177.958C349.195 177.936 349.473 177.89 349.746 177.822C350.142 177.711 350.525 177.554 350.885 177.355C351.214 177.184 351.534 176.994 351.841 176.785C352.975 175.971 353.958 174.966 354.745 173.813C355.612 172.622 356.154 171.224 356.317 169.759C356.362 169.347 356.362 168.931 356.317 168.518L356.18 167.881C356.1 167.641 355.986 167.391 355.884 167.14C355.793 166.582 355.212 166.332 354.848 166.059L354.108 165.546L349.826 162.517L334.533 152.12C332.255 150.583 330.057 148.955 327.871 147.349C325.13 145.188 322.279 143.17 319.331 141.302C317.452 140.164 318.192 143.933 321.414 146.29C327.188 150.458 333.041 154.5 339.11 158.361C342.732 160.638 346.307 163.36 349.917 165.865L352.866 167.903L353.436 168.291C353.55 168.291 353.55 168.473 353.606 168.564C353.694 168.973 353.694 169.396 353.606 169.805C353.095 171.864 351.794 173.639 349.985 174.747C349.735 174.909 349.468 175.043 349.188 175.146C348.96 175.214 348.824 175.282 348.653 175.214L346.717 174.462L342.561 172.845C338.382 171.194 334.157 169.577 330.035 167.869C326.823 166.537 323.737 165.079 320.606 163.679C319.911 163.371 319.251 163.041 318.545 162.745C315.948 161.606 315.037 161.481 314.206 161.925C314.009 162.006 313.822 162.109 313.648 162.232C313.181 162.654 314.081 163.519 315.926 164.453C321.426 167.209 327.393 169.714 333.417 172.151L346.979 177.469H347.013Z" fill="#0F172A"/>
<path d="M278.176 148.135L283.391 150.298C284.017 150.572 284.609 150.913 285.247 151.164C287.525 152.086 289.745 152.963 291.977 153.897C292.968 154.307 293.924 154.796 294.87 155.286C296.032 156.02 297.283 156.602 298.593 157.017C299.436 157.211 299.595 154.364 298.183 153.669C295.679 152.407 293.083 151.338 290.417 150.469C288.806 149.868 287.228 149.18 285.691 148.408C283.949 147.657 282.207 146.928 280.464 146.131C279.394 145.664 278.312 145.22 277.253 144.741C275.636 144.024 273.996 143.341 272.436 142.555C271.218 141.952 270.091 141.2 268.929 140.517C268.679 140.369 268.439 140.198 268.166 140.061C267.187 139.537 266.788 139.56 266.264 140.061C266.151 140.187 266.014 140.3 265.911 140.437C265.57 140.904 265.786 141.576 266.447 142.02C268.492 143.469 270.674 144.716 272.96 145.744C274.668 146.552 276.376 147.304 278.141 148.078L278.176 148.135Z" fill="#0F172A"/>
<path d="M255.094 135.335C257.372 138.831 261.744 140.255 265.787 140.448L264.284 141.451C263.708 137.468 263.931 133.41 264.937 129.514C265.944 125.618 267.715 121.961 270.148 118.755C271.724 116.791 273.494 114.99 275.432 113.381C276.263 112.663 276.571 113.13 276.571 112.709C276.491 111.684 274.225 110.09 273.565 109.657C267.973 106.093 264.83 108.439 260.742 112.652C254.593 118.995 253.193 127.239 255.208 135.666C255.572 137.192 252.213 136.804 251.872 135.381C249.184 124.142 253.01 113.415 262.758 107.049C268.292 103.439 277.186 107.049 279.964 112.868C280.077 113.057 280.111 113.283 280.057 113.496C280.004 113.71 279.868 113.893 279.68 114.007C275.326 117.105 271.901 121.334 269.778 126.237C267.654 131.141 266.912 136.531 267.632 141.826C267.734 142.658 266.743 142.863 266.129 142.84C260.628 142.578 255.094 140.414 251.974 135.734C250.983 134.197 254.343 134.197 255.094 135.335Z" fill="#0F172A"/>
<path d="M312.235 136.474C312.747 136.668 311.825 136.372 311.666 136.338C311.149 136.226 310.622 136.176 310.094 136.19C309.211 136.221 308.358 136.518 307.647 137.042C306.936 137.566 306.399 138.293 306.108 139.127C305.79 139.913 303.831 139.332 304.138 138.592C305.664 134.926 309.604 134.231 313.066 135.484C314.353 135.95 313.203 136.827 312.235 136.474Z" fill="#0F172A"/>
<path d="M313.955 138H313.785C314.081 138.103 313.591 137.943 313.5 137.92C313.109 137.821 312.707 137.775 312.304 137.784C311.642 137.832 311.022 138.129 310.568 138.614C310.114 139.1 309.86 139.738 309.856 140.403C309.788 140.938 307.579 140.471 307.715 139.822C308.193 136.269 312.088 136.406 314.741 137.419C314.992 137.522 315.584 137.772 315.356 138.125C315.128 138.478 314.217 138.125 313.955 138.057V138Z" fill="#0F172A"/>
<path d="M316.951 139.742C316.714 139.558 316.429 139.443 316.131 139.412C314.901 139.298 314.126 140.551 313.728 141.462C313.455 142.111 311.348 141.462 311.576 140.893C311.82 140.122 312.315 139.455 312.981 138.997C313.647 138.539 314.447 138.317 315.254 138.365C316.307 138.415 317.332 138.724 318.237 139.264C319.456 140.027 317.554 140.118 316.951 139.742Z" fill="#0F172A"/>
<path d="M347.547 246.658C338.335 238.892 326.743 233.563 315.446 229.714C312.383 228.678 315.185 227.209 317.246 227.915C329.225 231.991 341.478 237.742 351.237 245.964C353.241 247.649 348.663 247.604 347.547 246.658Z" fill="#0F172A"/>
<path d="M319.215 207.691C319.318 205.231 319.375 202.783 319.409 200.346C319.409 199.446 319.5 198.558 319.5 197.67C319.5 194.527 319.386 191.384 319.306 188.253C319.306 186.852 319.306 185.463 319.306 184.073C319.432 182.297 319.386 180.512 319.17 178.744C318.976 177.605 316.676 179.12 316.699 181.135C316.699 184.734 316.824 188.321 317.109 191.953C317.268 194.128 317.109 196.383 317.109 198.604C317.109 201.041 317.018 203.477 316.915 205.926C316.847 207.418 316.79 208.921 316.665 210.424C316.505 212.701 316.312 214.979 315.947 217.188C315.646 218.888 315.243 220.569 314.74 222.221C314.638 222.585 314.512 222.938 314.421 223.303C314.023 224.647 314.068 225.113 314.615 225.58C314.732 225.696 314.858 225.802 314.991 225.899C315.435 226.184 315.981 225.728 316.403 224.76C317.567 221.663 318.332 218.429 318.68 215.138C318.976 212.678 319.17 210.196 319.318 207.725L319.215 207.691Z" fill="#0F172A"/>
<path d="M312.805 238.96C311.37 237.822 309.947 236.558 309.685 235.408C309.526 234.508 309.321 233.62 309.161 232.709L308.888 229.862C308.637 226.024 308.615 222.119 308.751 218.201C308.82 215.354 309.07 212.508 309.218 209.649C309.844 199.572 310.778 189.494 311.917 179.439C312.183 177.207 312.452 174.975 312.725 172.743C312.862 171.604 313.01 170.465 313.147 169.395C313.283 168.325 313.409 167.118 313.5 165.979C313.742 163.246 314.374 160.561 315.379 158.008C316.394 155.521 317.982 153.309 320.013 151.551C321.312 150.526 320.833 150.002 319.148 150.344C318.66 150.478 318.183 150.653 317.725 150.868C317.139 151.188 316.589 151.57 316.085 152.007C314.787 153.036 313.736 154.344 313.01 155.833C311.714 158.714 310.917 161.794 310.653 164.943C310.562 165.694 310.516 166.457 310.471 167.22C310.425 167.983 310.346 168.564 310.254 169.304L309.765 173.654C309.104 179.484 308.501 185.337 308.045 191.236C307.499 198.285 306.667 205.596 306.28 212.872C306.041 216.846 305.95 220.843 305.95 224.852L306.052 227.858C306.052 228.86 306.121 229.862 306.235 230.875C306.349 231.889 306.371 232.891 306.588 233.916L306.884 235.442C306.961 235.994 307.11 236.534 307.328 237.047C307.958 238.269 308.83 239.35 309.89 240.224C310.856 241.04 311.867 241.801 312.919 242.502C314.986 243.865 317.122 245.119 319.319 246.26C325.923 249.676 332.801 252.614 339.622 255.37C344.929 257.499 350.122 259.629 355.462 261.542C356.601 261.963 357.74 262.396 358.981 262.783C363.422 264.229 364.948 264.411 366.098 263.922C366.361 263.849 366.614 263.742 366.85 263.603C367.419 263.159 365.711 262.282 362.534 261.166C353.105 257.75 343.175 254.037 333.45 249.847C329.841 248.287 326.254 246.658 322.746 244.893C319.266 243.214 315.939 241.233 312.805 238.972V238.96Z" fill="#0F172A"/>
<path d="M433.443 444.047C434.673 448.067 435.994 452.018 437.599 455.992C438.406 457.985 439.314 459.934 440.321 461.834C440.856 462.79 441.459 463.736 442.052 464.669L442.279 465.011L442.348 465.102L442.484 465.273C442.598 465.41 442.61 465.398 442.678 465.478C442.576 465.559 442.46 465.621 442.336 465.66C441.471 466.013 440.526 466.378 439.603 466.685C437.747 467.334 435.846 467.824 433.91 468.359C430.059 469.308 426.142 469.963 422.192 470.318C414.251 471.004 406.254 470.652 398.404 469.27C394.008 468.575 389.636 467.778 385.297 466.844C383.133 466.366 380.981 465.876 378.863 465.296C376.745 464.715 374.673 464.043 372.52 463.383C365.08 461.163 357.945 458.022 351.283 454.034C348.018 452.03 344.966 449.699 342.173 447.076C341.513 446.393 340.807 445.744 340.169 445.026L339.406 444.184C339.373 444.159 339.346 444.126 339.33 444.088C339.314 444.05 339.309 444.008 339.315 443.967V443.626L339.907 437.761C341.547 422.115 343.574 406.48 345.407 390.822C347.047 376.941 348.664 362.957 349.848 349.11C350.566 340.206 351.26 331.278 351.465 322.316C351.545 320.039 351.602 317.841 351.579 315.597V308.868C351.397 304.392 351.272 299.906 350.782 295.453C350.27 289.885 349.541 290.739 349.131 295.453C349.028 296.592 348.949 298.061 348.892 299.689C348.835 301.318 348.675 303.106 348.607 305.167C348.527 309.186 348.265 313.889 348.254 318.979C347.855 337.085 346.295 355.169 344.348 373.263C342.401 391.358 340.112 409.486 338.142 427.752C337.846 430.485 337.561 433.229 337.265 435.985C336.969 438.945 336.669 441.914 336.366 444.89C336.679 445.36 337.038 445.798 337.436 446.199L338.153 447.008C338.632 447.554 339.167 448.044 339.668 448.556C340.169 449.069 340.704 449.558 341.239 450.048C341.775 450.538 342.298 451.016 342.868 451.46C345.077 453.309 347.418 454.994 349.871 456.505C354.762 459.495 359.929 462.008 365.301 464.009C367.977 465.011 370.698 465.933 373.374 466.753C376.082 467.651 378.834 468.412 381.619 469.031C386.96 470.261 392.323 471.24 397.698 472.094C403.118 473.033 408.606 473.528 414.107 473.574C419.619 473.609 425.121 473.117 430.539 472.105C433.23 471.587 435.891 470.922 438.51 470.113C439.831 469.703 441.141 469.258 442.439 468.769L443.407 468.382C443.908 468.177 444.409 467.972 444.876 467.755L446.276 467.095L446.96 466.742C447.165 466.628 447.483 466.514 447.518 466.389L446.242 465.136L445.103 463.849C444.933 463.645 444.705 463.394 444.591 463.235L444.295 462.79L443.703 461.902C442.974 460.672 442.302 459.386 441.676 458.065C438.687 451.146 436.247 444.003 434.377 436.702C432.395 429.391 430.664 422.001 429.059 414.599C424.253 392.12 420.404 369.323 417.022 346.753C414.415 329.194 412.251 311.919 410.19 294.508C409.746 290.67 409.302 286.913 408.857 283.041C407.149 268.704 406.455 264.161 405.293 261.166C405.066 260.496 404.804 259.838 404.508 259.196C403.733 257.886 403.858 263.751 404.929 274.341C408.14 305.577 412.467 338.418 417.876 371.247C419.892 383.443 422.078 395.639 424.549 407.79C427.02 419.94 429.753 432.079 433.306 444.047H433.443Z" fill="#0F172A"/>
<path d="M405.008 472.811L404.826 498.923C404.826 499.23 402.446 499.207 402.468 498.923L402.639 472.8C403.413 472.57 404.237 472.574 405.008 472.811Z" fill="#0F172A"/>
<path d="M386.241 499.845L385.49 469.851C385.49 469.498 387.847 469.441 387.847 469.794L388.599 499.822C388.599 499.925 388.291 499.982 387.881 500.027L387.414 499.572C387.352 499.587 387.294 499.617 387.244 499.658C387.195 499.7 387.156 499.752 387.13 499.811C387.109 499.841 387.098 499.877 387.098 499.913C387.098 499.95 387.109 499.986 387.13 500.016L387.414 499.743V500.289L387.688 500.016C387.708 500.048 387.719 500.086 387.719 500.124C387.719 500.162 387.708 500.2 387.688 500.232C387.658 500.291 387.616 500.342 387.565 500.383C387.514 500.424 387.455 500.454 387.392 500.471L386.925 500.027C386.56 500.016 386.241 499.947 386.241 499.845Z" fill="#0F172A"/>
<path d="M359.698 571.141C360.575 571.631 364.766 574.432 373.91 572.189C382.742 569.985 390.906 565.667 397.698 559.606V569.98H403.391L403.722 496.998C398.855 499.301 393.372 499.961 388.098 498.877C384.887 500.151 381.583 501.175 378.214 501.94L382.473 559.72C376.335 562.646 368.956 565.14 364.151 567.156C364.151 567.156 357.922 570.173 359.698 571.141Z" fill="#0F172A"/>
<path d="M360.074 570.412C361.71 572.342 364.027 573.566 366.542 573.829C369.211 574.152 371.917 573.958 374.513 573.259C378.925 572.174 383.189 570.556 387.21 568.442C389.228 567.402 391.183 566.242 393.063 564.969C393.997 564.332 394.92 563.66 395.831 562.965L396.195 562.692C396.195 565.622 396.195 568.549 396.195 571.471H404.804L404.884 560.38C404.884 545.349 404.91 530.314 404.963 515.275L405.043 494.903C404.086 495.301 403.107 495.745 402.139 496.133L401.41 496.417L401.057 496.543L400.875 496.611C400.625 496.702 400.374 496.793 400.135 496.861C399.142 497.185 398.131 497.447 397.106 497.647C395.077 498.036 393.003 498.135 390.945 497.943C390.433 497.943 389.932 497.818 389.42 497.738L388.565 497.567C388.069 497.463 387.552 497.527 387.096 497.75C386.094 498.137 385.07 498.501 384.045 498.888C383.02 499.276 381.995 499.572 380.97 499.868C380.458 500.027 379.945 500.164 379.444 500.289C379.296 500.289 378.636 500.46 378.192 500.551L376.677 500.836L379.216 534.918L380.925 557.772L381.004 558.82V558.888L380.856 558.957L378.818 559.845C377.155 560.551 375.474 561.227 373.773 561.872L368.649 563.808L366.075 564.776L364.777 565.288L364.128 565.539L363.809 565.675C363.669 565.724 363.532 565.781 363.399 565.846C362.201 566.389 361.057 567.045 359.983 567.805C359.315 568.284 358.762 568.906 358.366 569.627C358.236 569.87 358.16 570.138 358.144 570.414C358.128 570.689 358.173 570.965 358.275 571.221C358.334 571.385 358.432 571.532 358.561 571.65C358.69 571.767 358.846 571.85 359.015 571.893C359.357 571.893 359.323 571.756 359.152 571.437C359.081 571.319 359.036 571.186 359.02 571.049C359.004 570.911 359.018 570.772 359.061 570.64C359.19 570.384 359.387 570.167 359.63 570.014C360.086 569.706 360.666 569.536 361.122 569.217C362.239 568.482 363.439 567.882 364.698 567.429C365.95 567.019 367.18 566.666 368.433 566.29C371.09 565.592 373.705 564.744 376.267 563.751C377.554 563.227 378.841 562.692 380.127 562.134L382.245 561.223C382.769 561.001 383.279 560.746 383.771 560.46L383.635 558.604L383.1 550.302L382.075 533.722C381.779 529.315 381.437 524.886 381.073 520.479L379.592 503.569C379.592 503.477 379.592 503.364 379.592 503.033L379.957 502.942C380.537 502.794 381.198 502.623 381.927 502.396C383.384 501.963 385.126 501.382 387.199 500.619L387.985 500.323L388.167 500.255C388.167 500.255 388.167 500.255 388.247 500.255L389.021 500.414C389.34 500.471 389.67 500.505 390 500.551C391.42 500.733 392.853 500.786 394.282 500.71C395.903 500.619 397.512 500.375 399.087 499.982C399.919 499.777 400.761 499.515 401.615 499.23L402.185 499.025L402.424 498.923C402.333 516.949 402.173 550.564 402.094 568.75H398.985C398.985 561.838 398.985 559.036 398.985 556.679C397.914 557.693 396.833 558.729 395.842 559.617C395.341 560.016 394.863 560.426 394.384 560.756L393.565 561.382C392.517 562.179 391.469 562.897 390.456 563.557C388.623 564.753 386.722 565.841 384.762 566.814C381.95 568.191 379.028 569.334 376.028 570.23C373.805 570.933 371.515 571.407 369.196 571.642C367.841 571.779 366.478 571.805 365.119 571.722C363.361 571.665 361.638 571.217 360.074 570.412Z" fill="#0F172A"/>
<path d="M376.95 502.92L374.263 467.027C374.263 466.617 376.597 466.434 376.62 466.844L379.307 502.749C379.341 503.079 376.973 503.25 376.95 502.92Z" fill="#0F172A"/>
<path d="M338.472 249.949C341.558 261.234 339.93 272.268 336.844 283.405C336.616 284.202 333.974 283.496 334.202 282.688C337.254 271.676 338.905 260.756 335.842 249.573C335.626 248.765 338.256 249.141 338.472 249.949Z" fill="#0F172A"/>
<path d="M338.335 235.761C343.402 240.088 343.265 249.004 342.696 254.891C342.605 255.802 339.963 255.222 340.054 254.185C340.567 248.924 340.817 240.19 336.205 236.25C335.067 235.248 337.64 235.18 338.335 235.761Z" fill="#0F172A"/>
<path d="M353.811 196.668C351.306 199.059 347.4 198.604 344.576 197.123C344.098 196.873 343.642 196.395 344.246 195.985C344.849 195.575 346.033 196.064 346.523 196.338C347.228 196.624 348.005 196.688 348.747 196.521C349.49 196.354 350.164 195.965 350.679 195.404C351.408 194.698 354.494 195.928 353.765 196.622L353.811 196.668Z" fill="#0F172A"/>
<path d="M354.197 168.256C355.975 165.018 358.152 162.015 360.676 159.317C361.382 158.532 363.74 159.5 362.954 160.388C360.429 163.085 358.252 166.088 356.475 169.327C355.996 170.238 353.628 169.327 354.197 168.256Z" fill="#0F172A"/>
<path d="M360.268 233.517C360.838 232.944 361.273 232.251 361.54 231.489C361.808 230.726 361.903 229.914 361.817 229.11C361.799 226.551 361.443 224.004 360.758 221.538C360.534 220.847 360.22 220.188 359.824 219.579C359.618 219.25 359.382 218.941 359.118 218.657C358.879 218.418 358.651 218.167 358.412 217.951C357.473 217.077 356.476 216.266 355.429 215.525C353.76 214.471 352.23 213.212 350.874 211.779C350.584 211.417 350.318 211.036 350.076 210.64L349.314 209.342C348.836 208.464 348.41 207.559 348.038 206.632C346.742 203.437 346.062 200.025 346.034 196.577C346.015 194.847 346.133 193.118 346.387 191.407C346.512 190.541 346.672 189.687 346.854 188.845L347.173 187.603C347.31 187.052 347.379 186.486 347.378 185.918C347.388 184.568 346.991 183.247 346.239 182.126C345.869 181.588 345.428 181.102 344.929 180.68C344.72 180.498 344.566 180.262 344.485 179.997C344.406 179.53 344.485 179.279 345.055 178.858C345.688 178.39 346.42 178.074 347.195 177.936C347.456 177.921 347.715 177.886 347.97 177.833C348.108 177.787 348.233 177.71 348.336 177.607C348.439 177.504 348.516 177.379 348.562 177.241C348.619 177.082 348.626 176.909 348.581 176.746C348.536 176.583 348.442 176.437 348.311 176.33C348.175 176.193 348.004 176 347.833 176C347.013 176 346.239 176 345.396 176.068C344.455 176.137 343.571 176.541 342.902 177.207C342.49 177.621 342.18 178.126 341.998 178.682C341.816 179.238 341.767 179.829 341.855 180.407C341.948 180.973 342.162 181.513 342.481 181.99C342.756 182.37 343.068 182.721 343.415 183.037C343.798 183.459 344.088 183.957 344.266 184.499C344.445 185.04 344.508 185.613 344.451 186.18C344.43 186.399 344.392 186.616 344.337 186.829L344.121 187.717C343.961 188.344 343.859 188.981 343.757 189.608C343.529 191.238 343.404 192.881 343.381 194.527C343.28 197.371 343.532 200.217 344.132 202.999C344.64 205.25 345.404 207.436 346.41 209.513C346.683 210.059 346.945 210.652 347.264 211.164C347.561 211.737 347.892 212.292 348.255 212.827C349.024 213.919 349.944 214.896 350.987 215.73C352.992 217.381 355.03 218.577 356.545 220.012C356.898 220.323 357.222 220.666 357.512 221.037C357.761 221.391 357.967 221.774 358.127 222.176C358.446 222.992 358.679 223.839 358.822 224.704C359.129 226.389 359.243 227.881 359.346 228.962C359.448 230.044 359.505 230.727 359.517 230.841C359.714 231.747 359.965 232.641 360.268 233.517Z" fill="#0F172A"/>
<path d="M405.019 299.165C406.466 303.72 402.036 309.038 397.299 308.412C392.562 307.786 389.703 301.42 392.402 297.48C395.101 293.54 402.127 293.973 404.291 298.232" fill="#0F172A"/>
<path d="M361.406 365.577C362.738 369.801 358.639 374.743 354.243 374.163C349.847 373.582 347.183 367.672 349.688 364.005C352.193 360.338 358.718 360.76 360.722 364.711" fill="#0F172A"/>
<path d="M353.401 414.907C353.591 415.702 353.591 416.53 353.404 417.325C353.217 418.121 352.846 418.862 352.322 419.489C351.798 420.116 351.134 420.612 350.385 420.937C349.635 421.263 348.82 421.409 348.004 421.363C347.205 421.195 346.457 420.841 345.821 420.328C345.186 419.815 344.68 419.159 344.347 418.414C344.014 417.669 343.862 416.855 343.904 416.039C343.945 415.224 344.18 414.43 344.588 413.722C346.478 410.978 351.42 411.274 352.889 414.258" fill="#0F172A"/>
<path d="M418.673 417.742C419.983 421.876 415.963 426.704 411.67 426.135C407.377 425.565 404.769 419.792 407.229 416.216C409.689 412.641 416.054 413.039 418.013 416.899" fill="#0F172A"/>
<path d="M389.304 398.794C390.568 402.802 386.685 407.471 382.472 406.924C378.259 406.378 375.799 400.775 378.179 397.313C380.559 393.851 386.719 394.239 388.61 397.985" fill="#0F172A"/>
<path d="M357.192 456.539C355.963 454.535 356.054 451.847 358.844 451.369C360.129 451.16 361.448 451.302 362.66 451.779C363.872 452.256 364.934 453.05 365.733 454.079C367.168 456.163 365.676 458.634 363.524 459.42C362.302 459.616 361.05 459.447 359.923 458.935C358.797 458.422 357.847 457.589 357.192 456.539Z" fill="#0F172A"/>
<path d="M367.533 323.614C368.831 327.736 364.845 332.542 360.564 331.972C356.282 331.403 353.731 325.653 356.134 322.088C358.537 318.524 364.925 318.923 366.872 322.783" fill="#0F172A"/>
<path d="M368.809 279.591C370.118 283.701 366.121 287.323 361.84 286.753C357.558 286.184 355.007 281.618 357.41 278.065C359.813 274.512 366.201 274.899 368.148 278.748" fill="#0F172A"/>
<path d="M410.668 348.051C411.978 352.162 407.981 356.968 403.699 356.398C399.417 355.829 396.867 350.09 399.281 346.526C401.695 342.961 408.06 343.36 410.019 347.209" fill="#0F172A"/>
<path d="M435.356 460.695C434.126 462.973 431.108 464.054 429.548 461.971C429.207 461.432 428.997 460.819 428.938 460.184C428.878 459.549 428.97 458.908 429.205 458.315C429.441 457.722 429.814 457.193 430.293 456.771C430.772 456.35 431.344 456.048 431.962 455.89C432.54 455.783 433.135 455.831 433.687 456.029C434.24 456.227 434.73 456.568 435.108 457.017C435.486 457.466 435.739 458.007 435.841 458.585C435.942 459.163 435.889 459.757 435.686 460.308" fill="#0F172A"/>
<path d="M277.287 146.245L282.377 148.397C282.992 148.659 283.573 149 284.199 149.251C286.374 150.162 288.583 151.027 290.735 151.961C291.689 152.391 292.62 152.87 293.525 153.396C294.636 154.14 295.833 154.748 297.09 155.206C297.909 155.423 298.228 152.622 296.839 151.87C294.417 150.548 291.883 149.442 289.266 148.568C287.684 148.055 286.192 147.201 284.655 146.529L279.553 144.32C278.517 143.865 277.469 143.409 276.444 142.931C274.884 142.202 273.301 141.496 271.81 140.653C270.671 140.004 269.6 139.23 268.519 138.478C268.28 138.319 268.063 138.137 267.824 137.977C266.913 137.408 266.526 137.397 265.957 137.909C265.821 138.015 265.695 138.133 265.581 138.262C265.205 138.683 265.353 139.31 265.968 139.845C267.869 141.442 269.962 142.796 272.197 143.876C273.859 144.73 275.613 145.504 277.253 146.29L277.287 146.245Z" fill="#0F172A"/>
<path d="M379.193 204.48C382.701 206.757 396.16 204.924 395.409 194.049C394.657 183.174 382.154 189.915 382.154 189.915C374.046 185.303 365.938 178.084 362.659 169.122C357.796 155.878 368.455 141.006 380.776 138.012C434.137 125.03 434.012 189.938 435.492 199.97C436.699 208.135 467.582 230.875 443.669 256.77C433.841 267.417 418.548 274.136 404.439 270.834C345.578 257.066 377.531 203.421 379.193 204.48Z" fill="#0F172A"/>
<path d="M379.649 203.785C380.298 204.367 381.08 204.781 381.926 204.992C382.402 205.117 382.885 205.216 383.372 205.288C383.862 205.288 384.374 205.391 384.887 205.379C387.049 205.391 389.183 204.879 391.104 203.887C393.221 202.797 394.88 200.988 395.785 198.786C395.887 198.501 396.024 198.216 396.115 197.932L396.297 197.044L396.468 196.155C396.468 195.859 396.468 195.552 396.468 195.256C396.544 194.05 396.433 192.84 396.138 191.669C395.785 190.15 394.916 188.802 393.678 187.854C392.405 186.99 390.889 186.555 389.351 186.613C387.959 186.641 386.579 186.867 385.251 187.285C384.602 187.478 383.964 187.695 383.338 187.945C383.031 188.059 382.723 188.196 382.416 188.332L382.12 188.469C373.477 183.436 362.83 173.586 362.83 162.278C363.011 156.568 365.252 151.116 369.138 146.928C371.033 144.809 373.26 143.013 375.731 141.61C378.232 140.236 380.959 139.322 383.782 138.911C389.711 137.611 395.841 137.514 401.808 138.626L403.983 139.207C404.336 139.298 404.701 139.378 405.054 139.503L406.102 139.902C406.796 140.187 407.502 140.426 408.174 140.733L410.167 141.758C412.784 143.209 415.174 145.035 417.261 147.178C419.381 149.338 421.235 151.742 422.784 154.341C424.389 156.952 425.761 159.699 426.883 162.551C428.033 165.405 428.995 168.33 429.764 171.308C430.573 174.292 431.222 177.321 431.746 180.418C432.68 185.668 433.215 190.974 433.67 196.36C433.807 197.727 433.875 199.014 434.137 200.528C434.539 201.994 435.182 203.383 436.039 204.639C437.553 206.985 439.193 209.126 440.753 211.301C443.96 215.5 446.666 220.059 448.816 224.886C450.927 229.604 451.68 234.817 450.99 239.94C450.584 242.462 449.817 244.913 448.713 247.216C447.556 249.535 446.147 251.72 444.511 253.73C442.853 255.771 441.032 257.675 439.068 259.424C437.091 261.137 434.982 262.69 432.759 264.07C428.324 266.837 423.418 268.767 418.286 269.763C415.74 270.254 413.145 270.445 410.554 270.333C407.961 270.219 405.389 269.807 402.89 269.103C396.832 267.652 391.035 265.27 385.707 262.043C383.105 260.411 380.718 258.46 378.601 256.235C376.522 254.008 374.794 251.478 373.477 248.731C371.047 243.385 370.061 237.495 370.618 231.65C371.143 225.729 372.628 219.933 375.014 214.489C375.8 212.656 376.779 210.8 377.644 209.148C378.202 208.089 378.669 207.213 379.045 206.529C379.216 206.21 379.353 205.96 379.432 205.778C379.512 205.595 379.615 205.778 379.193 205.049C379.193 204.924 379.193 204.81 379.125 204.821C379.12 204.809 379.117 204.795 379.117 204.781C379.117 204.768 379.12 204.754 379.125 204.741C379.111 204.759 379.104 204.781 379.104 204.804C379.104 204.827 379.111 204.849 379.125 204.867C379.145 204.977 379.18 205.084 379.227 205.186C378.627 205.407 378.107 205.804 377.736 206.324C377.071 206.993 376.483 207.734 375.982 208.533C373.776 212.418 371.913 216.487 370.414 220.695C368.799 225.074 367.933 229.694 367.851 234.36C367.773 239.146 368.636 243.901 370.391 248.355C372.225 252.81 375.012 256.809 378.555 260.073C382.095 263.215 386.107 265.782 390.444 267.679C394.735 269.625 399.205 271.15 403.79 272.234C407.55 273.152 411.438 273.433 415.291 273.066C419.117 272.697 422.871 271.784 426.439 270.355C435.513 266.725 443.299 260.473 448.804 252.398C449.203 251.76 449.692 250.997 450.228 250.12L451.002 248.617L451.423 247.786L451.799 246.875C453.086 243.905 453.815 240.725 453.951 237.492C454.042 235.515 453.928 233.534 453.61 231.581C453.24 229.44 452.68 227.337 451.936 225.296C450.156 220.786 447.827 216.514 445.001 212.576C443.555 210.469 441.983 208.363 440.446 206.21C439.671 205.14 438.909 204.047 438.168 202.931C437.472 201.941 436.981 200.822 436.722 199.64C436.403 196.975 436.221 194.071 435.914 191.179C435.606 188.287 435.276 185.337 434.775 182.354C433.891 176.242 432.439 170.226 430.436 164.385C429.947 162.882 429.298 161.424 428.74 159.955C428.182 158.486 427.453 157.04 426.656 155.639C425.18 152.772 423.392 150.076 421.326 147.6C417.198 142.531 411.688 138.769 405.464 136.77C399.393 135.027 393.014 134.638 386.777 135.632C385.272 135.816 383.778 136.082 382.302 136.429C381.562 136.599 380.833 136.691 380.093 136.918C379.353 137.146 378.601 137.351 377.872 137.613C375.065 138.68 372.461 140.221 370.174 142.168C365.832 145.792 362.661 150.623 361.064 156.049C360.358 158.574 360.077 161.198 360.233 163.815C360.431 166.254 361.019 168.646 361.975 170.898C363.66 174.73 366.008 178.234 368.91 181.249C371.115 183.588 373.54 185.709 376.153 187.581C377.235 188.378 378.248 189.05 379.159 189.619C379.603 189.904 380.024 190.166 380.434 190.393L382.12 191.384L382.894 190.986C383.133 190.849 383.463 190.701 383.543 190.667L384.34 190.325C384.875 190.109 385.388 189.926 385.9 189.767C386.839 189.46 387.809 189.258 388.793 189.164C389.496 189.037 390.22 189.074 390.907 189.272C391.594 189.469 392.226 189.822 392.756 190.302C393.474 191.149 393.918 192.193 394.031 193.297C394.106 193.775 394.133 194.26 394.111 194.743C394.111 195.187 394.111 195.597 394.111 195.962C394.01 197.251 393.574 198.491 392.847 199.56C391.637 201.356 389.873 202.707 387.825 203.409C386.605 203.9 385.32 204.21 384.01 204.331C382.533 204.536 381.029 204.348 379.649 203.785Z" fill="#0F172A"/>
<path d="M355.78 175.647C355.701 176.171 354.904 177.195 355.393 177.446C356.441 177.981 357.397 175.442 356.839 174.907C356.281 174.371 355.883 174.895 355.78 175.647Z" fill="#0F172A"/>
<path d="M355.644 175.647C355.666 175.872 355.646 176.1 355.587 176.319C355.587 176.398 355.496 176.41 355.496 176.455C355.546 176.527 355.588 176.603 355.622 176.683C355.636 176.735 355.636 176.79 355.622 176.842C355.614 176.805 355.614 176.766 355.622 176.729L355.428 177.093C355.488 177.081 355.55 177.081 355.61 177.093C355.701 177.093 356.043 177.093 355.929 177.093C355.815 177.093 355.997 176.842 356.111 176.694C356.225 176.546 356.533 176.307 356.43 175.783C356.43 175.601 355.838 175.601 355.291 175.533C354.745 175.465 354.267 175.294 354.221 175.385C354.081 175.646 353.977 175.926 353.913 176.216C353.845 176.522 353.826 176.838 353.857 177.15C353.88 177.294 353.918 177.435 353.97 177.571C354.04 177.744 354.14 177.902 354.266 178.038C354.386 178.174 354.534 178.283 354.699 178.357C354.797 178.398 354.901 178.425 355.007 178.437C355.437 178.511 355.88 178.459 356.282 178.289C356.563 178.153 356.809 177.955 356.999 177.708C357.281 177.298 357.472 176.832 357.557 176.341C357.606 176.048 357.625 175.75 357.614 175.453C357.61 175.153 357.527 174.858 357.375 174.599C357.318 174.51 357.249 174.43 357.17 174.36L357.011 174.235C356.877 174.134 356.727 174.057 356.567 174.007C356.396 173.962 356.218 173.953 356.043 173.98C355.869 174.008 355.702 174.071 355.553 174.166C355.334 174.302 355.144 174.48 354.995 174.69C354.938 174.763 354.885 174.839 354.836 174.918C354.711 175.214 354.836 175.339 355.405 175.487L355.781 175.567C356.092 175.637 356.415 175.637 356.726 175.567C356.807 175.537 356.896 175.537 356.977 175.567C356.863 175.509 356.753 175.444 356.646 175.373C356.55 175.309 356.462 175.232 356.385 175.146C356.271 175.009 356.385 174.964 356.305 175.146C356.207 175.415 356.051 175.66 355.849 175.863L355.77 175.943L356.51 175.157C356.488 175.165 356.464 175.165 356.441 175.157C356.441 175.157 356.305 175.237 356.214 175.26C355.986 175.316 355.753 175.347 355.519 175.351C355.542 175.413 355.542 175.482 355.519 175.544L355.644 175.647Z" fill="#0F172A"/>
<path d="M357.557 173.836C357.792 173.836 358.018 173.921 358.195 174.075C358.244 174.143 358.298 174.207 358.354 174.269C358.593 174.522 358.779 174.82 358.901 175.146C358.949 175.297 358.979 175.454 358.992 175.613C358.992 175.802 359.015 176.007 359.06 176.228C359.06 176.296 359.06 176.296 359.174 176.228C359.274 176.158 359.359 176.069 359.425 175.966C359.655 175.541 359.731 175.051 359.641 174.576C359.561 174.292 359.573 173.973 359.47 173.677C359.339 173.348 359.159 173.04 358.935 172.766C358.801 172.586 358.635 172.431 358.445 172.31C358.166 172.142 357.856 172.03 357.534 171.98C357.318 171.892 357.084 171.853 356.851 171.866C356.798 171.855 356.744 171.855 356.692 171.866C356.57 171.918 356.464 172 356.384 172.105C356.384 172.105 356.384 172.208 356.532 172.379C356.805 172.868 356.965 173.346 357.113 173.517C357.261 173.688 357.341 173.722 357.557 173.734V173.836Z" fill="#0F172A"/>
<path d="M403.995 472.629C403.995 472.629 388.338 472.868 376.779 467.676" stroke="#0F172A" stroke-width="2.5" stroke-miterlimit="10"/>
<path d="M258.351 110.568C259.758 109.546 261.289 108.704 262.906 108.063C264.621 107.373 266.471 107.085 268.315 107.22C270.188 107.41 271.982 108.073 273.53 109.145C274.944 110.127 276.236 111.274 277.379 112.561C277.55 112.72 275.102 114.838 275.011 114.702C274.046 113.597 272.957 112.607 271.765 111.752C270.66 110.996 269.385 110.526 268.053 110.386C266.694 110.302 265.333 110.52 264.067 111.023C262.714 111.584 261.43 112.298 260.241 113.153C259.474 112.401 258.835 111.527 258.351 110.568Z" fill="#0F172A"/>
<path d="M343.755 173.301L336.615 169.885C334.235 168.746 331.866 167.607 329.532 166.469C327.198 165.33 324.977 163.849 322.586 162.927C320.128 161.915 317.586 161.119 314.99 160.547L314.82 160.843C316.551 162.936 318.636 164.709 320.98 166.081C323.333 167.333 325.81 168.336 328.371 169.076C330.861 169.972 333.373 170.796 335.909 171.547C338.448 172.276 340.976 173.016 343.539 173.654L343.755 173.301Z" fill="#0F172A"/>
<path d="M3.17068 115.797C0.912743 121.8 1.66989 129.466 4.26584 136.24C6.40819 141.966 9.53323 147.273 13.5004 151.924C17.5166 156.572 22.3398 160.456 27.7375 163.389C38.5951 169.285 51.0839 171.464 63.2966 169.595C73.8539 168.022 83.6368 163.13 91.2301 155.629C98.7459 148.14 103.955 138.651 106.238 128.29C108.268 119.433 108.129 110.217 105.832 101.425C103.533 92.5763 98.8571 84.5251 92.3117 78.1423C85.7374 71.8604 77.6895 67.3319 68.9076 64.9733C60.135 62.6174 50.9299 62.3672 42.0423 64.2432C31.4863 66.4305 21.8249 71.7227 14.2981 79.4403C10.7468 83.1668 7.75465 87.3885 5.41509 91.9738C3.09879 96.583 1.48984 101.515 0.642334 106.603C0.309608 108.297 0.110687 110.015 0.0474319 111.741C-0.109833 113.096 0.129684 114.467 0.736954 115.689C1.11552 116.081 1.54819 115.527 1.96732 113.972C2.22779 113.248 2.41798 112.501 2.53521 111.741C2.84901 108.192 3.69212 104.71 5.03652 101.411C6.38631 98.0805 7.95358 94.8421 9.72816 91.7169C13.2208 85.3626 18.1807 79.9344 24.1951 75.8844C30.2055 71.8575 36.9956 69.1396 44.1245 67.9072C57.1459 65.5034 70.5973 67.9054 81.982 74.6675C87.4415 78.0277 92.1341 82.4973 95.7559 87.7868C99.3778 93.0763 101.848 99.0676 103.006 105.373C104.983 115.605 103.95 126.191 100.032 135.848C95.8087 146.452 88.0134 155.247 77.9935 160.712C73.0145 163.378 67.6046 165.145 62.0121 165.931C51.5322 167.378 40.8582 165.709 31.3205 161.131C27.2548 159.139 23.4831 156.596 20.1119 153.574C14.9926 148.953 10.9337 143.28 8.21386 136.943C7.03952 134.238 6.08104 131.444 5.34747 128.588C4.17638 124.412 3.4468 120.125 3.17068 115.797Z" fill="#0F172A"/>
<path d="M55.8192 94.0695C59.4079 92.5997 63.3121 92.0692 67.1629 92.5281C70.8811 93.0825 74.7615 94.6779 76.695 97.5713C77.3956 98.6253 77.8188 99.8391 77.9253 101.1C78.0306 102.403 77.9164 103.715 77.5873 104.981C77.2801 106.058 76.7555 107.061 76.046 107.928C75.281 108.798 74.3649 109.521 73.3418 110.064C72.8173 110.356 72.2702 110.604 71.7059 110.808C71.449 110.916 71.0298 111.038 71.0163 111.051H70.3267C69.044 110.998 67.7659 110.862 66.5004 110.646C63.969 110.234 61.5158 109.436 59.2264 108.28C58.0953 107.703 57.0222 107.02 56.022 106.238L55.6164 105.927C55.4343 105.784 55.2397 105.657 55.035 105.548C54.6154 105.313 54.1578 105.153 53.6829 105.075C52.7703 104.887 51.8209 105 50.9788 105.4C50.2317 105.741 49.5949 106.284 49.14 106.968L48.1666 108.496C47.5406 109.441 46.8541 110.344 46.1115 111.2C45.413 112.051 44.6087 112.81 43.7183 113.458C42.9914 114.037 42.0919 114.355 41.1629 114.364L40.1354 114.188C39.6858 114.143 39.2328 114.143 38.7833 114.188C37.8483 114.227 36.9299 114.447 36.0792 114.837C35.2089 115.238 34.4392 115.829 33.8263 116.566C33.2134 117.303 32.7729 118.167 32.5368 119.096C32.3063 119.978 32.2285 120.892 32.3069 121.8C32.3822 122.758 32.6834 123.685 33.1858 124.504C34.1989 126.05 35.7588 127.156 37.5529 127.6C38.5805 127.884 39.1078 127.695 39.1348 127.371C39.1619 127.046 38.7292 126.559 38.1478 125.937C37.4427 125.248 36.8293 124.471 36.3225 123.625C35.8689 122.714 35.7084 121.684 35.8629 120.678C35.8775 120.211 35.9953 119.753 36.2081 119.337C36.4208 118.92 36.7231 118.557 37.0932 118.271C37.8788 117.719 38.8493 117.496 39.7973 117.649L40.4869 117.758C40.7875 117.798 41.0922 117.798 41.3928 117.758C41.9931 117.753 42.5896 117.662 43.1639 117.487C44.1389 117.163 45.0528 116.679 45.8681 116.054C47.2537 114.956 48.4821 113.673 49.5186 112.241C50.0189 111.565 50.4786 110.889 50.8707 110.186L51.5061 109.145L51.6684 108.875L51.7495 108.739C51.7854 108.678 51.826 108.619 51.8712 108.564C52.0669 108.341 52.337 108.198 52.6306 108.161C52.9243 108.124 53.2215 108.195 53.4666 108.361C53.6117 108.452 53.7516 108.551 53.8858 108.658L54.3995 109.05C54.7375 109.307 55.1026 109.537 55.4677 109.767C56.1791 110.233 56.9198 110.653 57.6851 111.024C59.1897 111.775 60.766 112.373 62.3902 112.809C64.3188 113.325 66.2855 113.687 68.2716 113.891L69.7724 113.999H70.5296C70.9061 114.046 71.2885 114.014 71.6518 113.904L72.1115 113.755L72.49 113.634L73.2202 113.35C73.7192 113.152 74.2067 112.926 74.6804 112.674C76.6657 111.669 78.3253 110.122 79.4667 108.212C80.5579 106.291 81.096 104.106 81.0215 101.898C81.0306 99.4556 80.232 97.0789 78.7501 95.1376C77.2783 93.3001 75.3671 91.8633 73.1931 90.9598C71.1306 90.04 68.9358 89.4514 66.6898 89.2156C64.4707 89.0093 62.2341 89.0956 60.0376 89.4725C57.3405 89.9089 54.73 90.7715 52.3039 92.0279C51.0837 92.6768 49.9292 93.442 48.8561 94.3129C48.6939 94.4345 48.6533 94.4886 48.5857 94.5427L48.3694 94.7455L48.1666 94.9348C48.086 94.9477 48.0038 94.9477 47.9232 94.9348L46.4224 94.5292C44.4919 93.9394 42.522 93.4876 40.5275 93.1771C38.4432 92.8804 36.3224 92.9628 34.2674 93.4205C32.1033 93.8938 30.1828 95.1325 28.8592 96.9088C28.2245 97.7863 27.7317 98.7581 27.399 99.7887C27.1015 100.762 26.7906 101.709 26.5878 102.696C25.8438 105.725 25.5073 108.839 25.5872 111.957C25.6299 115.172 26.4314 118.332 27.9263 121.178C28.3319 121.787 28.6969 122.409 29.1296 122.99C29.5926 123.564 30.0892 124.11 30.6169 124.626L32.1041 125.802C32.6044 126.113 33.0776 126.343 33.4562 126.573C34.4109 127.037 35.4331 127.348 36.4848 127.492C36.7189 127.507 36.9538 127.507 37.1879 127.492C37.5606 127.45 37.9225 127.34 38.256 127.168C38.5361 127.061 38.8 126.915 39.0402 126.735C39.3241 126.451 39.0402 126.059 38.2154 125.654C37.3907 125.248 36.2279 124.748 34.8623 123.923C32.8254 122.7 31.2226 120.871 30.2789 118.69C29.3005 116.389 28.786 113.917 28.7646 111.416C28.7161 108.796 28.9977 106.179 29.6028 103.629C29.738 102.98 29.9273 102.276 30.1166 101.709C30.2627 101.126 30.4572 100.556 30.698 100.005C31.1215 99.0554 31.7828 98.2312 32.6179 97.6119C34.0331 96.7058 35.6834 96.2356 37.3637 96.2598C39.2787 96.2372 41.1869 96.4922 43.0288 97.017L46.0574 97.8417L48.5316 98.4907L48.9102 98.5854C49.0454 98.5854 49.0995 98.4502 49.2076 98.4096L49.735 97.9229L50.7896 96.9764C52.254 95.7819 53.8963 94.8239 55.657 94.1371L55.8192 94.0695Z" fill="#0F172A"/>
<path d="M70.5575 114.175C70.6384 114.182 70.7199 114.182 70.8008 114.175C70.8074 114.206 70.8074 114.238 70.8008 114.269V116.649C70.8008 118.001 70.8008 119.353 70.6927 120.705C70.5789 123.36 70.1708 125.995 69.4758 128.56C68.8827 130.55 68.0424 132.458 66.9745 134.239C66.511 135.021 65.996 135.77 65.4332 136.484C65.1492 136.822 64.8923 137.214 64.5814 137.525L63.6349 138.458C62.3691 139.654 60.8412 140.538 59.1731 141.04C57.4558 141.453 55.6638 141.442 53.9515 141.009C52.2391 140.576 50.6578 139.732 49.3437 138.552C48.094 137.511 47.0011 136.295 46.0988 134.942C45.7067 134.212 45.2199 133.59 44.8954 132.792L44.3952 131.67C44.2102 131.236 44.0026 130.812 43.7732 130.399C43.3781 129.738 42.9494 129.097 42.4888 128.479L41.7992 127.601L41.4477 127.154L41.2719 126.938C41.2719 126.816 41.015 126.803 40.988 126.641C39.689 125.716 38.2638 124.983 36.7561 124.464C36.231 124.279 35.7648 123.957 35.4058 123.532C35.0469 123.106 34.8082 122.592 34.7144 122.044C34.5387 120.935 33.7815 120.908 33.1596 122.233C32.9643 122.735 32.886 123.274 32.9305 123.811C32.975 124.347 33.1412 124.866 33.4165 125.329C33.805 125.972 34.3258 126.525 34.9443 126.952C35.5069 127.336 36.1099 127.658 36.7425 127.911C37.492 128.185 38.2014 128.558 38.8517 129.02L39.6089 129.913C39.9063 130.278 40.1903 130.643 40.4472 131.008C40.7043 131.346 40.9435 131.698 41.1638 132.062C41.2584 132.238 41.3395 132.387 41.3936 132.508L41.7452 133.239C42.6401 135.207 43.825 137.03 45.2605 138.647C46.736 140.319 48.5163 141.696 50.5065 142.703C52.5455 143.749 54.8321 144.217 57.118 144.055C60.2097 143.846 63.1356 142.581 65.4061 140.472C67.6107 138.478 69.3824 136.053 70.6116 133.347C71.9298 130.456 72.7875 127.377 73.1534 124.22C73.505 121.142 73.6495 118.043 73.5861 114.945V111.525C72.4503 111.525 71.2065 111.362 70.4493 111.268C69.6922 111.173 69.0161 111.092 68.313 110.984C66.8799 110.767 65.4737 110.47 64.0946 110.118C61.4192 109.505 58.8618 108.459 56.5231 107.022C55.9552 106.63 55.5631 106.252 54.6978 105.738C53.8923 105.331 52.9762 105.198 52.0884 105.359C51.2045 105.53 50.3988 105.98 49.7899 106.644C49.3387 107.243 48.9189 107.866 48.5325 108.509C47.4248 110.261 46.0571 111.834 44.4763 113.174C43.7699 113.765 42.9373 114.186 42.0426 114.404C41.8497 114.431 41.6541 114.431 41.4612 114.404C41.2695 114.414 41.0775 114.391 40.8934 114.337L40.0281 114.175C39.7039 114.154 39.3788 114.154 39.0546 114.175C37.8946 114.155 36.7492 114.435 35.7285 114.986C35.0228 115.347 34.4052 115.859 33.9192 116.485C33.4332 117.111 33.0908 117.836 32.9162 118.609C32.8259 119.005 32.8259 119.417 32.9162 119.813C32.9666 120.104 33.0977 120.376 33.2948 120.597C33.4335 120.801 33.6021 120.984 33.7951 121.138C34.4576 121.503 34.6469 119.907 35.8367 118.434C36.3091 117.901 36.9096 117.497 37.5814 117.26C38.2533 117.024 38.9743 116.962 39.6765 117.082L40.2579 117.19C40.6023 117.281 40.9563 117.331 41.3125 117.338C42.0197 117.363 42.7254 117.257 43.3947 117.027C44.5592 116.608 45.6329 115.97 46.5585 115.148C48.2137 113.694 49.6565 112.015 50.8445 110.159C51.142 109.713 51.4259 109.253 51.7098 108.807C51.8186 108.612 51.9714 108.446 52.156 108.32C52.3267 108.216 52.5182 108.151 52.7169 108.13C52.9157 108.109 53.1166 108.133 53.3052 108.199C53.448 108.266 53.5839 108.348 53.7109 108.442L54.7519 109.226C55.4476 109.73 56.1797 110.182 56.9422 110.578C58.3972 111.325 59.9179 111.936 61.4852 112.403C63.0072 112.877 64.5557 113.261 66.1227 113.553C66.9069 113.715 67.6776 113.837 68.4618 113.958L69.6381 114.121L70.5034 114.229L70.5575 114.175Z" fill="#0F172A"/>
<path d="M67.2718 96.8277C59.4704 99.6264 64.8245 101.127 66.9067 100.357C67.8667 99.9915 69.1782 99.8022 69.5432 98.68C70.7466 94.9483 57.8615 95.2728 58.551 101.506C59.0648 106.197 66.9878 107.482 69.4621 104.44C70.3025 103.158 70.839 101.701 71.0305 100.181C71.3956 97.4767 71.1927 97.3685 68.6103 95.8948C62.5261 92.4065 55.901 98.2068 49.4787 98.7747C44.0705 99.2614 39.0544 96.2328 34.3898 100.019C32.4969 101.546 27.278 98.8152 29.8198 96.7466C34.2681 93.1501 38.5271 93.8532 43.9488 94.4616C51.5474 95.3269 57.9696 89.824 65.5817 90.4054C70.1787 90.7705 76.2224 93.1095 76.9795 98.2609C77.6015 102.56 75.3841 108.104 71.2874 109.956C63.1751 113.647 45.2738 102.398 55.9415 94.4346C58.2142 92.9394 60.8334 92.0545 63.5472 91.8651C66.2609 91.6757 68.9778 92.188 71.4361 93.3529C74.7757 95.0835 77.4798 98.7611 74.343 101.979C71.4496 104.913 64.7029 105.751 61.0793 103.94C55.5089 101.154 59.3487 94.5833 63.7835 92.9879C66.136 92.1496 70.679 95.5432 67.2177 96.7736L67.2718 96.8277Z" fill="#0F172A"/>
<path d="M57.199 96.7736C56.4976 97.9579 55.5123 98.9488 54.332 99.657C53.1518 100.365 51.8138 100.768 50.4387 100.83C46.6665 101.046 43.3269 98.8152 39.6223 98.8017C37.5319 98.8163 35.5083 99.5398 33.8824 100.854C32.2566 102.168 31.1246 103.994 30.6717 106.035C29.7117 109.74 30.6717 113.958 34.9036 114.891C37.2968 115.405 36.7289 117.447 34.3493 116.933C27.3727 115.405 24.3711 108.618 27.8459 102.29C28.7909 100.562 30.1745 99.1138 31.8574 98.0907C33.5403 97.0677 35.463 96.5062 37.432 96.4626C43.2052 96.3139 49.2895 101.438 53.5079 95.2863C54.2786 94.1641 58.0643 95.4892 57.1314 96.8412L57.199 96.7736Z" fill="#0F172A"/>
<path d="M56.1841 100.803C54.556 102.343 52.484 103.332 50.2621 103.629C47.7202 104.088 44.4212 103.845 42.9205 106.333C41.8659 108.09 42.6771 110.213 41.7712 112.052C40.7436 114.134 38.4452 114.756 36.2684 114.634C31.5497 114.459 28.4534 110.727 29.7649 106.076C31.4821 100.019 38.6615 97.8282 44.1508 99.1938C47.7067 100.073 46.8549 103.155 43.3261 102.276C39.7972 101.398 33.6453 106.725 35.5112 110.605C35.7005 110.916 35.6329 111.051 35.3084 111.038L36.052 110.172C36.2396 109.645 36.3533 109.095 36.39 108.536C36.3762 107.435 36.4988 106.336 36.7551 105.265C38.9725 99.0992 46.9226 102.276 50.7489 98.5042C52.2497 96.9899 57.8201 99.2073 56.1571 100.843L56.1841 100.803Z" fill="#0F172A"/>
<path d="M55.6855 102.412C52.2648 107.117 46.789 109.97 40.9481 108.645C38.5009 108.077 39.231 105.413 41.6647 105.941C45.829 106.901 49.777 103.858 52.1025 100.654C53.1436 99.3019 56.8753 100.749 55.6855 102.385V102.412Z" fill="#0F172A"/>
<path d="M68.1366 110.105C72.1928 108.753 75.4648 105.805 75.0051 101.276C74.8046 99.3563 73.9917 97.5521 72.6866 96.1301C71.3815 94.7082 69.6535 93.7439 67.758 93.3799C65.9192 92.9878 66.406 91.1355 68.2583 91.5141C70.6119 91.9434 72.7844 93.0639 74.4989 94.7326C76.2133 96.4013 77.3921 98.5427 77.885 100.884C78.8449 106.481 74.8158 110.348 69.8672 111.971C68.7045 112.349 66.406 110.619 68.1366 110.105Z" fill="#0F172A"/>
<path d="M52.8582 103.953C50.7084 107.495 47.3283 113.728 42.7854 114.418C39.919 114.851 36.6876 113.877 34.673 116.595C34.2617 117.259 33.9604 117.985 33.7807 118.745C33.4967 119.502 34.3891 120.326 33.348 119.691C35.606 121.043 33.5373 123.301 31.5903 122.111C28.0209 119.921 30.2383 114.891 33.0235 113.066C35.8088 111.241 39.6351 112.457 42.3933 111.011C45.1515 109.564 47.6663 104.927 49.3158 102.195C50.2758 100.627 53.9939 102.195 52.8988 103.953H52.8582Z" fill="#0F172A"/>
<path d="M164.814 163.578C161.416 163.022 157.933 163.334 154.687 164.484C151.197 165.731 147.959 167.595 145.128 169.987C135.683 178.193 129.128 189.218 126.429 201.435C125.001 207.519 124.639 213.805 125.361 220.013C126.018 226.223 127.675 232.287 130.269 237.968C134.685 247.891 142.018 256.234 151.293 261.886C157.96 265.714 165.328 268.165 172.959 269.094C180.591 270.023 188.331 269.411 195.722 267.294C200.169 266.069 204.43 264.25 208.391 261.886C212.402 259.544 216.047 256.623 219.207 253.219C219.964 252.354 220.816 251.556 221.506 250.637L223.615 247.933C224.291 246.986 224.886 245.999 225.508 245.039C226.149 244.077 226.727 243.075 227.238 242.038C228.336 240.014 229.316 237.928 230.172 235.791C230.982 233.635 231.677 231.437 232.254 229.207C232.822 226.978 233.273 224.722 233.607 222.446C233.879 220.162 234.037 217.865 234.08 215.564C234.116 213.262 234.016 210.96 233.782 208.669L233.282 205.248C233.147 204.099 232.795 202.99 232.552 201.855C231.495 197.343 229.791 193.008 227.495 188.983C224.796 184.223 221.344 179.931 217.274 176.274C213.216 172.64 208.664 169.599 203.753 167.242C194.347 162.841 184.144 160.403 173.765 160.076C172.022 159.975 170.275 159.975 168.532 160.076C167.12 160.076 165.741 160.51 164.584 161.32C164.246 161.766 164.882 162.077 166.504 162.266C167.27 162.423 168.048 162.518 168.83 162.55C170.689 162.527 172.549 162.608 174.4 162.794C176.185 163.064 177.929 163.253 179.66 163.659L182.255 164.2L184.892 164.849C186.677 165.227 188.488 165.795 190.462 166.201C194.059 167.13 197.566 168.379 200.941 169.933C202.658 170.636 204.226 171.609 205.876 172.461L208.201 173.948L209.364 174.705L210.473 175.53L212.609 177.098L214.664 178.937C215.002 179.248 215.354 179.546 215.678 179.857L216.625 180.857C217.247 181.533 217.882 182.209 218.491 182.872C219.666 184.27 220.763 185.732 221.776 187.252L223.277 189.551L224.561 191.958C227.239 197.161 228.982 202.795 229.713 208.601C230.177 212.324 230.249 216.085 229.929 219.823C229.642 223.58 228.944 227.293 227.847 230.897C226.445 235.444 224.43 239.779 221.857 243.782C217.406 250.778 211.159 256.451 203.767 260.209C199.245 262.496 194.412 264.105 189.421 264.982C184.014 265.932 178.495 266.069 173.048 265.388C167.372 264.698 161.849 263.077 156.702 260.588C151.482 258.023 146.794 254.495 142.884 250.191C139 245.925 135.827 241.063 133.487 235.791C131.265 230.703 129.811 225.312 129.174 219.796C128.568 214.668 128.723 209.479 129.633 204.396C130.484 199.832 131.873 195.384 133.771 191.146C135.375 187.542 137.346 184.112 139.652 180.911C141.472 178.429 143.517 176.12 145.763 174.016C146.619 173.206 147.522 172.448 148.468 171.744L149.603 170.825L150.631 170.135C151.875 169.297 152.659 168.783 152.916 168.648L155.295 167.296L158 165.944C158.932 165.484 159.987 165.146 161.109 164.687C162.232 164.227 163.394 163.997 164.814 163.578Z" fill="#0F172A"/>
<path d="M187.8 213.455C189.451 213.956 191.15 214.277 192.87 214.415C193.724 214.492 194.582 214.514 195.439 214.483C195.605 214.494 195.772 214.494 195.939 214.483H196.034H196.25C196.261 214.591 196.261 214.699 196.25 214.807L196.318 216.727L196.426 220.783C196.443 222.88 196.33 224.975 196.088 227.057C195.809 230.631 194.582 234.067 192.532 237.008C192.018 237.727 191.444 238.401 190.815 239.023C190.49 239.32 190.193 239.658 189.855 239.929L188.8 240.686C187.365 241.645 185.708 242.218 183.987 242.349C182.434 242.39 180.89 242.108 179.451 241.522C178.013 240.935 176.712 240.057 175.631 238.942C174.163 237.53 172.959 235.868 172.075 234.034C171.088 232.222 170.575 230.356 169.439 228.166C169.033 227.449 168.411 227.246 168.276 227.503C168.152 227.945 168.071 228.398 168.033 228.855C167.895 229.673 167.868 230.505 167.952 231.329C167.965 231.48 167.993 231.63 168.033 231.776C168.033 231.776 168.033 231.87 168.033 231.884C168.033 231.816 168.033 231.897 168.033 231.884V232.087C168.033 232.371 168.154 232.654 168.222 232.952C168.359 233.586 168.577 234.199 168.871 234.777C169.897 236.971 171.297 238.971 173.008 240.686C174.752 242.496 176.916 243.848 179.309 244.62C181.769 245.426 184.419 245.45 186.894 244.688C189.279 243.911 191.412 242.511 193.073 240.632C195.013 238.477 196.523 235.971 197.521 233.249C198.464 230.553 199.006 227.734 199.13 224.88C199.238 222.798 199.225 220.729 199.13 218.674L198.914 211.319C198.116 211.454 197.318 211.576 196.547 211.671H195.547H194.871C193.967 211.684 193.063 211.63 192.167 211.508C190.432 211.304 188.732 210.873 187.11 210.224C186.304 209.897 185.519 209.522 184.758 209.102L183.662 208.412C183.27 208.142 183.054 207.952 182.418 207.493L181.783 207.114C181.555 207.027 181.307 207.004 181.066 207.046C180.578 207.16 180.118 207.372 179.714 207.668C179.384 207.902 179.068 208.155 178.768 208.426L177.97 209.142C176.929 210.116 175.942 211.076 174.928 211.995C173.936 212.901 172.879 213.733 171.764 214.483C170.762 215.216 169.589 215.682 168.357 215.835C168.146 215.848 167.933 215.848 167.722 215.835H167.397L166.924 215.754C166.314 215.673 165.695 215.673 165.085 215.754C163.838 215.906 162.658 216.402 161.678 217.187C160.703 218.02 160.001 219.127 159.663 220.364C159.321 221.585 159.284 222.871 159.555 224.109C159.72 224.734 160.01 225.318 160.407 225.827C160.82 226.313 161.326 226.713 161.894 227.003C162.634 227.363 163.415 227.631 164.22 227.801C164.815 227.936 165.261 228.017 165.572 228.071C166.119 228.183 166.685 228.16 167.221 228.003C167.458 227.973 167.693 227.927 167.924 227.868C168.249 227.746 168.222 227.354 167.708 226.759C166.901 226.027 165.933 225.495 164.882 225.205C164.135 225.002 163.43 224.668 162.8 224.218C162.612 224.048 162.463 223.839 162.365 223.605C162.266 223.371 162.221 223.119 162.232 222.866C162.194 222.148 162.305 221.43 162.557 220.756C162.78 220.163 163.175 219.65 163.693 219.283C164.225 218.9 164.851 218.666 165.504 218.607C165.832 218.566 166.163 218.566 166.491 218.607L167.154 218.728C167.515 218.794 167.882 218.826 168.249 218.823C169.556 218.763 170.832 218.407 171.981 217.782C172.969 217.256 173.91 216.645 174.793 215.957C176.321 214.78 177.673 213.496 178.984 212.265C179.633 211.657 180.336 211.049 180.891 210.548L181.107 210.373L181.513 210.684C181.77 210.886 182.053 211.049 182.324 211.224C182.864 211.584 183.424 211.914 184 212.211C185.149 212.827 186.353 213.334 187.597 213.726L187.8 213.455Z" fill="#0F172A"/>
<path d="M155.606 201.165C156.109 200.902 156.629 200.672 157.161 200.475L157.567 200.327H157.689H157.932L158.378 200.205C158.959 200.029 159.568 199.881 160.149 199.732L160.406 197.136C160.487 196.771 160.528 196.392 160.636 196.041C160.806 195.352 161.075 194.692 161.434 194.08C162.174 192.871 163.276 191.925 164.584 191.376C167.629 190.243 170.929 189.976 174.116 190.605C174.63 190.687 175.13 190.795 175.617 190.916C175.86 190.916 176.117 191.038 176.333 191.119L176.644 191.227C176.644 191.227 176.766 191.227 176.834 191.227L177.009 191.065L177.375 190.741L177.645 190.822L177.996 190.944C178.104 190.956 178.213 190.956 178.321 190.944C178.632 190.944 178.875 191.011 179.308 191.092L179.687 190.619L180.025 190.335L180.457 190.011C180.755 189.781 181.039 189.618 181.323 189.416L182.215 188.902L183.134 188.469C184.127 188.044 185.192 187.815 186.271 187.793C187.322 187.811 188.352 188.1 189.259 188.631L189.962 189.024L190.611 189.578L191.26 190.119L191.828 190.795C192.234 191.211 192.6 191.663 192.923 192.147L194.275 194.31L195.127 194.432L195.884 194.567L196.844 194.783C197.493 194.946 198.129 195.135 198.751 195.351C199.985 195.761 201.169 196.31 202.279 196.987C203.372 197.606 204.329 198.438 205.093 199.435C205.858 200.431 206.413 201.572 206.728 202.788C206.827 203.297 206.899 203.812 206.944 204.329V206.641L207.836 207.195C208.134 207.371 208.458 207.614 208.593 207.709C208.729 207.804 209.283 208.223 209.621 208.493C210.284 209.044 210.916 209.63 211.514 210.251C212.685 211.461 213.645 212.86 214.353 214.388C214.913 215.626 215.192 216.973 215.168 218.331C215.145 219.689 214.82 221.026 214.218 222.244C212.9 224.815 211.1 227.11 208.918 229.004C207.566 230.248 208.228 230.789 210.027 230.356C211.214 230.049 212.333 229.521 213.326 228.801C214.807 227.792 216.029 226.449 216.895 224.88C217.949 223.045 218.56 220.99 218.68 218.877C218.754 216.737 218.289 214.612 217.328 212.698C216.43 210.899 215.237 209.263 213.799 207.858C213.12 207.163 212.398 206.513 211.636 205.911C211.257 205.613 210.865 205.329 210.473 205.045C210.081 204.762 210.311 204.937 210.27 204.91C210.27 204.91 210.27 204.91 210.27 204.829V204.464C210.27 204.275 210.27 204.072 210.27 203.869C210.163 203.052 210 202.244 209.783 201.449C209.545 200.649 209.209 199.881 208.783 199.164C208.587 198.804 208.371 198.457 208.134 198.123L207.363 197.176C206.309 196.01 205.072 195.023 203.699 194.256C202.415 193.52 201.055 192.926 199.643 192.485C198.994 192.282 198.291 192.106 197.655 191.944C197.304 191.944 196.979 191.782 196.628 191.728C196.511 191.719 196.393 191.719 196.276 191.728C196.24 191.686 196.209 191.641 196.182 191.592L196.019 191.349L195.33 190.267C194.843 189.564 194.235 188.915 193.68 188.239C192.412 186.873 190.83 185.838 189.07 185.224C187.247 184.651 185.297 184.623 183.459 185.143C181.733 185.633 180.117 186.45 178.7 187.55L178.226 187.915L178.023 188.077C177.915 188.158 177.848 188.334 177.713 188.199L177.483 188.118C177.347 188.118 176.996 187.969 176.78 187.915C176.266 187.78 175.766 187.672 175.265 187.577C174.263 187.397 173.252 187.27 172.237 187.198C170.177 187.037 168.105 187.174 166.085 187.604C163.951 188.038 161.974 189.043 160.366 190.511C159.578 191.304 158.921 192.217 158.419 193.215C157.957 194.193 157.634 195.23 157.459 196.298C157.421 196.476 157.394 196.657 157.378 196.838C157.392 196.964 157.392 197.091 157.378 197.217L156.999 197.325L156.404 197.542C155.819 197.754 155.246 197.997 154.687 198.272C153.487 198.738 152.348 199.346 151.293 200.083C150.266 200.904 149.412 201.92 148.779 203.071C148.131 204.254 147.778 205.576 147.751 206.925C147.751 207.493 147.846 208.061 147.886 208.628C147.984 209.179 148.125 209.721 148.305 210.251L148.549 211.035L148.887 211.738C149.008 212.009 149.157 212.252 149.238 212.495C148.341 213.391 147.493 214.335 146.696 215.321C145.729 216.497 144.853 217.745 144.073 219.053C143.264 220.377 142.628 221.799 142.181 223.285C141.686 224.836 141.588 226.486 141.897 228.084C142.145 229.263 142.653 230.372 143.384 231.329C143.742 231.812 144.14 232.265 144.574 232.681C144.774 232.884 144.991 233.07 145.223 233.236L145.601 233.547L145.669 233.723L145.763 233.979L146.061 234.71C146.264 235.183 146.48 235.642 146.723 236.062C147.183 236.995 147.703 237.899 148.278 238.766C149.449 240.574 150.976 242.125 152.767 243.322C154.056 244.169 155.523 244.705 157.053 244.891C158.265 245.02 159.491 244.915 160.663 244.58C161.439 244.372 162.182 244.053 162.867 243.633C163.67 243.216 164.291 242.518 164.611 241.673C164.731 241.391 164.817 241.096 164.868 240.794C164.868 240.388 164.368 240.348 163.516 240.618C162.332 241.025 161.127 241.368 159.906 241.646C158.65 241.883 157.354 241.796 156.141 241.394C154.927 240.992 153.836 240.287 152.97 239.347C151.969 238.352 151.096 237.234 150.374 236.021C150.009 235.399 149.657 234.75 149.333 234.088C149.171 233.763 149.022 233.425 148.873 233.087L148.67 232.587C148.522 232.249 148.386 231.857 148.251 231.478L147.075 230.599C146.882 230.456 146.702 230.298 146.534 230.126C146.367 229.977 146.213 229.815 146.074 229.639C145.927 229.477 145.795 229.3 145.682 229.112C145.216 228.411 144.941 227.6 144.885 226.759C144.914 224.737 145.514 222.764 146.615 221.067C147.329 219.838 148.138 218.667 149.035 217.565C149.495 217.011 149.968 216.457 150.455 215.916L150.834 215.524L151.456 214.875C151.996 214.334 152.591 213.807 153.159 213.279L151.672 210.116C151.429 209.588 151.347 209.061 151.158 208.547C151.074 208.046 151.015 207.54 150.982 207.033C151.006 206.575 151.083 206.121 151.212 205.681C151.606 204.689 152.197 203.788 152.95 203.033C153.703 202.278 154.603 201.683 155.593 201.287L155.606 201.165Z" fill="#0F172A"/>
<path d="M162.531 234.655C158.299 240.064 150.254 232.032 156.203 228.869C157.49 228.29 158.914 228.086 160.311 228.283C161.708 228.479 163.022 229.066 164.099 229.977C166.709 232.276 165.667 235.778 163.802 238.238C160.178 243.011 154.337 241.97 151.052 237.508C146.752 231.708 150.876 223.109 158.502 225.461C160.259 226.016 159.854 227.774 158.042 227.219C150.835 224.988 150.66 237.251 156.325 239.388C159.029 240.361 161.733 236.927 162.423 234.669C163.112 232.411 161.922 229.842 159.002 230.302C158.676 230.377 158.368 230.518 158.098 230.716C157.828 230.914 157.602 231.165 157.432 231.453C157.263 231.742 157.154 232.062 157.112 232.394C157.07 232.726 157.097 233.063 157.19 233.385C157.677 234.561 159.069 234.426 159.827 233.466C160.584 232.506 163.369 233.628 162.531 234.696V234.655Z" fill="#0F172A"/>
<path d="M161.069 213.888C160.799 216.227 154.309 214.699 154.106 212.32C153.552 206.911 163.151 208.074 162.827 213.672C162.556 218.323 155.147 218.985 152.254 216.524C150.253 214.821 148.346 211.765 149.55 209.115C150.581 207.212 152.165 205.666 154.093 204.68C159.663 201.706 169.195 206.587 165.734 213.509C165.233 214.51 162.732 213.739 163.192 212.833C163.677 211.85 163.835 210.738 163.643 209.659C163.451 208.58 162.919 207.59 162.125 206.835C161.33 206.08 160.315 205.598 159.227 205.461C158.14 205.324 157.037 205.539 156.08 206.073C154.498 206.898 152.281 208.669 151.808 210.521C150.753 214.672 156.445 218.296 159.514 215.037C159.833 214.704 160.066 214.299 160.193 213.856C160.321 213.414 160.338 212.946 160.244 212.495C159.393 209.521 156.472 210.765 156.688 212.36C156.797 213.158 158.487 213.428 158.514 213.158C158.635 212.13 161.218 212.739 161.069 213.847V213.888Z" fill="#0F172A"/>
<path d="M180.891 197.771C180.675 199.651 175.672 198.434 175.483 196.595C175.077 192.701 182.243 193.566 182.027 197.636C181.837 201.057 176.389 201.287 174.361 199.516C173.008 198.339 171.738 196.311 172.535 194.486C173.213 193.197 174.277 192.153 175.577 191.498C179.363 189.456 186.394 192.728 183.906 197.582C183.419 198.569 180.918 197.798 181.364 196.893C181.696 196.355 181.841 195.722 181.778 195.093C181.715 194.465 181.446 193.874 181.014 193.413C180.582 192.951 180.011 192.645 179.387 192.541C178.764 192.437 178.123 192.541 177.565 192.836C176.364 193.378 175.403 194.34 174.861 195.54C174.279 197.853 177.186 200.016 178.998 198.15C179.189 197.958 179.33 197.722 179.405 197.462C179.481 197.202 179.49 196.927 179.431 196.663C178.917 195.311 177.889 196.041 178.079 196.73C178.16 197.149 178.079 196.663 178.079 196.852H178.444C178.619 196.852 178.565 196.852 178.309 197.041C178.43 196.014 181.013 196.609 180.864 197.717L180.891 197.771Z" fill="#0F172A"/>
<path d="M162.192 201.097C162.503 200.678 162.259 201.476 162.732 201.517C162.976 201.787 163.07 201.855 163.003 201.706C163.256 201.389 163.424 201.011 163.49 200.611C163.138 197.974 160.785 200.421 160.623 201.273C160.579 201.898 160.74 202.52 161.083 203.044C161.279 203.457 161.564 203.822 161.917 204.112C162.271 204.401 162.684 204.609 163.127 204.72C163.571 204.832 164.033 204.843 164.481 204.754C164.93 204.666 165.353 204.479 165.72 204.207C166.071 204.034 166.375 203.781 166.61 203.469C166.845 203.156 167.003 202.793 167.073 202.409C167.448 200.882 167.32 199.274 166.707 197.825C166.387 197.164 165.878 196.613 165.245 196.241C164.612 195.869 163.882 195.693 163.149 195.735C162.416 195.777 161.712 196.035 161.125 196.477C160.538 196.919 160.095 197.524 159.853 198.218C159.46 199.245 156.932 198.515 157.311 197.528C158.974 193.093 165.355 192.985 168.249 196.311C169.871 198.177 170.561 201.99 169.195 204.207C167.978 206.181 164.828 206.722 162.732 206.411C161.774 206.194 160.88 205.752 160.126 205.122C159.371 204.492 158.777 203.692 158.392 202.787C156.161 197.825 164.855 195.567 165.964 200.3C166.074 200.772 166.049 201.266 165.892 201.726C165.735 202.185 165.453 202.591 165.077 202.898C164.701 203.205 164.247 203.4 163.765 203.462C163.284 203.524 162.795 203.449 162.354 203.247C161.475 202.936 158.879 201.246 159.785 200.043C160.407 199.218 162.854 200.151 162.137 201.097H162.192Z" fill="#0F172A"/>
<path d="M194.924 202.869C196.276 203.166 194.992 203.301 194.816 204.437C194.478 206.654 198.872 204.775 197.087 202.477L193.437 201.246C192.946 201.373 192.494 201.616 192.117 201.955C191.74 202.294 191.451 202.719 191.274 203.193C191.022 204.077 191.022 205.013 191.274 205.897C191.76 208.02 193.423 211.103 195.952 211.116C197.121 210.988 198.244 210.587 199.23 209.946C200.217 209.305 201.039 208.442 201.63 207.425C203.537 204.194 202.077 197.866 197.344 198.569C196.209 198.731 194.708 197.149 196.411 196.893C197.776 196.728 199.159 196.93 200.419 197.478C201.679 198.027 202.769 198.901 203.578 200.012C204.387 201.123 204.885 202.429 205.02 203.796C205.155 205.164 204.923 206.542 204.348 207.79C202.333 211.914 196.804 214.239 192.761 211.657C187.785 208.493 186.46 198.84 194.397 199.421C197.006 199.624 200.008 201.233 199.9 204.194C199.805 206.776 197.845 207.641 195.519 207.303C193.707 207.033 191.896 205.951 192.247 203.896C192.504 202.395 193.734 200.922 195.357 201.3C196.979 201.679 196.506 203.207 194.938 202.842L194.924 202.869Z" fill="#0F172A"/>
<path d="M205.376 218.823C203.186 220.026 206.255 220.175 206.809 219.864C208.161 219.174 207.201 218.796 206.174 218.309C205.655 218.06 205.074 217.967 204.504 218.042C203.933 218.116 203.396 218.355 202.958 218.728C202.52 219.102 202.199 219.595 202.036 220.147C201.872 220.698 201.873 221.286 202.037 221.838C202.983 226.151 209.256 226.516 211.366 223.041C212.382 221.122 212.779 218.935 212.501 216.781C211.907 212.198 206.106 210.251 203.362 214.537C202.807 215.389 200.36 214.537 201.009 213.469C204.119 208.615 212.488 209.899 214.529 215.132C215.882 218.485 215.07 223.92 211.758 225.867C210.513 226.614 209.105 227.045 207.656 227.123C206.206 227.201 204.76 226.923 203.443 226.313C201.36 225.218 199.13 222.852 199.386 220.351C199.419 219.734 199.58 219.131 199.86 218.581C200.14 218.03 200.532 217.544 201.011 217.155C201.49 216.765 202.045 216.48 202.641 216.318C203.237 216.156 203.86 216.12 204.47 216.213C206.052 216.43 209.797 217.444 210.108 219.445C210.838 224.272 197.399 220.797 203.348 217.457C204.213 216.984 206.512 218.187 205.349 218.809L205.376 218.823Z" fill="#0F172A"/>
<path d="M192.287 204.302C192.72 205.87 190.394 207.736 188.947 207.709C187.994 207.642 187.1 207.22 186.442 206.527C185.784 205.834 185.409 204.919 185.391 203.964C185.905 198.731 193.436 199.461 194.099 204.369C194.869 209.98 187.163 211.211 183.512 209.196C177.59 205.911 179.632 198.38 184.391 195.04C190.11 190.984 196.762 195.946 196.438 202.355C196.438 203.355 193.828 202.801 193.882 201.679C193.991 199.664 193.247 196.771 191.313 195.757C189.38 194.743 187.163 195.676 185.675 196.974C183.282 199.083 181.119 203.193 182.971 206.289C185.148 209.899 192.017 208.696 191.53 204.113C191.286 201.841 189.231 201.733 188.298 203.572C186.825 206.479 190.164 205.721 189.718 204.058C189.421 202.963 192.003 203.301 192.273 204.302H192.287Z" fill="#0F172A"/>
<path d="M169.669 209.345C168.614 208.737 168.316 208.439 168.965 208.439C169.216 208.432 169.462 208.381 169.696 208.29C170.047 208.02 170.493 207.993 170.777 207.601C170.975 207.255 171.067 206.859 171.04 206.462C171.013 206.065 170.868 205.684 170.625 205.369C170.382 205.054 170.051 204.817 169.674 204.69C169.297 204.563 168.89 204.55 168.506 204.653C167.811 204.903 167.188 205.321 166.694 205.87C164.396 208.074 166.559 214.212 169.898 214.212C173.238 214.212 175.645 209.791 176.104 207.033C176.713 203.355 173.4 200.07 170.088 199.772C169.381 199.657 168.657 199.706 167.972 199.915C167.287 200.124 166.659 200.487 166.136 200.977C165.613 201.467 165.21 202.07 164.958 202.74C164.705 203.41 164.61 204.13 164.679 204.843C164.679 206.046 162.165 205.613 162.111 204.599C161.786 197.514 170.223 196.298 174.915 199.813C177.389 201.679 179.349 204.87 178.592 208.033C177.97 210.616 176.104 213.901 173.684 215.159C168.208 218.012 163.841 213.374 163.165 208.169C162.557 203.369 170.02 200.813 172.873 204.64C175.577 208.263 170.169 212.103 167.343 209.413C167.254 209.332 167.187 209.23 167.147 209.117C167.107 209.004 167.095 208.882 167.113 208.764V208.669C167.384 207.614 169.925 208.29 169.669 209.345Z" fill="#0F172A"/>
<path d="M149.941 222.176C153.592 219.053 159.5 222.893 157.959 227.584C156.418 232.276 150.36 231.492 147.318 228.815C143.708 225.651 143.167 220.594 147.48 217.849C149.606 216.53 152.138 216.024 154.607 216.424C157.077 216.824 159.319 218.103 160.92 220.026C159.926 220.226 158.893 220.032 158.04 219.485C155.336 215.902 149.63 217.836 147.751 221.365C147.39 222.143 147.223 222.997 147.263 223.854C147.303 224.711 147.549 225.545 147.981 226.286C148.968 228.436 150.928 230.991 153.457 229.112C154.006 228.653 154.454 228.083 154.771 227.441C155.087 226.798 155.266 226.096 155.295 225.38C155.363 223.771 154.511 221.676 152.713 223.217C152.145 223.704 149.563 222.555 150.009 222.23L149.941 222.176Z" fill="#0F172A"/>
</svg>
